%TF.GenerationSoftware,KiCad,Pcbnew,10.0.3*%
%TF.CreationDate,2026-06-14T13:53:10+05:30*%
%TF.ProjectId,STM32_Sensor_Expansion_Board,53544d33-325f-4536-956e-736f725f4578,rev?*%
%TF.SameCoordinates,Original*%
%TF.FileFunction,Legend,Bot*%
%TF.FilePolarity,Positive*%
%FSLAX46Y46*%
G04 Gerber Fmt 4.6, Leading zero omitted, Abs format (unit mm)*
G04 Created by KiCad (PCBNEW 10.0.3) date 2026-06-14 13:53:10*
%MOMM*%
%LPD*%
G01*
G04 APERTURE LIST*
%ADD10C,0.100000*%
G04 APERTURE END LIST*
D10*
X141124687Y-89772419D02*
X141458020Y-89296228D01*
X141696115Y-89772419D02*
X141696115Y-88772419D01*
X141696115Y-88772419D02*
X141315163Y-88772419D01*
X141315163Y-88772419D02*
X141219925Y-88820038D01*
X141219925Y-88820038D02*
X141172306Y-88867657D01*
X141172306Y-88867657D02*
X141124687Y-88962895D01*
X141124687Y-88962895D02*
X141124687Y-89105752D01*
X141124687Y-89105752D02*
X141172306Y-89200990D01*
X141172306Y-89200990D02*
X141219925Y-89248609D01*
X141219925Y-89248609D02*
X141315163Y-89296228D01*
X141315163Y-89296228D02*
X141696115Y-89296228D01*
X140505639Y-88772419D02*
X140315163Y-88772419D01*
X140315163Y-88772419D02*
X140219925Y-88820038D01*
X140219925Y-88820038D02*
X140124687Y-88915276D01*
X140124687Y-88915276D02*
X140077068Y-89105752D01*
X140077068Y-89105752D02*
X140077068Y-89439085D01*
X140077068Y-89439085D02*
X140124687Y-89629561D01*
X140124687Y-89629561D02*
X140219925Y-89724800D01*
X140219925Y-89724800D02*
X140315163Y-89772419D01*
X140315163Y-89772419D02*
X140505639Y-89772419D01*
X140505639Y-89772419D02*
X140600877Y-89724800D01*
X140600877Y-89724800D02*
X140696115Y-89629561D01*
X140696115Y-89629561D02*
X140743734Y-89439085D01*
X140743734Y-89439085D02*
X140743734Y-89105752D01*
X140743734Y-89105752D02*
X140696115Y-88915276D01*
X140696115Y-88915276D02*
X140600877Y-88820038D01*
X140600877Y-88820038D02*
X140505639Y-88772419D01*
X139648496Y-89772419D02*
X139648496Y-88772419D01*
X139648496Y-89248609D02*
X139077068Y-89248609D01*
X139077068Y-89772419D02*
X139077068Y-88772419D01*
X138600877Y-89772419D02*
X138600877Y-88772419D01*
X138267544Y-88772419D02*
X137696116Y-88772419D01*
X137981830Y-89772419D02*
X137981830Y-88772419D01*
X136600877Y-89772419D02*
X136600877Y-88772419D01*
X136029449Y-89772419D02*
X136458020Y-89200990D01*
X136029449Y-88772419D02*
X136600877Y-89343847D01*
X135600877Y-88772419D02*
X135600877Y-89581942D01*
X135600877Y-89581942D02*
X135553258Y-89677180D01*
X135553258Y-89677180D02*
X135505639Y-89724800D01*
X135505639Y-89724800D02*
X135410401Y-89772419D01*
X135410401Y-89772419D02*
X135219925Y-89772419D01*
X135219925Y-89772419D02*
X135124687Y-89724800D01*
X135124687Y-89724800D02*
X135077068Y-89677180D01*
X135077068Y-89677180D02*
X135029449Y-89581942D01*
X135029449Y-89581942D02*
X135029449Y-88772419D01*
X134553258Y-89772419D02*
X134553258Y-88772419D01*
X134553258Y-88772419D02*
X134219925Y-89486704D01*
X134219925Y-89486704D02*
X133886592Y-88772419D01*
X133886592Y-88772419D02*
X133886592Y-89772419D01*
X133458020Y-89486704D02*
X132981830Y-89486704D01*
X133553258Y-89772419D02*
X133219925Y-88772419D01*
X133219925Y-88772419D02*
X132886592Y-89772419D01*
X131981830Y-89772419D02*
X132315163Y-89296228D01*
X132553258Y-89772419D02*
X132553258Y-88772419D01*
X132553258Y-88772419D02*
X132172306Y-88772419D01*
X132172306Y-88772419D02*
X132077068Y-88820038D01*
X132077068Y-88820038D02*
X132029449Y-88867657D01*
X132029449Y-88867657D02*
X131981830Y-88962895D01*
X131981830Y-88962895D02*
X131981830Y-89105752D01*
X131981830Y-89105752D02*
X132029449Y-89200990D01*
X132029449Y-89200990D02*
X132077068Y-89248609D01*
X132077068Y-89248609D02*
X132172306Y-89296228D01*
X132172306Y-89296228D02*
X132553258Y-89296228D01*
M02*
