%TF.GenerationSoftware,KiCad,Pcbnew,10.0.3*%
%TF.CreationDate,2026-06-14T13:53:10+05:30*%
%TF.ProjectId,STM32_Sensor_Expansion_Board,53544d33-325f-4536-956e-736f725f4578,rev?*%
%TF.SameCoordinates,Original*%
%TF.FileFunction,Copper,L1,Top*%
%TF.FilePolarity,Positive*%
%FSLAX46Y46*%
G04 Gerber Fmt 4.6, Leading zero omitted, Abs format (unit mm)*
G04 Created by KiCad (PCBNEW 10.0.3) date 2026-06-14 13:53:10*
%MOMM*%
%LPD*%
G01*
G04 APERTURE LIST*
G04 Aperture macros list*
%AMRoundRect*
0 Rectangle with rounded corners*
0 $1 Rounding radius*
0 $2 $3 $4 $5 $6 $7 $8 $9 X,Y pos of 4 corners*
0 Add a 4 corners polygon primitive as box body*
4,1,4,$2,$3,$4,$5,$6,$7,$8,$9,$2,$3,0*
0 Add four circle primitives for the rounded corners*
1,1,$1+$1,$2,$3*
1,1,$1+$1,$4,$5*
1,1,$1+$1,$6,$7*
1,1,$1+$1,$8,$9*
0 Add four rect primitives between the rounded corners*
20,1,$1+$1,$2,$3,$4,$5,0*
20,1,$1+$1,$4,$5,$6,$7,0*
20,1,$1+$1,$6,$7,$8,$9,0*
20,1,$1+$1,$8,$9,$2,$3,0*%
G04 Aperture macros list end*
%TA.AperFunction,ComponentPad*%
%ADD10C,2.000000*%
%TD*%
%TA.AperFunction,ComponentPad*%
%ADD11C,1.700000*%
%TD*%
%TA.AperFunction,ComponentPad*%
%ADD12R,1.905000X2.000000*%
%TD*%
%TA.AperFunction,ComponentPad*%
%ADD13O,1.905000X2.000000*%
%TD*%
%TA.AperFunction,ComponentPad*%
%ADD14R,2.000000X1.905000*%
%TD*%
%TA.AperFunction,ComponentPad*%
%ADD15O,2.000000X1.905000*%
%TD*%
%TA.AperFunction,ComponentPad*%
%ADD16R,1.500000X1.500000*%
%TD*%
%TA.AperFunction,ComponentPad*%
%ADD17C,1.600000*%
%TD*%
%TA.AperFunction,ComponentPad*%
%ADD18R,1.700000X1.700000*%
%TD*%
%TA.AperFunction,ComponentPad*%
%ADD19RoundRect,0.250000X-0.620000X-0.620000X0.620000X-0.620000X0.620000X0.620000X-0.620000X0.620000X0*%
%TD*%
%TA.AperFunction,ComponentPad*%
%ADD20C,1.740000*%
%TD*%
%TA.AperFunction,ComponentPad*%
%ADD21R,2.600000X2.600000*%
%TD*%
%TA.AperFunction,ComponentPad*%
%ADD22C,2.600000*%
%TD*%
%TA.AperFunction,ComponentPad*%
%ADD23R,1.800000X1.800000*%
%TD*%
%TA.AperFunction,ComponentPad*%
%ADD24C,1.800000*%
%TD*%
%TA.AperFunction,ComponentPad*%
%ADD25RoundRect,0.249999X0.850001X-0.850001X0.850001X0.850001X-0.850001X0.850001X-0.850001X-0.850001X0*%
%TD*%
%TA.AperFunction,ComponentPad*%
%ADD26C,2.200000*%
%TD*%
%TA.AperFunction,ViaPad*%
%ADD27C,0.600000*%
%TD*%
%TA.AperFunction,Conductor*%
%ADD28C,0.200000*%
%TD*%
G04 APERTURE END LIST*
D10*
%TO.P,SW3,1,1_1*%
%TO.N,/NRST*%
X100525000Y-138275000D03*
X107025000Y-138275000D03*
%TO.P,SW3,2,2_2*%
%TO.N,GND*%
X100525000Y-142775000D03*
X107025000Y-142775000D03*
%TD*%
%TO.P,SW2,1,1_1*%
%TO.N,/USER_BTN*%
X112180000Y-138500000D03*
X118680000Y-138500000D03*
%TO.P,SW2,2,2_2*%
%TO.N,Net-(J8-Pin_1)*%
X112180000Y-143000000D03*
X118680000Y-143000000D03*
%TD*%
D11*
%TO.P,U3,1,PC10_1*%
%TO.N,unconnected-(U3-PC10-Pad1)*%
X110500000Y-130000000D03*
%TO.P,U3,2,PC11_2*%
%TO.N,unconnected-(U3-PC11-Pad2)*%
X110500000Y-127460000D03*
%TO.P,U3,3,PC12_3*%
%TO.N,/USER_BTN*%
X113040000Y-130000000D03*
%TO.P,U3,4,PD2_4*%
%TO.N,unconnected-(U3-PD2-Pad4)*%
X113040000Y-127460000D03*
%TO.P,U3,5,VDD_5*%
%TO.N,unconnected-(U3-VDD-Pad5)*%
X115580000Y-130000000D03*
%TO.P,U3,6,E5V_6*%
%TO.N,unconnected-(U3-E5V-Pad6)*%
X115580000Y-127460000D03*
%TO.P,U3,7,~{BOOT0}_7*%
%TO.N,unconnected-(U3-~{BOOT0}-Pad7)*%
X118120000Y-130000000D03*
%TO.P,U3,8,GND_8*%
%TO.N,GND*%
X118120000Y-127460000D03*
%TO.P,U3,9,NC_9*%
%TO.N,unconnected-(U3-NC-Pad9)*%
X120660000Y-130000000D03*
%TO.P,U3,10,NC_10*%
%TO.N,unconnected-(U3-NC-Pad10)*%
X120660000Y-127460000D03*
%TO.P,U3,11,NC_11*%
%TO.N,unconnected-(U3-NC-Pad11)*%
X123200000Y-130000000D03*
%TO.P,U3,12,IOREF_12*%
%TO.N,unconnected-(U3-IOREF-Pad12)*%
X123200000Y-127460000D03*
%TO.P,U3,13,STLINK_TMS/PA13_13*%
%TO.N,unconnected-(U3-STLINK_TMS{slash}PA13-Pad13)*%
X125740000Y-130000000D03*
%TO.P,U3,14,~{RESET}_14*%
%TO.N,/NRST*%
X125740000Y-127460000D03*
%TO.P,U3,15,STLINK_TCK/PA14_15*%
%TO.N,unconnected-(U3-STLINK_TCK{slash}PA14-Pad15)*%
X128280000Y-130000000D03*
%TO.P,U3,16,+3V3_16*%
%TO.N,unconnected-(U3-+3V3-Pad16)*%
X128280000Y-127460000D03*
%TO.P,U3,17,PA15_17*%
%TO.N,unconnected-(U3-PA15-Pad17)*%
X130820000Y-130000000D03*
%TO.P,U3,18,+5V_18*%
%TO.N,unconnected-(U3-+5V-Pad18)*%
X130820000Y-127460000D03*
%TO.P,U3,19,GND_19*%
%TO.N,GND*%
X133360000Y-130000000D03*
%TO.P,U3,20,GND_20*%
X133360000Y-127460000D03*
%TO.P,U3,21,PB7_21*%
%TO.N,unconnected-(U3-PB7-Pad21)*%
X135900000Y-130000000D03*
%TO.P,U3,22,GND_22*%
%TO.N,GND*%
X135900000Y-127460000D03*
%TO.P,U3,23,PC13_23*%
%TO.N,/USER_LED*%
X138440000Y-130000000D03*
%TO.P,U3,24,VIN_24*%
%TO.N,unconnected-(U3-VIN-Pad24)*%
X138440000Y-127460000D03*
%TO.P,U3,25,PC14_25*%
%TO.N,unconnected-(U3-PC14-Pad25)*%
X140980000Y-130000000D03*
%TO.P,U3,26,NC_26*%
%TO.N,unconnected-(U3-NC-Pad26)*%
X140980000Y-127460000D03*
%TO.P,U3,27,PC15_27*%
%TO.N,unconnected-(U3-PC15-Pad27)*%
X143520000Y-130000000D03*
%TO.P,U3,28,PA0_28*%
%TO.N,/DHT11_DATA*%
X143520000Y-127460000D03*
%TO.P,U3,29,PH0_29*%
%TO.N,unconnected-(U3-PH0-Pad29)*%
X146060000Y-130000000D03*
%TO.P,U3,30,PA1_30*%
%TO.N,/HC-TRIG*%
X146060000Y-127460000D03*
%TO.P,U3,31,PH1_31*%
%TO.N,unconnected-(U3-PH1-Pad31)*%
X148600000Y-130000000D03*
%TO.P,U3,32,PA4_32*%
%TO.N,unconnected-(U3-PA4-Pad32)*%
X148600000Y-127460000D03*
%TO.P,U3,33,VBAT_33*%
%TO.N,unconnected-(U3-VBAT-Pad33)*%
X151140000Y-130000000D03*
%TO.P,U3,34,PB0_34*%
%TO.N,unconnected-(U3-PB0-Pad34)*%
X151140000Y-127460000D03*
%TO.P,U3,35,PC2_35*%
%TO.N,unconnected-(U3-PC2-Pad35)*%
X153680000Y-130000000D03*
%TO.P,U3,36,PC1_36*%
%TO.N,unconnected-(U3-PC1-Pad36)*%
X153680000Y-127460000D03*
%TO.P,U3,37,PC3_37*%
%TO.N,unconnected-(U3-PC3-Pad37)*%
X156220000Y-130000000D03*
%TO.P,U3,38,PC0_38*%
%TO.N,unconnected-(U3-PC0-Pad38)*%
X156220000Y-127460000D03*
%TO.P,U3,39,PC9_39*%
%TO.N,unconnected-(U3-PC9-Pad39)*%
X158760000Y-130000000D03*
%TO.P,U3,40,PC8_40*%
%TO.N,unconnected-(U3-PC8-Pad40)*%
X158760000Y-127460000D03*
%TO.P,U3,41,PB8_41*%
%TO.N,/SCL*%
X161300000Y-130000000D03*
%TO.P,U3,42,PC6_42*%
%TO.N,unconnected-(U3-PC6-Pad42)*%
X161300000Y-127460000D03*
%TO.P,U3,43,PB9_43*%
%TO.N,/SDA*%
X163840000Y-130000000D03*
%TO.P,U3,44,PC5_44*%
%TO.N,unconnected-(U3-PC5-Pad44)*%
X163840000Y-127460000D03*
%TO.P,U3,45,AVDD_45*%
%TO.N,unconnected-(U3-AVDD-Pad45)*%
X166380000Y-130000000D03*
%TO.P,U3,46,U5V_46*%
%TO.N,unconnected-(U3-U5V-Pad46)*%
X166380000Y-127460000D03*
%TO.P,U3,47,GND_47*%
%TO.N,GND*%
X168920000Y-130000000D03*
%TO.P,U3,48,NC_48*%
%TO.N,unconnected-(U3-NC-Pad48)*%
X168920000Y-127460000D03*
%TO.P,U3,49,PA5_49*%
%TO.N,/SCK*%
X171460000Y-130000000D03*
%TO.P,U3,50,PA12_50*%
%TO.N,unconnected-(U3-PA12-Pad50)*%
X171460000Y-127460000D03*
%TO.P,U3,51,PA6_51*%
%TO.N,/MISO*%
X174000000Y-130000000D03*
%TO.P,U3,52,PA11_52*%
%TO.N,unconnected-(U3-PA11-Pad52)*%
X174000000Y-127460000D03*
%TO.P,U3,53,PA7_53*%
%TO.N,/MOSI*%
X176540000Y-130000000D03*
%TO.P,U3,54,PB12_54*%
%TO.N,unconnected-(U3-PB12-Pad54)*%
X176540000Y-127460000D03*
%TO.P,U3,55,PB6_55*%
%TO.N,/CS*%
X179080000Y-130000000D03*
%TO.P,U3,56,NC_56*%
%TO.N,unconnected-(U3-NC-Pad56)*%
X179080000Y-127460000D03*
%TO.P,U3,57,PC7_57*%
%TO.N,unconnected-(U3-PC7-Pad57)*%
X181620000Y-130000000D03*
%TO.P,U3,58,GND_58*%
%TO.N,GND*%
X181620000Y-127460000D03*
%TO.P,U3,59,PA9_59*%
%TO.N,/TX*%
X184160000Y-130000000D03*
%TO.P,U3,60,PB2_60*%
%TO.N,unconnected-(U3-PB2-Pad60)*%
X184160000Y-127460000D03*
%TO.P,U3,61,PA8_61*%
%TO.N,unconnected-(U3-PA8-Pad61)*%
X186700000Y-130000000D03*
%TO.P,U3,62,PB1_62*%
%TO.N,unconnected-(U3-PB1-Pad62)*%
X186700000Y-127460000D03*
%TO.P,U3,63,PB10_63*%
%TO.N,unconnected-(U3-PB10-Pad63)*%
X189240000Y-130000000D03*
%TO.P,U3,64,PB15_64*%
%TO.N,unconnected-(U3-PB15-Pad64)*%
X189240000Y-127460000D03*
%TO.P,U3,65,PB4_65*%
%TO.N,unconnected-(U3-PB4-Pad65)*%
X191780000Y-130000000D03*
%TO.P,U3,66,PB14_66*%
%TO.N,unconnected-(U3-PB14-Pad66)*%
X191780000Y-127460000D03*
%TO.P,U3,67,PB5_67*%
%TO.N,/INT*%
X194320000Y-130000000D03*
%TO.P,U3,68,PB13_68*%
%TO.N,unconnected-(U3-PB13-Pad68)*%
X194320000Y-127460000D03*
%TO.P,U3,69,STLINK_SWO/PB3_69*%
%TO.N,unconnected-(U3-STLINK_SWO{slash}PB3-Pad69)*%
X196860000Y-130000000D03*
%TO.P,U3,70,AGND_70*%
%TO.N,unconnected-(U3-AGND-Pad70)*%
X196860000Y-127460000D03*
%TO.P,U3,71,PA10_71*%
%TO.N,/RX*%
X199400000Y-130000000D03*
%TO.P,U3,72,PC4_72*%
%TO.N,unconnected-(U3-PC4-Pad72)*%
X199400000Y-127460000D03*
%TO.P,U3,73,STLINK_UART_TX/PA2_73*%
%TO.N,/HC_ECHO*%
X110500000Y-69040000D03*
%TO.P,U3,74,NC_74*%
%TO.N,unconnected-(U3-NC-Pad74)*%
X110500000Y-66500000D03*
%TO.P,U3,75,STLINK_UART_RX/PA3_75*%
%TO.N,unconnected-(U3-STLINK_UART_RX{slash}PA3-Pad75)*%
X113040000Y-69040000D03*
%TO.P,U3,76,NC_76*%
%TO.N,unconnected-(U3-NC-Pad76)*%
X113040000Y-66500000D03*
%TO.P,U3,77,GND_77*%
%TO.N,GND*%
X115580000Y-69040000D03*
%TO.P,U3,78,GND_78*%
X115580000Y-66500000D03*
%TO.P,U3,79,GND_79*%
X118120000Y-69040000D03*
%TO.P,U3,80,GND_80*%
X118120000Y-66500000D03*
%TO.P,U3,81*%
%TO.N,N/C*%
X120660000Y-69040000D03*
%TO.P,U3,82*%
X120660000Y-66500000D03*
%TO.P,U3,83*%
X123200000Y-69040000D03*
%TO.P,U3,84*%
X123200000Y-66500000D03*
%TO.P,U3,85*%
X125740000Y-69040000D03*
%TO.P,U3,86*%
X125740000Y-66500000D03*
%TO.P,U3,87*%
X128280000Y-69040000D03*
%TO.P,U3,88*%
X128280000Y-66500000D03*
%TO.P,U3,89*%
X130820000Y-69040000D03*
%TO.P,U3,90*%
X130820000Y-66500000D03*
%TO.P,U3,91*%
X133360000Y-69040000D03*
%TO.P,U3,92*%
X133360000Y-66500000D03*
%TO.P,U3,93*%
X135900000Y-69040000D03*
%TO.P,U3,94*%
X135900000Y-66500000D03*
%TO.P,U3,95*%
X138440000Y-69040000D03*
%TO.P,U3,96*%
X138440000Y-66500000D03*
%TO.P,U3,97*%
X140980000Y-69040000D03*
%TO.P,U3,98*%
X140980000Y-66500000D03*
%TO.P,U3,99*%
X143520000Y-69040000D03*
%TO.P,U3,100*%
X143520000Y-66500000D03*
%TO.P,U3,101*%
X146060000Y-69040000D03*
%TO.P,U3,102*%
X146060000Y-66500000D03*
%TO.P,U3,103*%
X148600000Y-69040000D03*
%TO.P,U3,104*%
X148600000Y-66500000D03*
%TO.P,U3,105*%
X151140000Y-69040000D03*
%TO.P,U3,106*%
X151140000Y-66500000D03*
%TO.P,U3,107*%
X153680000Y-69040000D03*
%TO.P,U3,108*%
X153680000Y-66500000D03*
%TO.P,U3,109*%
X156220000Y-69040000D03*
%TO.P,U3,110*%
X156220000Y-66500000D03*
%TO.P,U3,111*%
X158760000Y-69040000D03*
%TO.P,U3,112*%
X158760000Y-66500000D03*
%TO.P,U3,113*%
X161300000Y-69040000D03*
%TO.P,U3,114*%
X161300000Y-66500000D03*
%TO.P,U3,115*%
X163840000Y-69040000D03*
%TO.P,U3,116*%
X163840000Y-66500000D03*
%TO.P,U3,117*%
X166380000Y-69040000D03*
%TO.P,U3,118*%
X166380000Y-66500000D03*
%TO.P,U3,119*%
X168920000Y-69040000D03*
%TO.P,U3,120*%
X168920000Y-66500000D03*
%TO.P,U3,121*%
X171460000Y-69040000D03*
%TO.P,U3,122*%
X171460000Y-66500000D03*
%TO.P,U3,123*%
X174000000Y-69040000D03*
%TO.P,U3,124*%
X174000000Y-66500000D03*
%TO.P,U3,125*%
X176540000Y-69040000D03*
%TO.P,U3,126*%
X176540000Y-66500000D03*
%TO.P,U3,127*%
X179080000Y-69040000D03*
%TO.P,U3,128*%
X179080000Y-66500000D03*
%TO.P,U3,129*%
X181620000Y-69040000D03*
%TO.P,U3,130*%
X181620000Y-66500000D03*
%TO.P,U3,131*%
X184160000Y-69040000D03*
%TO.P,U3,132*%
X184160000Y-66500000D03*
%TO.P,U3,133*%
X186700000Y-69040000D03*
%TO.P,U3,134*%
X186700000Y-66500000D03*
%TO.P,U3,135*%
X189240000Y-69040000D03*
%TO.P,U3,136*%
X189240000Y-66500000D03*
%TO.P,U3,137*%
X191780000Y-69040000D03*
%TO.P,U3,138*%
X191780000Y-66500000D03*
%TO.P,U3,139*%
X194320000Y-69040000D03*
%TO.P,U3,140*%
X194320000Y-66500000D03*
%TO.P,U3,141*%
X196860000Y-69040000D03*
%TO.P,U3,142*%
X196860000Y-66500000D03*
%TO.P,U3,143*%
X199400000Y-69040000D03*
%TO.P,U3,144*%
X199400000Y-66500000D03*
%TO.P,U3,145*%
X82560000Y-130000000D03*
%TO.P,U3,146*%
X85100000Y-130000000D03*
%TO.P,U3,147*%
X82560000Y-66500000D03*
%TO.P,U3,148*%
X85100000Y-66500000D03*
%TD*%
D12*
%TO.P,U2,1,ADJ_1*%
%TO.N,Net-(U2-ADJ)*%
X140600000Y-50750000D03*
D13*
%TO.P,U2,2,VO_2*%
%TO.N,/3v*%
X143140000Y-50750000D03*
%TO.P,U2,3,VI_3*%
%TO.N,/5v*%
X145680000Y-50750000D03*
%TD*%
D14*
%TO.P,U1,1,VI_1*%
%TO.N,/12v*%
X105880000Y-55290000D03*
D15*
%TO.P,U1,2,GND_2*%
%TO.N,GND*%
X105880000Y-52750000D03*
%TO.P,U1,3,VO_3*%
%TO.N,/5v*%
X105880000Y-50210000D03*
%TD*%
D16*
%TO.P,SW1,1,B_1*%
%TO.N,/PWR_Input*%
X127180000Y-56540000D03*
D17*
%TO.P,SW1,2,C_2*%
%TO.N,unconnected-(SW1-C-Pad2)*%
X127180000Y-59080000D03*
%TO.P,SW1,3,A_3*%
%TO.N,/12v*%
X127180000Y-54000000D03*
%TD*%
%TO.P,R8,1*%
%TO.N,/USER_LED*%
X166020000Y-54750000D03*
%TO.P,R8,2*%
%TO.N,Net-(D4-A)*%
X176180000Y-54750000D03*
%TD*%
%TO.P,R7,1*%
%TO.N,/DHT11_DATA*%
X161520000Y-137250000D03*
%TO.P,R7,2*%
%TO.N,/VCC*%
X171680000Y-137250000D03*
%TD*%
%TO.P,R6,1*%
%TO.N,/SCL*%
X143810000Y-137000000D03*
%TO.P,R6,2*%
%TO.N,/3v*%
X151430000Y-137000000D03*
%TD*%
%TO.P,R5,1*%
%TO.N,/SDA*%
X129560000Y-137250000D03*
%TO.P,R5,2*%
%TO.N,/3v*%
X137180000Y-137250000D03*
%TD*%
%TO.P,R4,1*%
%TO.N,/3v*%
X176090000Y-49000000D03*
%TO.P,R4,2*%
%TO.N,/LED_3v*%
X165930000Y-49000000D03*
%TD*%
%TO.P,R3,1*%
%TO.N,Net-(U2-ADJ)*%
X152680000Y-58660000D03*
%TO.P,R3,2*%
%TO.N,GND*%
X152680000Y-48500000D03*
%TD*%
%TO.P,R2,1*%
%TO.N,/3v*%
X148090000Y-56750000D03*
%TO.P,R2,2*%
%TO.N,Net-(U2-ADJ)*%
X137930000Y-56750000D03*
%TD*%
%TO.P,R1,1*%
%TO.N,/5v*%
X117600000Y-48750000D03*
%TO.P,R1,2*%
%TO.N,/LED_5v*%
X127760000Y-48750000D03*
%TD*%
D18*
%TO.P,J8,1,Pin_1_1*%
%TO.N,Net-(J8-Pin_1)*%
X122680000Y-143000000D03*
%TD*%
D19*
%TO.P,J7(MPU6050)1,1,Pin_1_1*%
%TO.N,/VCC*%
X190680000Y-50750000D03*
D20*
%TO.P,J7(MPU6050)1,2,Pin_2_2*%
%TO.N,GND*%
X193220000Y-50750000D03*
%TO.P,J7(MPU6050)1,3,Pin_3_3*%
%TO.N,/SDA*%
X195760000Y-50750000D03*
%TO.P,J7(MPU6050)1,4,Pin_4_4*%
%TO.N,/SCL*%
X198300000Y-50750000D03*
%TO.P,J7(MPU6050)1,5,Pin_5_5*%
%TO.N,/XDA*%
X200840000Y-50750000D03*
%TO.P,J7(MPU6050)1,6,Pin_6_6*%
%TO.N,/XCL*%
X203380000Y-50750000D03*
%TO.P,J7(MPU6050)1,7,Pin_7_7*%
%TO.N,/ADO*%
X205920000Y-50750000D03*
%TO.P,J7(MPU6050)1,8,Pin_8_8*%
%TO.N,/INT*%
X208460000Y-50750000D03*
%TD*%
D18*
%TO.P,J6(HCSR-04)1,1,Pin_1_1*%
%TO.N,/VCC*%
X197600000Y-141500000D03*
D11*
%TO.P,J6(HCSR-04)1,2,Pin_2_2*%
%TO.N,/HC-TRIG*%
X200140000Y-141500000D03*
%TO.P,J6(HCSR-04)1,3,Pin_3_3*%
%TO.N,/HC_ECHO*%
X202680000Y-141500000D03*
%TO.P,J6(HCSR-04)1,4,Pin_4_4*%
%TO.N,GND*%
X205220000Y-141500000D03*
%TD*%
D18*
%TO.P,J5(DHT11)1,1,Pin_1_1*%
%TO.N,/VCC*%
X189680000Y-141750000D03*
D11*
%TO.P,J5(DHT11)1,2,Pin_2_2*%
%TO.N,/DHT11_DATA*%
X187140000Y-141750000D03*
%TO.P,J5(DHT11)1,3,Pin_3_3*%
%TO.N,/NC*%
X184600000Y-141750000D03*
%TO.P,J5(DHT11)1,4,Pin_4_4*%
%TO.N,GND*%
X182060000Y-141750000D03*
%TD*%
D18*
%TO.P,J4(SPI)1,1,Pin_1_1*%
%TO.N,GND*%
X174430000Y-141750000D03*
D11*
%TO.P,J4(SPI)1,2,Pin_2_2*%
%TO.N,/3v*%
X171890000Y-141750000D03*
%TO.P,J4(SPI)1,3,Pin_3_3*%
%TO.N,/MOSI*%
X169350000Y-141750000D03*
%TO.P,J4(SPI)1,4,Pin_4_4*%
%TO.N,/MISO*%
X166810000Y-141750000D03*
%TO.P,J4(SPI)1,5,Pin_5_5*%
%TO.N,/SCK*%
X164270000Y-141750000D03*
%TO.P,J4(SPI)1,6,Pin_6_6*%
%TO.N,/CS*%
X161730000Y-141750000D03*
%TD*%
D18*
%TO.P,J3(UART)1,1,Pin_1_1*%
%TO.N,GND*%
X145060000Y-142000000D03*
D11*
%TO.P,J3(UART)1,2,Pin_2_2*%
%TO.N,/3v*%
X147600000Y-142000000D03*
%TO.P,J3(UART)1,3,Pin_3_3*%
%TO.N,/TX*%
X150140000Y-142000000D03*
%TO.P,J3(UART)1,4,Pin_4_4*%
%TO.N,/RX*%
X152680000Y-142000000D03*
%TD*%
D18*
%TO.P,J2(I2C)1,1,Pin_1_1*%
%TO.N,GND*%
X130060000Y-142250000D03*
D11*
%TO.P,J2(I2C)1,2,Pin_2_2*%
%TO.N,/3v*%
X132600000Y-142250000D03*
%TO.P,J2(I2C)1,3,Pin_3_3*%
%TO.N,/SDA*%
X135140000Y-142250000D03*
%TO.P,J2(I2C)1,4,Pin_4_4*%
%TO.N,/SCL*%
X137680000Y-142250000D03*
%TD*%
D21*
%TO.P,J1,1*%
%TO.N,Net-(D1-A)*%
X92630000Y-53250000D03*
D22*
%TO.P,J1,2*%
%TO.N,GND*%
X86630000Y-53250000D03*
%TO.P,J1,3*%
X89630000Y-57950000D03*
%TD*%
D23*
%TO.P,D4,1,K_1*%
%TO.N,GND*%
X181890000Y-51250000D03*
D24*
%TO.P,D4,2,A_2*%
%TO.N,Net-(D4-A)*%
X184430000Y-51250000D03*
%TD*%
D23*
%TO.P,D3,1,K_1*%
%TO.N,GND*%
X159390000Y-56250000D03*
D24*
%TO.P,D3,2,A_2*%
%TO.N,/LED_3v*%
X161930000Y-56250000D03*
%TD*%
D23*
%TO.P,D2,1,K_1*%
%TO.N,GND*%
X119140000Y-56750000D03*
D24*
%TO.P,D2,2,A_2*%
%TO.N,/LED_5v*%
X121680000Y-56750000D03*
%TD*%
D25*
%TO.P,D1,1,K_1*%
%TO.N,/PWR_Input*%
X98430000Y-58000000D03*
D26*
%TO.P,D1,2,A_2*%
%TO.N,Net-(D1-A)*%
X98430000Y-47840000D03*
%TD*%
D17*
%TO.P,C3,1*%
%TO.N,/3v*%
X158930000Y-48750000D03*
%TO.P,C3,2*%
%TO.N,GND*%
X161430000Y-48750000D03*
%TD*%
%TO.P,C2,1*%
%TO.N,/5v*%
X112180000Y-55000000D03*
%TO.P,C2,2*%
%TO.N,GND*%
X112180000Y-57500000D03*
%TD*%
%TO.P,C1,1*%
%TO.N,/12v*%
X111930000Y-48750000D03*
%TO.P,C1,2*%
%TO.N,GND*%
X111930000Y-51250000D03*
%TD*%
D27*
%TO.N,/INT*%
X195800000Y-124200000D03*
X206600000Y-102000000D03*
%TO.N,/SCL*%
X198400000Y-58600000D03*
%TO.N,/SDA*%
X135800000Y-144000000D03*
X195900000Y-58300000D03*
%TO.N,/VCC*%
X206100000Y-137800000D03*
%TO.N,/USER_LED*%
X164200000Y-78200000D03*
%TO.N,/HC-TRIG*%
X200400000Y-137400000D03*
%TO.N,/VCC*%
X175300000Y-136900000D03*
X188700000Y-139200000D03*
%TO.N,/SCK*%
X165000000Y-139750000D03*
%TO.N,/MOSI*%
X169500000Y-139750000D03*
%TO.N,/MISO*%
X166750000Y-139500000D03*
%TO.N,/RX*%
X156000000Y-142000000D03*
%TO.N,/SCL*%
X141750000Y-137000000D03*
X141250000Y-142250000D03*
%TO.N,/USER_BTN*%
X109750000Y-138500000D03*
%TD*%
%TO.N,/5v*%
D28*
X144380000Y-49450000D02*
X145680000Y-50750000D01*
X139347500Y-49450000D02*
X144380000Y-49450000D01*
X133697500Y-55100000D02*
X139347500Y-49450000D01*
X125027057Y-55100000D02*
X133697500Y-55100000D01*
X122177057Y-57950000D02*
X125027057Y-55100000D01*
X121182943Y-57950000D02*
X122177057Y-57950000D01*
X120480000Y-57247057D02*
X121182943Y-57950000D01*
X120480000Y-51630000D02*
X120480000Y-57247057D01*
X117600000Y-48750000D02*
X120480000Y-51630000D01*
%TO.N,/SDA*%
X131310000Y-139000000D02*
X129560000Y-137250000D01*
X131310000Y-143500000D02*
X131310000Y-139000000D01*
X131810000Y-144000000D02*
X131310000Y-143500000D01*
X135800000Y-144000000D02*
X131810000Y-144000000D01*
%TO.N,/INT*%
X195710000Y-128610000D02*
X194320000Y-130000000D01*
X195800000Y-124200000D02*
X195710000Y-124290000D01*
X195710000Y-124290000D02*
X195710000Y-128610000D01*
X206600000Y-52610000D02*
X206600000Y-102000000D01*
X208460000Y-50750000D02*
X206600000Y-52610000D01*
%TO.N,/SCL*%
X198300000Y-58500000D02*
X198400000Y-58600000D01*
X198300000Y-50750000D02*
X198300000Y-58500000D01*
%TO.N,/SDA*%
X195900000Y-50890000D02*
X195900000Y-58300000D01*
X195760000Y-50750000D02*
X195900000Y-50890000D01*
%TO.N,/VCC*%
X185550000Y-92550000D02*
X205900000Y-112900000D01*
X205900000Y-137600000D02*
X206100000Y-137800000D01*
X185550000Y-55880000D02*
X185550000Y-92550000D01*
X190680000Y-50750000D02*
X185550000Y-55880000D01*
X205900000Y-112900000D02*
X205900000Y-137600000D01*
%TO.N,/3v*%
X148990000Y-142476346D02*
X148990000Y-139440000D01*
X150313654Y-143800000D02*
X148990000Y-142476346D01*
X202006346Y-143800000D02*
X150313654Y-143800000D01*
X203830000Y-141976346D02*
X202006346Y-143800000D01*
X203830000Y-117490000D02*
X203830000Y-141976346D01*
X170070000Y-83730000D02*
X203830000Y-117490000D01*
X170070000Y-55020000D02*
X170070000Y-83730000D01*
X176090000Y-49000000D02*
X170070000Y-55020000D01*
X148990000Y-139440000D02*
X151430000Y-137000000D01*
X174640000Y-47550000D02*
X160130000Y-47550000D01*
X160130000Y-47550000D02*
X158930000Y-48750000D01*
X176090000Y-49000000D02*
X174640000Y-47550000D01*
%TO.N,Net-(D4-A)*%
X180930000Y-54750000D02*
X184430000Y-51250000D01*
X176180000Y-54750000D02*
X180930000Y-54750000D01*
%TO.N,/USER_LED*%
X167770000Y-74630000D02*
X164200000Y-78200000D01*
X167770000Y-56500000D02*
X167770000Y-74630000D01*
X166020000Y-54750000D02*
X167770000Y-56500000D01*
%TO.N,/LED_3v*%
X161930000Y-53000000D02*
X165930000Y-49000000D01*
X161930000Y-56250000D02*
X161930000Y-53000000D01*
%TO.N,/3v*%
X153135635Y-59760000D02*
X158930000Y-53965635D01*
X151100000Y-59760000D02*
X153135635Y-59760000D01*
X158930000Y-53965635D02*
X158930000Y-48750000D01*
X148090000Y-56750000D02*
X151100000Y-59760000D01*
X153780000Y-58204365D02*
X147775635Y-52200000D01*
X153780000Y-59115635D02*
X153780000Y-58204365D01*
X153135635Y-59760000D02*
X153780000Y-59115635D01*
X147775635Y-52200000D02*
X144590000Y-52200000D01*
X144590000Y-52200000D02*
X143140000Y-50750000D01*
%TO.N,Net-(U2-ADJ)*%
X145500000Y-55650000D02*
X140600000Y-50750000D01*
X149670000Y-55650000D02*
X145500000Y-55650000D01*
X152680000Y-58660000D02*
X149670000Y-55650000D01*
X137930000Y-53420000D02*
X140600000Y-50750000D01*
X137930000Y-56750000D02*
X137930000Y-53420000D01*
%TO.N,/12v*%
X113030000Y-47650000D02*
X111930000Y-48750000D01*
X128860000Y-52320000D02*
X128860000Y-48294365D01*
X128860000Y-48294365D02*
X128215635Y-47650000D01*
X127180000Y-54000000D02*
X128860000Y-52320000D01*
X128215635Y-47650000D02*
X113030000Y-47650000D01*
%TO.N,/LED_5v*%
X121680000Y-54830000D02*
X127760000Y-48750000D01*
X121680000Y-56750000D02*
X121680000Y-54830000D01*
%TO.N,/5v*%
X112180000Y-54170000D02*
X112180000Y-55000000D01*
X117600000Y-48750000D02*
X112180000Y-54170000D01*
X110637500Y-56542500D02*
X112180000Y-55000000D01*
X104580000Y-56542500D02*
X110637500Y-56542500D01*
X104480000Y-56442500D02*
X104580000Y-56542500D01*
X104480000Y-51610000D02*
X104480000Y-56442500D01*
X105880000Y-50210000D02*
X104480000Y-51610000D01*
%TO.N,/12v*%
X105880000Y-54800000D02*
X111930000Y-48750000D01*
X105880000Y-55290000D02*
X105880000Y-54800000D01*
%TO.N,/PWR_Input*%
X125020000Y-58700000D02*
X127180000Y-56540000D01*
X99130000Y-58700000D02*
X125020000Y-58700000D01*
X98430000Y-58000000D02*
X99130000Y-58700000D01*
%TO.N,Net-(D1-A)*%
X93020000Y-53250000D02*
X98430000Y-47840000D01*
X92630000Y-53250000D02*
X93020000Y-53250000D01*
%TO.N,/HC_ECHO*%
X110600000Y-75500000D02*
X110500000Y-75400000D01*
X110500000Y-75400000D02*
X110500000Y-69040000D01*
X149800000Y-75900000D02*
X110600000Y-75900000D01*
X202680000Y-128780000D02*
X149800000Y-75900000D01*
X110600000Y-75900000D02*
X110600000Y-75500000D01*
X202680000Y-141500000D02*
X202680000Y-128780000D01*
%TO.N,/HC-TRIG*%
X200140000Y-137660000D02*
X200400000Y-137400000D01*
X200140000Y-141500000D02*
X200140000Y-137660000D01*
%TO.N,/DHT11_DATA*%
X144810000Y-128750000D02*
X143520000Y-127460000D01*
X184536346Y-128750000D02*
X144810000Y-128750000D01*
X185310000Y-139920000D02*
X185310000Y-129523654D01*
X185310000Y-129523654D02*
X184536346Y-128750000D01*
X187140000Y-141750000D02*
X185310000Y-139920000D01*
%TO.N,/VCC*%
X197350000Y-141750000D02*
X197600000Y-141500000D01*
X189680000Y-141750000D02*
X197350000Y-141750000D01*
X189680000Y-140180000D02*
X189680000Y-141750000D01*
X188700000Y-139200000D02*
X189680000Y-140180000D01*
X174950000Y-137250000D02*
X175300000Y-136900000D01*
X171680000Y-137250000D02*
X174950000Y-137250000D01*
%TO.N,/DHT11_DATA*%
X164990000Y-133780000D02*
X164990000Y-129523654D01*
X164990000Y-129523654D02*
X164216346Y-128750000D01*
X164216346Y-128750000D02*
X144810000Y-128750000D01*
X161520000Y-137250000D02*
X164990000Y-133780000D01*
%TO.N,/SCK*%
X164270000Y-140480000D02*
X165000000Y-139750000D01*
X164270000Y-141750000D02*
X164270000Y-140480000D01*
%TO.N,/MOSI*%
X169350000Y-139900000D02*
X169500000Y-139750000D01*
X169350000Y-141750000D02*
X169350000Y-139900000D01*
%TO.N,/MISO*%
X166810000Y-139560000D02*
X166750000Y-139500000D01*
X166810000Y-141750000D02*
X166810000Y-139560000D01*
%TO.N,/CS*%
X167330000Y-136150000D02*
X172930000Y-136150000D01*
X161730000Y-141750000D02*
X167330000Y-136150000D01*
X172930000Y-136150000D02*
X179080000Y-130000000D01*
%TO.N,/RX*%
X152680000Y-142000000D02*
X156000000Y-142000000D01*
%TO.N,/TX*%
X184160000Y-134520000D02*
X184160000Y-130000000D01*
X151540000Y-143400000D02*
X175280000Y-143400000D01*
X175280000Y-143400000D02*
X184160000Y-134520000D01*
X150140000Y-142000000D02*
X151540000Y-143400000D01*
%TO.N,/SCL*%
X143810000Y-137000000D02*
X141750000Y-137000000D01*
X137680000Y-142250000D02*
X141250000Y-142250000D01*
%TO.N,/SDA*%
X162690000Y-131150000D02*
X163840000Y-130000000D01*
X141724365Y-131150000D02*
X162690000Y-131150000D01*
X135140000Y-137734365D02*
X141724365Y-131150000D01*
X135140000Y-142250000D02*
X135140000Y-137734365D01*
%TO.N,/3v*%
X136380001Y-138049999D02*
X137180000Y-137250000D01*
X136380001Y-142876345D02*
X136380001Y-138049999D01*
X135856346Y-143400000D02*
X136380001Y-142876345D01*
X133750000Y-143400000D02*
X135856346Y-143400000D01*
X132600000Y-142250000D02*
X133750000Y-143400000D01*
X151430000Y-138170000D02*
X151430000Y-137000000D01*
X147600000Y-142000000D02*
X151430000Y-138170000D01*
X161353654Y-143000000D02*
X170640000Y-143000000D01*
X159103654Y-140750000D02*
X161353654Y-143000000D01*
X170640000Y-143000000D02*
X171890000Y-141750000D01*
X140680000Y-140750000D02*
X159103654Y-140750000D01*
X137180000Y-137250000D02*
X140680000Y-140750000D01*
%TO.N,/SDA*%
X134560000Y-142250000D02*
X135140000Y-142250000D01*
X129560000Y-137250000D02*
X134560000Y-142250000D01*
%TO.N,Net-(J8-Pin_1)*%
X118680000Y-143000000D02*
X112180000Y-143000000D01*
X118680000Y-143000000D02*
X122680000Y-143000000D01*
%TO.N,/USER_BTN*%
X112180000Y-138500000D02*
X109750000Y-138500000D01*
X118680000Y-138500000D02*
X112180000Y-138500000D01*
%TO.N,/NRST*%
X107025000Y-138275000D02*
X100525000Y-138275000D01*
X117626346Y-137200000D02*
X124500000Y-130326346D01*
X108100000Y-137200000D02*
X117626346Y-137200000D01*
X124500000Y-130326346D02*
X124500000Y-128700000D01*
X107025000Y-138275000D02*
X108100000Y-137200000D01*
X124500000Y-128700000D02*
X125740000Y-127460000D01*
%TD*%
M02*
