M48
; DRILL file KiCad 10.0.3 date 2026-06-14T13:54:00
; FORMAT={-:-/ absolute / metric / decimal}
; #@! TF.CreationDate,2026-06-14T13:54:00+05:30
; #@! TF.GenerationSoftware,Kicad,Pcbnew,10.0.3
; #@! TF.FileFunction,Plated,1,2,PTH
FMAT,2
METRIC
; #@! TA.AperFunction,Plated,PTH,ViaDrill
T1C0.300
; #@! TA.AperFunction,Plated,PTH,ComponentDrill
T2C0.800
; #@! TA.AperFunction,Plated,PTH,ComponentDrill
T3C0.900
; #@! TA.AperFunction,Plated,PTH,ComponentDrill
T4C1.000
; #@! TA.AperFunction,Plated,PTH,ComponentDrill
T5C1.090
; #@! TA.AperFunction,Plated,PTH,ComponentDrill
T6C1.100
; #@! TA.AperFunction,Plated,PTH,ComponentDrill
T7C1.600
%
G90
G05
T1
X109.75Y-138.5
X135.8Y-144.0
X141.25Y-142.25
X141.75Y-137.0
X156.0Y-142.0
X164.2Y-78.2
X165.0Y-139.75
X166.75Y-139.5
X169.5Y-139.75
X175.3Y-136.9
X188.7Y-139.2
X195.8Y-124.2
X195.9Y-58.3
X198.4Y-58.6
X200.4Y-137.4
X206.1Y-137.8
X206.6Y-102.0
T2
X111.93Y-48.75
X111.93Y-51.25
X112.18Y-55.0
X112.18Y-57.5
X117.6Y-48.75
X127.18Y-54.0
X127.18Y-56.54
X127.18Y-59.08
X127.76Y-48.75
X129.56Y-137.25
X137.18Y-137.25
X137.93Y-56.75
X143.81Y-137.0
X148.09Y-56.75
X151.43Y-137.0
X152.68Y-48.5
X152.68Y-58.66
X158.93Y-48.75
X161.43Y-48.75
X161.52Y-137.25
X165.93Y-49.0
X166.02Y-54.75
X171.68Y-137.25
X176.09Y-49.0
X176.18Y-54.75
T3
X119.14Y-56.75
X121.68Y-56.75
X159.39Y-56.25
X161.93Y-56.25
X181.89Y-51.25
X184.43Y-51.25
T4
X82.56Y-66.5
X82.56Y-130.0
X85.1Y-66.5
X85.1Y-130.0
X110.5Y-66.5
X110.5Y-69.04
X110.5Y-127.46
X110.5Y-130.0
X113.04Y-66.5
X113.04Y-69.04
X113.04Y-127.46
X113.04Y-130.0
X115.58Y-66.5
X115.58Y-69.04
X115.58Y-127.46
X115.58Y-130.0
X118.12Y-66.5
X118.12Y-69.04
X118.12Y-127.46
X118.12Y-130.0
X120.66Y-66.5
X120.66Y-69.04
X120.66Y-127.46
X120.66Y-130.0
X122.68Y-143.0
X123.2Y-66.5
X123.2Y-69.04
X123.2Y-127.46
X123.2Y-130.0
X125.74Y-66.5
X125.74Y-69.04
X125.74Y-127.46
X125.74Y-130.0
X128.28Y-66.5
X128.28Y-69.04
X128.28Y-127.46
X128.28Y-130.0
X130.06Y-142.25
X130.82Y-66.5
X130.82Y-69.04
X130.82Y-127.46
X130.82Y-130.0
X132.6Y-142.25
X133.36Y-66.5
X133.36Y-69.04
X133.36Y-127.46
X133.36Y-130.0
X135.14Y-142.25
X135.9Y-66.5
X135.9Y-69.04
X135.9Y-127.46
X135.9Y-130.0
X137.68Y-142.25
X138.44Y-66.5
X138.44Y-69.04
X138.44Y-127.46
X138.44Y-130.0
X140.98Y-66.5
X140.98Y-69.04
X140.98Y-127.46
X140.98Y-130.0
X143.52Y-66.5
X143.52Y-69.04
X143.52Y-127.46
X143.52Y-130.0
X145.06Y-142.0
X146.06Y-66.5
X146.06Y-69.04
X146.06Y-127.46
X146.06Y-130.0
X147.6Y-142.0
X148.6Y-66.5
X148.6Y-69.04
X148.6Y-127.46
X148.6Y-130.0
X150.14Y-142.0
X151.14Y-66.5
X151.14Y-69.04
X151.14Y-127.46
X151.14Y-130.0
X152.68Y-142.0
X153.68Y-66.5
X153.68Y-69.04
X153.68Y-127.46
X153.68Y-130.0
X156.22Y-66.5
X156.22Y-69.04
X156.22Y-127.46
X156.22Y-130.0
X158.76Y-66.5
X158.76Y-69.04
X158.76Y-127.46
X158.76Y-130.0
X161.3Y-66.5
X161.3Y-69.04
X161.3Y-127.46
X161.3Y-130.0
X161.73Y-141.75
X163.84Y-66.5
X163.84Y-69.04
X163.84Y-127.46
X163.84Y-130.0
X164.27Y-141.75
X166.38Y-66.5
X166.38Y-69.04
X166.38Y-127.46
X166.38Y-130.0
X166.81Y-141.75
X168.92Y-66.5
X168.92Y-69.04
X168.92Y-127.46
X168.92Y-130.0
X169.35Y-141.75
X171.46Y-66.5
X171.46Y-69.04
X171.46Y-127.46
X171.46Y-130.0
X171.89Y-141.75
X174.0Y-66.5
X174.0Y-69.04
X174.0Y-127.46
X174.0Y-130.0
X174.43Y-141.75
X176.54Y-66.5
X176.54Y-69.04
X176.54Y-127.46
X176.54Y-130.0
X179.08Y-66.5
X179.08Y-69.04
X179.08Y-127.46
X179.08Y-130.0
X181.62Y-66.5
X181.62Y-69.04
X181.62Y-127.46
X181.62Y-130.0
X182.06Y-141.75
X184.16Y-66.5
X184.16Y-69.04
X184.16Y-127.46
X184.16Y-130.0
X184.6Y-141.75
X186.7Y-66.5
X186.7Y-69.04
X186.7Y-127.46
X186.7Y-130.0
X187.14Y-141.75
X189.24Y-66.5
X189.24Y-69.04
X189.24Y-127.46
X189.24Y-130.0
X189.68Y-141.75
X191.78Y-66.5
X191.78Y-69.04
X191.78Y-127.46
X191.78Y-130.0
X194.32Y-66.5
X194.32Y-69.04
X194.32Y-127.46
X194.32Y-130.0
X196.86Y-66.5
X196.86Y-69.04
X196.86Y-127.46
X196.86Y-130.0
X197.6Y-141.5
X199.4Y-66.5
X199.4Y-69.04
X199.4Y-127.46
X199.4Y-130.0
X200.14Y-141.5
X202.68Y-141.5
X205.22Y-141.5
T5
X190.68Y-50.75
X193.22Y-50.75
X195.76Y-50.75
X198.3Y-50.75
X200.84Y-50.75
X203.38Y-50.75
X205.92Y-50.75
X208.46Y-50.75
T6
X98.43Y-47.84
X98.43Y-58.0
X100.525Y-138.275
X100.525Y-142.775
X105.88Y-50.21
X105.88Y-52.75
X105.88Y-55.29
X107.025Y-138.275
X107.025Y-142.775
X112.18Y-138.5
X112.18Y-143.0
X118.68Y-138.5
X118.68Y-143.0
X140.6Y-50.75
X143.14Y-50.75
X145.68Y-50.75
T7
X86.63Y-53.25
X89.63Y-57.95
X92.63Y-53.25
M30
