%TF.GenerationSoftware,KiCad,Pcbnew,10.0.3*%
%TF.CreationDate,2026-06-14T13:53:10+05:30*%
%TF.ProjectId,STM32_Sensor_Expansion_Board,53544d33-325f-4536-956e-736f725f4578,rev?*%
%TF.SameCoordinates,Original*%
%TF.FileFunction,Legend,Top*%
%TF.FilePolarity,Positive*%
%FSLAX46Y46*%
G04 Gerber Fmt 4.6, Leading zero omitted, Abs format (unit mm)*
G04 Created by KiCad (PCBNEW 10.0.3) date 2026-06-14 13:53:10*
%MOMM*%
%LPD*%
G01*
G04 APERTURE LIST*
%ADD10C,0.100000*%
%ADD11C,0.150000*%
%ADD12C,0.120000*%
G04 APERTURE END LIST*
D10*
X199503884Y-145172419D02*
X199503884Y-144172419D01*
X199503884Y-144648609D02*
X200075312Y-144648609D01*
X200075312Y-145172419D02*
X200075312Y-144172419D01*
X201122931Y-145077180D02*
X201075312Y-145124800D01*
X201075312Y-145124800D02*
X200932455Y-145172419D01*
X200932455Y-145172419D02*
X200837217Y-145172419D01*
X200837217Y-145172419D02*
X200694360Y-145124800D01*
X200694360Y-145124800D02*
X200599122Y-145029561D01*
X200599122Y-145029561D02*
X200551503Y-144934323D01*
X200551503Y-144934323D02*
X200503884Y-144743847D01*
X200503884Y-144743847D02*
X200503884Y-144600990D01*
X200503884Y-144600990D02*
X200551503Y-144410514D01*
X200551503Y-144410514D02*
X200599122Y-144315276D01*
X200599122Y-144315276D02*
X200694360Y-144220038D01*
X200694360Y-144220038D02*
X200837217Y-144172419D01*
X200837217Y-144172419D02*
X200932455Y-144172419D01*
X200932455Y-144172419D02*
X201075312Y-144220038D01*
X201075312Y-144220038D02*
X201122931Y-144267657D01*
X201503884Y-145124800D02*
X201646741Y-145172419D01*
X201646741Y-145172419D02*
X201884836Y-145172419D01*
X201884836Y-145172419D02*
X201980074Y-145124800D01*
X201980074Y-145124800D02*
X202027693Y-145077180D01*
X202027693Y-145077180D02*
X202075312Y-144981942D01*
X202075312Y-144981942D02*
X202075312Y-144886704D01*
X202075312Y-144886704D02*
X202027693Y-144791466D01*
X202027693Y-144791466D02*
X201980074Y-144743847D01*
X201980074Y-144743847D02*
X201884836Y-144696228D01*
X201884836Y-144696228D02*
X201694360Y-144648609D01*
X201694360Y-144648609D02*
X201599122Y-144600990D01*
X201599122Y-144600990D02*
X201551503Y-144553371D01*
X201551503Y-144553371D02*
X201503884Y-144458133D01*
X201503884Y-144458133D02*
X201503884Y-144362895D01*
X201503884Y-144362895D02*
X201551503Y-144267657D01*
X201551503Y-144267657D02*
X201599122Y-144220038D01*
X201599122Y-144220038D02*
X201694360Y-144172419D01*
X201694360Y-144172419D02*
X201932455Y-144172419D01*
X201932455Y-144172419D02*
X202075312Y-144220038D01*
X203075312Y-145172419D02*
X202741979Y-144696228D01*
X202503884Y-145172419D02*
X202503884Y-144172419D01*
X202503884Y-144172419D02*
X202884836Y-144172419D01*
X202884836Y-144172419D02*
X202980074Y-144220038D01*
X202980074Y-144220038D02*
X203027693Y-144267657D01*
X203027693Y-144267657D02*
X203075312Y-144362895D01*
X203075312Y-144362895D02*
X203075312Y-144505752D01*
X203075312Y-144505752D02*
X203027693Y-144600990D01*
X203027693Y-144600990D02*
X202980074Y-144648609D01*
X202980074Y-144648609D02*
X202884836Y-144696228D01*
X202884836Y-144696228D02*
X202503884Y-144696228D01*
X203694360Y-144172419D02*
X203789598Y-144172419D01*
X203789598Y-144172419D02*
X203884836Y-144220038D01*
X203884836Y-144220038D02*
X203932455Y-144267657D01*
X203932455Y-144267657D02*
X203980074Y-144362895D01*
X203980074Y-144362895D02*
X204027693Y-144553371D01*
X204027693Y-144553371D02*
X204027693Y-144791466D01*
X204027693Y-144791466D02*
X203980074Y-144981942D01*
X203980074Y-144981942D02*
X203932455Y-145077180D01*
X203932455Y-145077180D02*
X203884836Y-145124800D01*
X203884836Y-145124800D02*
X203789598Y-145172419D01*
X203789598Y-145172419D02*
X203694360Y-145172419D01*
X203694360Y-145172419D02*
X203599122Y-145124800D01*
X203599122Y-145124800D02*
X203551503Y-145077180D01*
X203551503Y-145077180D02*
X203503884Y-144981942D01*
X203503884Y-144981942D02*
X203456265Y-144791466D01*
X203456265Y-144791466D02*
X203456265Y-144553371D01*
X203456265Y-144553371D02*
X203503884Y-144362895D01*
X203503884Y-144362895D02*
X203551503Y-144267657D01*
X203551503Y-144267657D02*
X203599122Y-144220038D01*
X203599122Y-144220038D02*
X203694360Y-144172419D01*
X204884836Y-144505752D02*
X204884836Y-145172419D01*
X204646741Y-144124800D02*
X204408646Y-144839085D01*
X204408646Y-144839085D02*
X205027693Y-144839085D01*
X184203884Y-145272419D02*
X184203884Y-144272419D01*
X184203884Y-144272419D02*
X184441979Y-144272419D01*
X184441979Y-144272419D02*
X184584836Y-144320038D01*
X184584836Y-144320038D02*
X184680074Y-144415276D01*
X184680074Y-144415276D02*
X184727693Y-144510514D01*
X184727693Y-144510514D02*
X184775312Y-144700990D01*
X184775312Y-144700990D02*
X184775312Y-144843847D01*
X184775312Y-144843847D02*
X184727693Y-145034323D01*
X184727693Y-145034323D02*
X184680074Y-145129561D01*
X184680074Y-145129561D02*
X184584836Y-145224800D01*
X184584836Y-145224800D02*
X184441979Y-145272419D01*
X184441979Y-145272419D02*
X184203884Y-145272419D01*
X185203884Y-145272419D02*
X185203884Y-144272419D01*
X185203884Y-144748609D02*
X185775312Y-144748609D01*
X185775312Y-145272419D02*
X185775312Y-144272419D01*
X186108646Y-144272419D02*
X186680074Y-144272419D01*
X186394360Y-145272419D02*
X186394360Y-144272419D01*
X187537217Y-145272419D02*
X186965789Y-145272419D01*
X187251503Y-145272419D02*
X187251503Y-144272419D01*
X187251503Y-144272419D02*
X187156265Y-144415276D01*
X187156265Y-144415276D02*
X187061027Y-144510514D01*
X187061027Y-144510514D02*
X186965789Y-144558133D01*
X188489598Y-145272419D02*
X187918170Y-145272419D01*
X188203884Y-145272419D02*
X188203884Y-144272419D01*
X188203884Y-144272419D02*
X188108646Y-144415276D01*
X188108646Y-144415276D02*
X188013408Y-144510514D01*
X188013408Y-144510514D02*
X187918170Y-144558133D01*
X168156265Y-145224800D02*
X168299122Y-145272419D01*
X168299122Y-145272419D02*
X168537217Y-145272419D01*
X168537217Y-145272419D02*
X168632455Y-145224800D01*
X168632455Y-145224800D02*
X168680074Y-145177180D01*
X168680074Y-145177180D02*
X168727693Y-145081942D01*
X168727693Y-145081942D02*
X168727693Y-144986704D01*
X168727693Y-144986704D02*
X168680074Y-144891466D01*
X168680074Y-144891466D02*
X168632455Y-144843847D01*
X168632455Y-144843847D02*
X168537217Y-144796228D01*
X168537217Y-144796228D02*
X168346741Y-144748609D01*
X168346741Y-144748609D02*
X168251503Y-144700990D01*
X168251503Y-144700990D02*
X168203884Y-144653371D01*
X168203884Y-144653371D02*
X168156265Y-144558133D01*
X168156265Y-144558133D02*
X168156265Y-144462895D01*
X168156265Y-144462895D02*
X168203884Y-144367657D01*
X168203884Y-144367657D02*
X168251503Y-144320038D01*
X168251503Y-144320038D02*
X168346741Y-144272419D01*
X168346741Y-144272419D02*
X168584836Y-144272419D01*
X168584836Y-144272419D02*
X168727693Y-144320038D01*
X169156265Y-145272419D02*
X169156265Y-144272419D01*
X169156265Y-144272419D02*
X169537217Y-144272419D01*
X169537217Y-144272419D02*
X169632455Y-144320038D01*
X169632455Y-144320038D02*
X169680074Y-144367657D01*
X169680074Y-144367657D02*
X169727693Y-144462895D01*
X169727693Y-144462895D02*
X169727693Y-144605752D01*
X169727693Y-144605752D02*
X169680074Y-144700990D01*
X169680074Y-144700990D02*
X169632455Y-144748609D01*
X169632455Y-144748609D02*
X169537217Y-144796228D01*
X169537217Y-144796228D02*
X169156265Y-144796228D01*
X170156265Y-145272419D02*
X170156265Y-144272419D01*
X147703884Y-143772419D02*
X147703884Y-144581942D01*
X147703884Y-144581942D02*
X147751503Y-144677180D01*
X147751503Y-144677180D02*
X147799122Y-144724800D01*
X147799122Y-144724800D02*
X147894360Y-144772419D01*
X147894360Y-144772419D02*
X148084836Y-144772419D01*
X148084836Y-144772419D02*
X148180074Y-144724800D01*
X148180074Y-144724800D02*
X148227693Y-144677180D01*
X148227693Y-144677180D02*
X148275312Y-144581942D01*
X148275312Y-144581942D02*
X148275312Y-143772419D01*
X148703884Y-144486704D02*
X149180074Y-144486704D01*
X148608646Y-144772419D02*
X148941979Y-143772419D01*
X148941979Y-143772419D02*
X149275312Y-144772419D01*
X150180074Y-144772419D02*
X149846741Y-144296228D01*
X149608646Y-144772419D02*
X149608646Y-143772419D01*
X149608646Y-143772419D02*
X149989598Y-143772419D01*
X149989598Y-143772419D02*
X150084836Y-143820038D01*
X150084836Y-143820038D02*
X150132455Y-143867657D01*
X150132455Y-143867657D02*
X150180074Y-143962895D01*
X150180074Y-143962895D02*
X150180074Y-144105752D01*
X150180074Y-144105752D02*
X150132455Y-144200990D01*
X150132455Y-144200990D02*
X150084836Y-144248609D01*
X150084836Y-144248609D02*
X149989598Y-144296228D01*
X149989598Y-144296228D02*
X149608646Y-144296228D01*
X150465789Y-143772419D02*
X151037217Y-143772419D01*
X150751503Y-144772419D02*
X150751503Y-143772419D01*
X132703884Y-145272419D02*
X132703884Y-144272419D01*
X133132455Y-144367657D02*
X133180074Y-144320038D01*
X133180074Y-144320038D02*
X133275312Y-144272419D01*
X133275312Y-144272419D02*
X133513407Y-144272419D01*
X133513407Y-144272419D02*
X133608645Y-144320038D01*
X133608645Y-144320038D02*
X133656264Y-144367657D01*
X133656264Y-144367657D02*
X133703883Y-144462895D01*
X133703883Y-144462895D02*
X133703883Y-144558133D01*
X133703883Y-144558133D02*
X133656264Y-144700990D01*
X133656264Y-144700990D02*
X133084836Y-145272419D01*
X133084836Y-145272419D02*
X133703883Y-145272419D01*
X134703883Y-145177180D02*
X134656264Y-145224800D01*
X134656264Y-145224800D02*
X134513407Y-145272419D01*
X134513407Y-145272419D02*
X134418169Y-145272419D01*
X134418169Y-145272419D02*
X134275312Y-145224800D01*
X134275312Y-145224800D02*
X134180074Y-145129561D01*
X134180074Y-145129561D02*
X134132455Y-145034323D01*
X134132455Y-145034323D02*
X134084836Y-144843847D01*
X134084836Y-144843847D02*
X134084836Y-144700990D01*
X134084836Y-144700990D02*
X134132455Y-144510514D01*
X134132455Y-144510514D02*
X134180074Y-144415276D01*
X134180074Y-144415276D02*
X134275312Y-144320038D01*
X134275312Y-144320038D02*
X134418169Y-144272419D01*
X134418169Y-144272419D02*
X134513407Y-144272419D01*
X134513407Y-144272419D02*
X134656264Y-144320038D01*
X134656264Y-144320038D02*
X134703883Y-144367657D01*
X121237217Y-145248609D02*
X121380074Y-145296228D01*
X121380074Y-145296228D02*
X121427693Y-145343847D01*
X121427693Y-145343847D02*
X121475312Y-145439085D01*
X121475312Y-145439085D02*
X121475312Y-145581942D01*
X121475312Y-145581942D02*
X121427693Y-145677180D01*
X121427693Y-145677180D02*
X121380074Y-145724800D01*
X121380074Y-145724800D02*
X121284836Y-145772419D01*
X121284836Y-145772419D02*
X120903884Y-145772419D01*
X120903884Y-145772419D02*
X120903884Y-144772419D01*
X120903884Y-144772419D02*
X121237217Y-144772419D01*
X121237217Y-144772419D02*
X121332455Y-144820038D01*
X121332455Y-144820038D02*
X121380074Y-144867657D01*
X121380074Y-144867657D02*
X121427693Y-144962895D01*
X121427693Y-144962895D02*
X121427693Y-145058133D01*
X121427693Y-145058133D02*
X121380074Y-145153371D01*
X121380074Y-145153371D02*
X121332455Y-145200990D01*
X121332455Y-145200990D02*
X121237217Y-145248609D01*
X121237217Y-145248609D02*
X120903884Y-145248609D01*
X121761027Y-144772419D02*
X122332455Y-144772419D01*
X122046741Y-145772419D02*
X122046741Y-144772419D01*
X122665789Y-145772419D02*
X122665789Y-144772419D01*
X122665789Y-144772419D02*
X123237217Y-145772419D01*
X123237217Y-145772419D02*
X123237217Y-144772419D01*
X123475313Y-145867657D02*
X124237217Y-145867657D01*
X124475313Y-145772419D02*
X124475313Y-144772419D01*
X124475313Y-144772419D02*
X124856265Y-144772419D01*
X124856265Y-144772419D02*
X124951503Y-144820038D01*
X124951503Y-144820038D02*
X124999122Y-144867657D01*
X124999122Y-144867657D02*
X125046741Y-144962895D01*
X125046741Y-144962895D02*
X125046741Y-145105752D01*
X125046741Y-145105752D02*
X124999122Y-145200990D01*
X124999122Y-145200990D02*
X124951503Y-145248609D01*
X124951503Y-145248609D02*
X124856265Y-145296228D01*
X124856265Y-145296228D02*
X124475313Y-145296228D01*
X125475313Y-145772419D02*
X125475313Y-144772419D01*
X125951503Y-145772419D02*
X125951503Y-144772419D01*
X125951503Y-144772419D02*
X126522931Y-145772419D01*
X126522931Y-145772419D02*
X126522931Y-144772419D01*
X208603884Y-54672419D02*
X208603884Y-53672419D01*
X209080074Y-54672419D02*
X209080074Y-53672419D01*
X209080074Y-53672419D02*
X209651502Y-54672419D01*
X209651502Y-54672419D02*
X209651502Y-53672419D01*
X209984836Y-53672419D02*
X210556264Y-53672419D01*
X210270550Y-54672419D02*
X210270550Y-53672419D01*
X205356265Y-54386704D02*
X205832455Y-54386704D01*
X205261027Y-54672419D02*
X205594360Y-53672419D01*
X205594360Y-53672419D02*
X205927693Y-54672419D01*
X206261027Y-54672419D02*
X206261027Y-53672419D01*
X206261027Y-53672419D02*
X206499122Y-53672419D01*
X206499122Y-53672419D02*
X206641979Y-53720038D01*
X206641979Y-53720038D02*
X206737217Y-53815276D01*
X206737217Y-53815276D02*
X206784836Y-53910514D01*
X206784836Y-53910514D02*
X206832455Y-54100990D01*
X206832455Y-54100990D02*
X206832455Y-54243847D01*
X206832455Y-54243847D02*
X206784836Y-54434323D01*
X206784836Y-54434323D02*
X206737217Y-54529561D01*
X206737217Y-54529561D02*
X206641979Y-54624800D01*
X206641979Y-54624800D02*
X206499122Y-54672419D01*
X206499122Y-54672419D02*
X206261027Y-54672419D01*
X207451503Y-53672419D02*
X207641979Y-53672419D01*
X207641979Y-53672419D02*
X207737217Y-53720038D01*
X207737217Y-53720038D02*
X207832455Y-53815276D01*
X207832455Y-53815276D02*
X207880074Y-54005752D01*
X207880074Y-54005752D02*
X207880074Y-54339085D01*
X207880074Y-54339085D02*
X207832455Y-54529561D01*
X207832455Y-54529561D02*
X207737217Y-54624800D01*
X207737217Y-54624800D02*
X207641979Y-54672419D01*
X207641979Y-54672419D02*
X207451503Y-54672419D01*
X207451503Y-54672419D02*
X207356265Y-54624800D01*
X207356265Y-54624800D02*
X207261027Y-54529561D01*
X207261027Y-54529561D02*
X207213408Y-54339085D01*
X207213408Y-54339085D02*
X207213408Y-54005752D01*
X207213408Y-54005752D02*
X207261027Y-53815276D01*
X207261027Y-53815276D02*
X207356265Y-53720038D01*
X207356265Y-53720038D02*
X207451503Y-53672419D01*
X204208646Y-55272419D02*
X204875312Y-56272419D01*
X204875312Y-55272419D02*
X204208646Y-56272419D01*
X205827693Y-56177180D02*
X205780074Y-56224800D01*
X205780074Y-56224800D02*
X205637217Y-56272419D01*
X205637217Y-56272419D02*
X205541979Y-56272419D01*
X205541979Y-56272419D02*
X205399122Y-56224800D01*
X205399122Y-56224800D02*
X205303884Y-56129561D01*
X205303884Y-56129561D02*
X205256265Y-56034323D01*
X205256265Y-56034323D02*
X205208646Y-55843847D01*
X205208646Y-55843847D02*
X205208646Y-55700990D01*
X205208646Y-55700990D02*
X205256265Y-55510514D01*
X205256265Y-55510514D02*
X205303884Y-55415276D01*
X205303884Y-55415276D02*
X205399122Y-55320038D01*
X205399122Y-55320038D02*
X205541979Y-55272419D01*
X205541979Y-55272419D02*
X205637217Y-55272419D01*
X205637217Y-55272419D02*
X205780074Y-55320038D01*
X205780074Y-55320038D02*
X205827693Y-55367657D01*
X206732455Y-56272419D02*
X206256265Y-56272419D01*
X206256265Y-56272419D02*
X206256265Y-55272419D01*
X201108646Y-55272419D02*
X201775312Y-56272419D01*
X201775312Y-55272419D02*
X201108646Y-56272419D01*
X202156265Y-56272419D02*
X202156265Y-55272419D01*
X202156265Y-55272419D02*
X202394360Y-55272419D01*
X202394360Y-55272419D02*
X202537217Y-55320038D01*
X202537217Y-55320038D02*
X202632455Y-55415276D01*
X202632455Y-55415276D02*
X202680074Y-55510514D01*
X202680074Y-55510514D02*
X202727693Y-55700990D01*
X202727693Y-55700990D02*
X202727693Y-55843847D01*
X202727693Y-55843847D02*
X202680074Y-56034323D01*
X202680074Y-56034323D02*
X202632455Y-56129561D01*
X202632455Y-56129561D02*
X202537217Y-56224800D01*
X202537217Y-56224800D02*
X202394360Y-56272419D01*
X202394360Y-56272419D02*
X202156265Y-56272419D01*
X203108646Y-55986704D02*
X203584836Y-55986704D01*
X203013408Y-56272419D02*
X203346741Y-55272419D01*
X203346741Y-55272419D02*
X203680074Y-56272419D01*
X198256265Y-56224800D02*
X198399122Y-56272419D01*
X198399122Y-56272419D02*
X198637217Y-56272419D01*
X198637217Y-56272419D02*
X198732455Y-56224800D01*
X198732455Y-56224800D02*
X198780074Y-56177180D01*
X198780074Y-56177180D02*
X198827693Y-56081942D01*
X198827693Y-56081942D02*
X198827693Y-55986704D01*
X198827693Y-55986704D02*
X198780074Y-55891466D01*
X198780074Y-55891466D02*
X198732455Y-55843847D01*
X198732455Y-55843847D02*
X198637217Y-55796228D01*
X198637217Y-55796228D02*
X198446741Y-55748609D01*
X198446741Y-55748609D02*
X198351503Y-55700990D01*
X198351503Y-55700990D02*
X198303884Y-55653371D01*
X198303884Y-55653371D02*
X198256265Y-55558133D01*
X198256265Y-55558133D02*
X198256265Y-55462895D01*
X198256265Y-55462895D02*
X198303884Y-55367657D01*
X198303884Y-55367657D02*
X198351503Y-55320038D01*
X198351503Y-55320038D02*
X198446741Y-55272419D01*
X198446741Y-55272419D02*
X198684836Y-55272419D01*
X198684836Y-55272419D02*
X198827693Y-55320038D01*
X199827693Y-56177180D02*
X199780074Y-56224800D01*
X199780074Y-56224800D02*
X199637217Y-56272419D01*
X199637217Y-56272419D02*
X199541979Y-56272419D01*
X199541979Y-56272419D02*
X199399122Y-56224800D01*
X199399122Y-56224800D02*
X199303884Y-56129561D01*
X199303884Y-56129561D02*
X199256265Y-56034323D01*
X199256265Y-56034323D02*
X199208646Y-55843847D01*
X199208646Y-55843847D02*
X199208646Y-55700990D01*
X199208646Y-55700990D02*
X199256265Y-55510514D01*
X199256265Y-55510514D02*
X199303884Y-55415276D01*
X199303884Y-55415276D02*
X199399122Y-55320038D01*
X199399122Y-55320038D02*
X199541979Y-55272419D01*
X199541979Y-55272419D02*
X199637217Y-55272419D01*
X199637217Y-55272419D02*
X199780074Y-55320038D01*
X199780074Y-55320038D02*
X199827693Y-55367657D01*
X200732455Y-56272419D02*
X200256265Y-56272419D01*
X200256265Y-56272419D02*
X200256265Y-55272419D01*
X195056265Y-56224800D02*
X195199122Y-56272419D01*
X195199122Y-56272419D02*
X195437217Y-56272419D01*
X195437217Y-56272419D02*
X195532455Y-56224800D01*
X195532455Y-56224800D02*
X195580074Y-56177180D01*
X195580074Y-56177180D02*
X195627693Y-56081942D01*
X195627693Y-56081942D02*
X195627693Y-55986704D01*
X195627693Y-55986704D02*
X195580074Y-55891466D01*
X195580074Y-55891466D02*
X195532455Y-55843847D01*
X195532455Y-55843847D02*
X195437217Y-55796228D01*
X195437217Y-55796228D02*
X195246741Y-55748609D01*
X195246741Y-55748609D02*
X195151503Y-55700990D01*
X195151503Y-55700990D02*
X195103884Y-55653371D01*
X195103884Y-55653371D02*
X195056265Y-55558133D01*
X195056265Y-55558133D02*
X195056265Y-55462895D01*
X195056265Y-55462895D02*
X195103884Y-55367657D01*
X195103884Y-55367657D02*
X195151503Y-55320038D01*
X195151503Y-55320038D02*
X195246741Y-55272419D01*
X195246741Y-55272419D02*
X195484836Y-55272419D01*
X195484836Y-55272419D02*
X195627693Y-55320038D01*
X196056265Y-56272419D02*
X196056265Y-55272419D01*
X196056265Y-55272419D02*
X196294360Y-55272419D01*
X196294360Y-55272419D02*
X196437217Y-55320038D01*
X196437217Y-55320038D02*
X196532455Y-55415276D01*
X196532455Y-55415276D02*
X196580074Y-55510514D01*
X196580074Y-55510514D02*
X196627693Y-55700990D01*
X196627693Y-55700990D02*
X196627693Y-55843847D01*
X196627693Y-55843847D02*
X196580074Y-56034323D01*
X196580074Y-56034323D02*
X196532455Y-56129561D01*
X196532455Y-56129561D02*
X196437217Y-56224800D01*
X196437217Y-56224800D02*
X196294360Y-56272419D01*
X196294360Y-56272419D02*
X196056265Y-56272419D01*
X197008646Y-55986704D02*
X197484836Y-55986704D01*
X196913408Y-56272419D02*
X197246741Y-55272419D01*
X197246741Y-55272419D02*
X197580074Y-56272419D01*
X192927693Y-53920038D02*
X192832455Y-53872419D01*
X192832455Y-53872419D02*
X192689598Y-53872419D01*
X192689598Y-53872419D02*
X192546741Y-53920038D01*
X192546741Y-53920038D02*
X192451503Y-54015276D01*
X192451503Y-54015276D02*
X192403884Y-54110514D01*
X192403884Y-54110514D02*
X192356265Y-54300990D01*
X192356265Y-54300990D02*
X192356265Y-54443847D01*
X192356265Y-54443847D02*
X192403884Y-54634323D01*
X192403884Y-54634323D02*
X192451503Y-54729561D01*
X192451503Y-54729561D02*
X192546741Y-54824800D01*
X192546741Y-54824800D02*
X192689598Y-54872419D01*
X192689598Y-54872419D02*
X192784836Y-54872419D01*
X192784836Y-54872419D02*
X192927693Y-54824800D01*
X192927693Y-54824800D02*
X192975312Y-54777180D01*
X192975312Y-54777180D02*
X192975312Y-54443847D01*
X192975312Y-54443847D02*
X192784836Y-54443847D01*
X193403884Y-54872419D02*
X193403884Y-53872419D01*
X193403884Y-53872419D02*
X193975312Y-54872419D01*
X193975312Y-54872419D02*
X193975312Y-53872419D01*
X194451503Y-54872419D02*
X194451503Y-53872419D01*
X194451503Y-53872419D02*
X194689598Y-53872419D01*
X194689598Y-53872419D02*
X194832455Y-53920038D01*
X194832455Y-53920038D02*
X194927693Y-54015276D01*
X194927693Y-54015276D02*
X194975312Y-54110514D01*
X194975312Y-54110514D02*
X195022931Y-54300990D01*
X195022931Y-54300990D02*
X195022931Y-54443847D01*
X195022931Y-54443847D02*
X194975312Y-54634323D01*
X194975312Y-54634323D02*
X194927693Y-54729561D01*
X194927693Y-54729561D02*
X194832455Y-54824800D01*
X194832455Y-54824800D02*
X194689598Y-54872419D01*
X194689598Y-54872419D02*
X194451503Y-54872419D01*
X189261027Y-53772419D02*
X189594360Y-54772419D01*
X189594360Y-54772419D02*
X189927693Y-53772419D01*
X190689598Y-54724800D02*
X190594360Y-54772419D01*
X190594360Y-54772419D02*
X190403884Y-54772419D01*
X190403884Y-54772419D02*
X190308646Y-54724800D01*
X190308646Y-54724800D02*
X190261027Y-54677180D01*
X190261027Y-54677180D02*
X190213408Y-54581942D01*
X190213408Y-54581942D02*
X190213408Y-54296228D01*
X190213408Y-54296228D02*
X190261027Y-54200990D01*
X190261027Y-54200990D02*
X190308646Y-54153371D01*
X190308646Y-54153371D02*
X190403884Y-54105752D01*
X190403884Y-54105752D02*
X190594360Y-54105752D01*
X190594360Y-54105752D02*
X190689598Y-54153371D01*
X191546741Y-54724800D02*
X191451503Y-54772419D01*
X191451503Y-54772419D02*
X191261027Y-54772419D01*
X191261027Y-54772419D02*
X191165789Y-54724800D01*
X191165789Y-54724800D02*
X191118170Y-54677180D01*
X191118170Y-54677180D02*
X191070551Y-54581942D01*
X191070551Y-54581942D02*
X191070551Y-54296228D01*
X191070551Y-54296228D02*
X191118170Y-54200990D01*
X191118170Y-54200990D02*
X191165789Y-54153371D01*
X191165789Y-54153371D02*
X191261027Y-54105752D01*
X191261027Y-54105752D02*
X191451503Y-54105752D01*
X191451503Y-54105752D02*
X191546741Y-54153371D01*
X128972419Y-60205639D02*
X128972419Y-60015163D01*
X128972419Y-60015163D02*
X129020038Y-59919925D01*
X129020038Y-59919925D02*
X129115276Y-59824687D01*
X129115276Y-59824687D02*
X129305752Y-59777068D01*
X129305752Y-59777068D02*
X129639085Y-59777068D01*
X129639085Y-59777068D02*
X129829561Y-59824687D01*
X129829561Y-59824687D02*
X129924800Y-59919925D01*
X129924800Y-59919925D02*
X129972419Y-60015163D01*
X129972419Y-60015163D02*
X129972419Y-60205639D01*
X129972419Y-60205639D02*
X129924800Y-60300877D01*
X129924800Y-60300877D02*
X129829561Y-60396115D01*
X129829561Y-60396115D02*
X129639085Y-60443734D01*
X129639085Y-60443734D02*
X129305752Y-60443734D01*
X129305752Y-60443734D02*
X129115276Y-60396115D01*
X129115276Y-60396115D02*
X129020038Y-60300877D01*
X129020038Y-60300877D02*
X128972419Y-60205639D01*
X129448609Y-59015163D02*
X129448609Y-59348496D01*
X129972419Y-59348496D02*
X128972419Y-59348496D01*
X128972419Y-59348496D02*
X128972419Y-58872306D01*
X129448609Y-58158020D02*
X129448609Y-58491353D01*
X129972419Y-58491353D02*
X128972419Y-58491353D01*
X128972419Y-58491353D02*
X128972419Y-58015163D01*
X129072419Y-54305639D02*
X129072419Y-54115163D01*
X129072419Y-54115163D02*
X129120038Y-54019925D01*
X129120038Y-54019925D02*
X129215276Y-53924687D01*
X129215276Y-53924687D02*
X129405752Y-53877068D01*
X129405752Y-53877068D02*
X129739085Y-53877068D01*
X129739085Y-53877068D02*
X129929561Y-53924687D01*
X129929561Y-53924687D02*
X130024800Y-54019925D01*
X130024800Y-54019925D02*
X130072419Y-54115163D01*
X130072419Y-54115163D02*
X130072419Y-54305639D01*
X130072419Y-54305639D02*
X130024800Y-54400877D01*
X130024800Y-54400877D02*
X129929561Y-54496115D01*
X129929561Y-54496115D02*
X129739085Y-54543734D01*
X129739085Y-54543734D02*
X129405752Y-54543734D01*
X129405752Y-54543734D02*
X129215276Y-54496115D01*
X129215276Y-54496115D02*
X129120038Y-54400877D01*
X129120038Y-54400877D02*
X129072419Y-54305639D01*
X130072419Y-53448496D02*
X129072419Y-53448496D01*
X129072419Y-53448496D02*
X130072419Y-52877068D01*
X130072419Y-52877068D02*
X129072419Y-52877068D01*
X77672419Y-132796115D02*
X76672419Y-132796115D01*
X76672419Y-132796115D02*
X77672419Y-132224687D01*
X77672419Y-132224687D02*
X76672419Y-132224687D01*
X77005752Y-131319925D02*
X77672419Y-131319925D01*
X77005752Y-131748496D02*
X77529561Y-131748496D01*
X77529561Y-131748496D02*
X77624800Y-131700877D01*
X77624800Y-131700877D02*
X77672419Y-131605639D01*
X77672419Y-131605639D02*
X77672419Y-131462782D01*
X77672419Y-131462782D02*
X77624800Y-131367544D01*
X77624800Y-131367544D02*
X77577180Y-131319925D01*
X77624800Y-130415163D02*
X77672419Y-130510401D01*
X77672419Y-130510401D02*
X77672419Y-130700877D01*
X77672419Y-130700877D02*
X77624800Y-130796115D01*
X77624800Y-130796115D02*
X77577180Y-130843734D01*
X77577180Y-130843734D02*
X77481942Y-130891353D01*
X77481942Y-130891353D02*
X77196228Y-130891353D01*
X77196228Y-130891353D02*
X77100990Y-130843734D01*
X77100990Y-130843734D02*
X77053371Y-130796115D01*
X77053371Y-130796115D02*
X77005752Y-130700877D01*
X77005752Y-130700877D02*
X77005752Y-130510401D01*
X77005752Y-130510401D02*
X77053371Y-130415163D01*
X77672419Y-129843734D02*
X77624800Y-129938972D01*
X77624800Y-129938972D02*
X77529561Y-129986591D01*
X77529561Y-129986591D02*
X76672419Y-129986591D01*
X77624800Y-129081829D02*
X77672419Y-129177067D01*
X77672419Y-129177067D02*
X77672419Y-129367543D01*
X77672419Y-129367543D02*
X77624800Y-129462781D01*
X77624800Y-129462781D02*
X77529561Y-129510400D01*
X77529561Y-129510400D02*
X77148609Y-129510400D01*
X77148609Y-129510400D02*
X77053371Y-129462781D01*
X77053371Y-129462781D02*
X77005752Y-129367543D01*
X77005752Y-129367543D02*
X77005752Y-129177067D01*
X77005752Y-129177067D02*
X77053371Y-129081829D01*
X77053371Y-129081829D02*
X77148609Y-129034210D01*
X77148609Y-129034210D02*
X77243847Y-129034210D01*
X77243847Y-129034210D02*
X77339085Y-129510400D01*
X77672419Y-128462781D02*
X77624800Y-128558019D01*
X77624800Y-128558019D02*
X77577180Y-128605638D01*
X77577180Y-128605638D02*
X77481942Y-128653257D01*
X77481942Y-128653257D02*
X77196228Y-128653257D01*
X77196228Y-128653257D02*
X77100990Y-128605638D01*
X77100990Y-128605638D02*
X77053371Y-128558019D01*
X77053371Y-128558019D02*
X77005752Y-128462781D01*
X77005752Y-128462781D02*
X77005752Y-128319924D01*
X77005752Y-128319924D02*
X77053371Y-128224686D01*
X77053371Y-128224686D02*
X77100990Y-128177067D01*
X77100990Y-128177067D02*
X77196228Y-128129448D01*
X77196228Y-128129448D02*
X77481942Y-128129448D01*
X77481942Y-128129448D02*
X77577180Y-128177067D01*
X77577180Y-128177067D02*
X77624800Y-128224686D01*
X77624800Y-128224686D02*
X77672419Y-128319924D01*
X77672419Y-128319924D02*
X77672419Y-128462781D01*
X77767657Y-127938972D02*
X77767657Y-127177067D01*
X77148609Y-126605638D02*
X77148609Y-126938971D01*
X77672419Y-126938971D02*
X76672419Y-126938971D01*
X76672419Y-126938971D02*
X76672419Y-126462781D01*
X77005752Y-125653257D02*
X77672419Y-125653257D01*
X76624800Y-125891352D02*
X77339085Y-126129447D01*
X77339085Y-126129447D02*
X77339085Y-125510400D01*
X77672419Y-124605638D02*
X77672419Y-125177066D01*
X77672419Y-124891352D02*
X76672419Y-124891352D01*
X76672419Y-124891352D02*
X76815276Y-124986590D01*
X76815276Y-124986590D02*
X76910514Y-125081828D01*
X76910514Y-125081828D02*
X76958133Y-125177066D01*
X77672419Y-123653257D02*
X77672419Y-124224685D01*
X77672419Y-123938971D02*
X76672419Y-123938971D01*
X76672419Y-123938971D02*
X76815276Y-124034209D01*
X76815276Y-124034209D02*
X76910514Y-124129447D01*
X76910514Y-124129447D02*
X76958133Y-124224685D01*
X77672419Y-122653257D02*
X77196228Y-122986590D01*
X77672419Y-123224685D02*
X76672419Y-123224685D01*
X76672419Y-123224685D02*
X76672419Y-122843733D01*
X76672419Y-122843733D02*
X76720038Y-122748495D01*
X76720038Y-122748495D02*
X76767657Y-122700876D01*
X76767657Y-122700876D02*
X76862895Y-122653257D01*
X76862895Y-122653257D02*
X77005752Y-122653257D01*
X77005752Y-122653257D02*
X77100990Y-122700876D01*
X77100990Y-122700876D02*
X77148609Y-122748495D01*
X77148609Y-122748495D02*
X77196228Y-122843733D01*
X77196228Y-122843733D02*
X77196228Y-123224685D01*
X77148609Y-122224685D02*
X77148609Y-121891352D01*
X77672419Y-121748495D02*
X77672419Y-122224685D01*
X77672419Y-122224685D02*
X76672419Y-122224685D01*
X76672419Y-122224685D02*
X76672419Y-121748495D01*
X78607180Y-57224687D02*
X78654800Y-57272306D01*
X78654800Y-57272306D02*
X78702419Y-57415163D01*
X78702419Y-57415163D02*
X78702419Y-57510401D01*
X78702419Y-57510401D02*
X78654800Y-57653258D01*
X78654800Y-57653258D02*
X78559561Y-57748496D01*
X78559561Y-57748496D02*
X78464323Y-57796115D01*
X78464323Y-57796115D02*
X78273847Y-57843734D01*
X78273847Y-57843734D02*
X78130990Y-57843734D01*
X78130990Y-57843734D02*
X77940514Y-57796115D01*
X77940514Y-57796115D02*
X77845276Y-57748496D01*
X77845276Y-57748496D02*
X77750038Y-57653258D01*
X77750038Y-57653258D02*
X77702419Y-57510401D01*
X77702419Y-57510401D02*
X77702419Y-57415163D01*
X77702419Y-57415163D02*
X77750038Y-57272306D01*
X77750038Y-57272306D02*
X77797657Y-57224687D01*
X78702419Y-56653258D02*
X78654800Y-56748496D01*
X78654800Y-56748496D02*
X78607180Y-56796115D01*
X78607180Y-56796115D02*
X78511942Y-56843734D01*
X78511942Y-56843734D02*
X78226228Y-56843734D01*
X78226228Y-56843734D02*
X78130990Y-56796115D01*
X78130990Y-56796115D02*
X78083371Y-56748496D01*
X78083371Y-56748496D02*
X78035752Y-56653258D01*
X78035752Y-56653258D02*
X78035752Y-56510401D01*
X78035752Y-56510401D02*
X78083371Y-56415163D01*
X78083371Y-56415163D02*
X78130990Y-56367544D01*
X78130990Y-56367544D02*
X78226228Y-56319925D01*
X78226228Y-56319925D02*
X78511942Y-56319925D01*
X78511942Y-56319925D02*
X78607180Y-56367544D01*
X78607180Y-56367544D02*
X78654800Y-56415163D01*
X78654800Y-56415163D02*
X78702419Y-56510401D01*
X78702419Y-56510401D02*
X78702419Y-56653258D01*
X78035752Y-55891353D02*
X78702419Y-55891353D01*
X78130990Y-55891353D02*
X78083371Y-55843734D01*
X78083371Y-55843734D02*
X78035752Y-55748496D01*
X78035752Y-55748496D02*
X78035752Y-55605639D01*
X78035752Y-55605639D02*
X78083371Y-55510401D01*
X78083371Y-55510401D02*
X78178609Y-55462782D01*
X78178609Y-55462782D02*
X78702419Y-55462782D01*
X78035752Y-54986591D02*
X78702419Y-54986591D01*
X78130990Y-54986591D02*
X78083371Y-54938972D01*
X78083371Y-54938972D02*
X78035752Y-54843734D01*
X78035752Y-54843734D02*
X78035752Y-54700877D01*
X78035752Y-54700877D02*
X78083371Y-54605639D01*
X78083371Y-54605639D02*
X78178609Y-54558020D01*
X78178609Y-54558020D02*
X78702419Y-54558020D01*
X78654800Y-53700877D02*
X78702419Y-53796115D01*
X78702419Y-53796115D02*
X78702419Y-53986591D01*
X78702419Y-53986591D02*
X78654800Y-54081829D01*
X78654800Y-54081829D02*
X78559561Y-54129448D01*
X78559561Y-54129448D02*
X78178609Y-54129448D01*
X78178609Y-54129448D02*
X78083371Y-54081829D01*
X78083371Y-54081829D02*
X78035752Y-53986591D01*
X78035752Y-53986591D02*
X78035752Y-53796115D01*
X78035752Y-53796115D02*
X78083371Y-53700877D01*
X78083371Y-53700877D02*
X78178609Y-53653258D01*
X78178609Y-53653258D02*
X78273847Y-53653258D01*
X78273847Y-53653258D02*
X78369085Y-54129448D01*
X78654800Y-52796115D02*
X78702419Y-52891353D01*
X78702419Y-52891353D02*
X78702419Y-53081829D01*
X78702419Y-53081829D02*
X78654800Y-53177067D01*
X78654800Y-53177067D02*
X78607180Y-53224686D01*
X78607180Y-53224686D02*
X78511942Y-53272305D01*
X78511942Y-53272305D02*
X78226228Y-53272305D01*
X78226228Y-53272305D02*
X78130990Y-53224686D01*
X78130990Y-53224686D02*
X78083371Y-53177067D01*
X78083371Y-53177067D02*
X78035752Y-53081829D01*
X78035752Y-53081829D02*
X78035752Y-52891353D01*
X78035752Y-52891353D02*
X78083371Y-52796115D01*
X78035752Y-52510400D02*
X78035752Y-52129448D01*
X77702419Y-52367543D02*
X78559561Y-52367543D01*
X78559561Y-52367543D02*
X78654800Y-52319924D01*
X78654800Y-52319924D02*
X78702419Y-52224686D01*
X78702419Y-52224686D02*
X78702419Y-52129448D01*
X78702419Y-51653257D02*
X78654800Y-51748495D01*
X78654800Y-51748495D02*
X78607180Y-51796114D01*
X78607180Y-51796114D02*
X78511942Y-51843733D01*
X78511942Y-51843733D02*
X78226228Y-51843733D01*
X78226228Y-51843733D02*
X78130990Y-51796114D01*
X78130990Y-51796114D02*
X78083371Y-51748495D01*
X78083371Y-51748495D02*
X78035752Y-51653257D01*
X78035752Y-51653257D02*
X78035752Y-51510400D01*
X78035752Y-51510400D02*
X78083371Y-51415162D01*
X78083371Y-51415162D02*
X78130990Y-51367543D01*
X78130990Y-51367543D02*
X78226228Y-51319924D01*
X78226228Y-51319924D02*
X78511942Y-51319924D01*
X78511942Y-51319924D02*
X78607180Y-51367543D01*
X78607180Y-51367543D02*
X78654800Y-51415162D01*
X78654800Y-51415162D02*
X78702419Y-51510400D01*
X78702419Y-51510400D02*
X78702419Y-51653257D01*
X78702419Y-50891352D02*
X78035752Y-50891352D01*
X78226228Y-50891352D02*
X78130990Y-50843733D01*
X78130990Y-50843733D02*
X78083371Y-50796114D01*
X78083371Y-50796114D02*
X78035752Y-50700876D01*
X78035752Y-50700876D02*
X78035752Y-50605638D01*
D11*
X102441667Y-136682200D02*
X102584524Y-136729819D01*
X102584524Y-136729819D02*
X102822619Y-136729819D01*
X102822619Y-136729819D02*
X102917857Y-136682200D01*
X102917857Y-136682200D02*
X102965476Y-136634580D01*
X102965476Y-136634580D02*
X103013095Y-136539342D01*
X103013095Y-136539342D02*
X103013095Y-136444104D01*
X103013095Y-136444104D02*
X102965476Y-136348866D01*
X102965476Y-136348866D02*
X102917857Y-136301247D01*
X102917857Y-136301247D02*
X102822619Y-136253628D01*
X102822619Y-136253628D02*
X102632143Y-136206009D01*
X102632143Y-136206009D02*
X102536905Y-136158390D01*
X102536905Y-136158390D02*
X102489286Y-136110771D01*
X102489286Y-136110771D02*
X102441667Y-136015533D01*
X102441667Y-136015533D02*
X102441667Y-135920295D01*
X102441667Y-135920295D02*
X102489286Y-135825057D01*
X102489286Y-135825057D02*
X102536905Y-135777438D01*
X102536905Y-135777438D02*
X102632143Y-135729819D01*
X102632143Y-135729819D02*
X102870238Y-135729819D01*
X102870238Y-135729819D02*
X103013095Y-135777438D01*
X103346429Y-135729819D02*
X103584524Y-136729819D01*
X103584524Y-136729819D02*
X103775000Y-136015533D01*
X103775000Y-136015533D02*
X103965476Y-136729819D01*
X103965476Y-136729819D02*
X104203572Y-135729819D01*
X104489286Y-135729819D02*
X105108333Y-135729819D01*
X105108333Y-135729819D02*
X104775000Y-136110771D01*
X104775000Y-136110771D02*
X104917857Y-136110771D01*
X104917857Y-136110771D02*
X105013095Y-136158390D01*
X105013095Y-136158390D02*
X105060714Y-136206009D01*
X105060714Y-136206009D02*
X105108333Y-136301247D01*
X105108333Y-136301247D02*
X105108333Y-136539342D01*
X105108333Y-136539342D02*
X105060714Y-136634580D01*
X105060714Y-136634580D02*
X105013095Y-136682200D01*
X105013095Y-136682200D02*
X104917857Y-136729819D01*
X104917857Y-136729819D02*
X104632143Y-136729819D01*
X104632143Y-136729819D02*
X104536905Y-136682200D01*
X104536905Y-136682200D02*
X104489286Y-136634580D01*
X102822618Y-145429819D02*
X102489285Y-144953628D01*
X102251190Y-145429819D02*
X102251190Y-144429819D01*
X102251190Y-144429819D02*
X102632142Y-144429819D01*
X102632142Y-144429819D02*
X102727380Y-144477438D01*
X102727380Y-144477438D02*
X102774999Y-144525057D01*
X102774999Y-144525057D02*
X102822618Y-144620295D01*
X102822618Y-144620295D02*
X102822618Y-144763152D01*
X102822618Y-144763152D02*
X102774999Y-144858390D01*
X102774999Y-144858390D02*
X102727380Y-144906009D01*
X102727380Y-144906009D02*
X102632142Y-144953628D01*
X102632142Y-144953628D02*
X102251190Y-144953628D01*
X103251190Y-144906009D02*
X103584523Y-144906009D01*
X103727380Y-145429819D02*
X103251190Y-145429819D01*
X103251190Y-145429819D02*
X103251190Y-144429819D01*
X103251190Y-144429819D02*
X103727380Y-144429819D01*
X104108333Y-145382200D02*
X104251190Y-145429819D01*
X104251190Y-145429819D02*
X104489285Y-145429819D01*
X104489285Y-145429819D02*
X104584523Y-145382200D01*
X104584523Y-145382200D02*
X104632142Y-145334580D01*
X104632142Y-145334580D02*
X104679761Y-145239342D01*
X104679761Y-145239342D02*
X104679761Y-145144104D01*
X104679761Y-145144104D02*
X104632142Y-145048866D01*
X104632142Y-145048866D02*
X104584523Y-145001247D01*
X104584523Y-145001247D02*
X104489285Y-144953628D01*
X104489285Y-144953628D02*
X104298809Y-144906009D01*
X104298809Y-144906009D02*
X104203571Y-144858390D01*
X104203571Y-144858390D02*
X104155952Y-144810771D01*
X104155952Y-144810771D02*
X104108333Y-144715533D01*
X104108333Y-144715533D02*
X104108333Y-144620295D01*
X104108333Y-144620295D02*
X104155952Y-144525057D01*
X104155952Y-144525057D02*
X104203571Y-144477438D01*
X104203571Y-144477438D02*
X104298809Y-144429819D01*
X104298809Y-144429819D02*
X104536904Y-144429819D01*
X104536904Y-144429819D02*
X104679761Y-144477438D01*
X105108333Y-144906009D02*
X105441666Y-144906009D01*
X105584523Y-145429819D02*
X105108333Y-145429819D01*
X105108333Y-145429819D02*
X105108333Y-144429819D01*
X105108333Y-144429819D02*
X105584523Y-144429819D01*
X105870238Y-144429819D02*
X106441666Y-144429819D01*
X106155952Y-145429819D02*
X106155952Y-144429819D01*
X114096667Y-136907200D02*
X114239524Y-136954819D01*
X114239524Y-136954819D02*
X114477619Y-136954819D01*
X114477619Y-136954819D02*
X114572857Y-136907200D01*
X114572857Y-136907200D02*
X114620476Y-136859580D01*
X114620476Y-136859580D02*
X114668095Y-136764342D01*
X114668095Y-136764342D02*
X114668095Y-136669104D01*
X114668095Y-136669104D02*
X114620476Y-136573866D01*
X114620476Y-136573866D02*
X114572857Y-136526247D01*
X114572857Y-136526247D02*
X114477619Y-136478628D01*
X114477619Y-136478628D02*
X114287143Y-136431009D01*
X114287143Y-136431009D02*
X114191905Y-136383390D01*
X114191905Y-136383390D02*
X114144286Y-136335771D01*
X114144286Y-136335771D02*
X114096667Y-136240533D01*
X114096667Y-136240533D02*
X114096667Y-136145295D01*
X114096667Y-136145295D02*
X114144286Y-136050057D01*
X114144286Y-136050057D02*
X114191905Y-136002438D01*
X114191905Y-136002438D02*
X114287143Y-135954819D01*
X114287143Y-135954819D02*
X114525238Y-135954819D01*
X114525238Y-135954819D02*
X114668095Y-136002438D01*
X115001429Y-135954819D02*
X115239524Y-136954819D01*
X115239524Y-136954819D02*
X115430000Y-136240533D01*
X115430000Y-136240533D02*
X115620476Y-136954819D01*
X115620476Y-136954819D02*
X115858572Y-135954819D01*
X116191905Y-136050057D02*
X116239524Y-136002438D01*
X116239524Y-136002438D02*
X116334762Y-135954819D01*
X116334762Y-135954819D02*
X116572857Y-135954819D01*
X116572857Y-135954819D02*
X116668095Y-136002438D01*
X116668095Y-136002438D02*
X116715714Y-136050057D01*
X116715714Y-136050057D02*
X116763333Y-136145295D01*
X116763333Y-136145295D02*
X116763333Y-136240533D01*
X116763333Y-136240533D02*
X116715714Y-136383390D01*
X116715714Y-136383390D02*
X116144286Y-136954819D01*
X116144286Y-136954819D02*
X116763333Y-136954819D01*
X112430000Y-144654819D02*
X112430000Y-145464342D01*
X112430000Y-145464342D02*
X112477619Y-145559580D01*
X112477619Y-145559580D02*
X112525238Y-145607200D01*
X112525238Y-145607200D02*
X112620476Y-145654819D01*
X112620476Y-145654819D02*
X112810952Y-145654819D01*
X112810952Y-145654819D02*
X112906190Y-145607200D01*
X112906190Y-145607200D02*
X112953809Y-145559580D01*
X112953809Y-145559580D02*
X113001428Y-145464342D01*
X113001428Y-145464342D02*
X113001428Y-144654819D01*
X113430000Y-145607200D02*
X113572857Y-145654819D01*
X113572857Y-145654819D02*
X113810952Y-145654819D01*
X113810952Y-145654819D02*
X113906190Y-145607200D01*
X113906190Y-145607200D02*
X113953809Y-145559580D01*
X113953809Y-145559580D02*
X114001428Y-145464342D01*
X114001428Y-145464342D02*
X114001428Y-145369104D01*
X114001428Y-145369104D02*
X113953809Y-145273866D01*
X113953809Y-145273866D02*
X113906190Y-145226247D01*
X113906190Y-145226247D02*
X113810952Y-145178628D01*
X113810952Y-145178628D02*
X113620476Y-145131009D01*
X113620476Y-145131009D02*
X113525238Y-145083390D01*
X113525238Y-145083390D02*
X113477619Y-145035771D01*
X113477619Y-145035771D02*
X113430000Y-144940533D01*
X113430000Y-144940533D02*
X113430000Y-144845295D01*
X113430000Y-144845295D02*
X113477619Y-144750057D01*
X113477619Y-144750057D02*
X113525238Y-144702438D01*
X113525238Y-144702438D02*
X113620476Y-144654819D01*
X113620476Y-144654819D02*
X113858571Y-144654819D01*
X113858571Y-144654819D02*
X114001428Y-144702438D01*
X114430000Y-145131009D02*
X114763333Y-145131009D01*
X114906190Y-145654819D02*
X114430000Y-145654819D01*
X114430000Y-145654819D02*
X114430000Y-144654819D01*
X114430000Y-144654819D02*
X114906190Y-144654819D01*
X115906190Y-145654819D02*
X115572857Y-145178628D01*
X115334762Y-145654819D02*
X115334762Y-144654819D01*
X115334762Y-144654819D02*
X115715714Y-144654819D01*
X115715714Y-144654819D02*
X115810952Y-144702438D01*
X115810952Y-144702438D02*
X115858571Y-144750057D01*
X115858571Y-144750057D02*
X115906190Y-144845295D01*
X115906190Y-144845295D02*
X115906190Y-144988152D01*
X115906190Y-144988152D02*
X115858571Y-145083390D01*
X115858571Y-145083390D02*
X115810952Y-145131009D01*
X115810952Y-145131009D02*
X115715714Y-145178628D01*
X115715714Y-145178628D02*
X115334762Y-145178628D01*
X116096667Y-145750057D02*
X116858571Y-145750057D01*
X117430000Y-145131009D02*
X117572857Y-145178628D01*
X117572857Y-145178628D02*
X117620476Y-145226247D01*
X117620476Y-145226247D02*
X117668095Y-145321485D01*
X117668095Y-145321485D02*
X117668095Y-145464342D01*
X117668095Y-145464342D02*
X117620476Y-145559580D01*
X117620476Y-145559580D02*
X117572857Y-145607200D01*
X117572857Y-145607200D02*
X117477619Y-145654819D01*
X117477619Y-145654819D02*
X117096667Y-145654819D01*
X117096667Y-145654819D02*
X117096667Y-144654819D01*
X117096667Y-144654819D02*
X117430000Y-144654819D01*
X117430000Y-144654819D02*
X117525238Y-144702438D01*
X117525238Y-144702438D02*
X117572857Y-144750057D01*
X117572857Y-144750057D02*
X117620476Y-144845295D01*
X117620476Y-144845295D02*
X117620476Y-144940533D01*
X117620476Y-144940533D02*
X117572857Y-145035771D01*
X117572857Y-145035771D02*
X117525238Y-145083390D01*
X117525238Y-145083390D02*
X117430000Y-145131009D01*
X117430000Y-145131009D02*
X117096667Y-145131009D01*
X117953810Y-144654819D02*
X118525238Y-144654819D01*
X118239524Y-145654819D02*
X118239524Y-144654819D01*
X118858572Y-145654819D02*
X118858572Y-144654819D01*
X118858572Y-144654819D02*
X119430000Y-145654819D01*
X119430000Y-145654819D02*
X119430000Y-144654819D01*
X73124819Y-99011904D02*
X73934342Y-99011904D01*
X73934342Y-99011904D02*
X74029580Y-98964285D01*
X74029580Y-98964285D02*
X74077200Y-98916666D01*
X74077200Y-98916666D02*
X74124819Y-98821428D01*
X74124819Y-98821428D02*
X74124819Y-98630952D01*
X74124819Y-98630952D02*
X74077200Y-98535714D01*
X74077200Y-98535714D02*
X74029580Y-98488095D01*
X74029580Y-98488095D02*
X73934342Y-98440476D01*
X73934342Y-98440476D02*
X73124819Y-98440476D01*
X73124819Y-98059523D02*
X73124819Y-97440476D01*
X73124819Y-97440476D02*
X73505771Y-97773809D01*
X73505771Y-97773809D02*
X73505771Y-97630952D01*
X73505771Y-97630952D02*
X73553390Y-97535714D01*
X73553390Y-97535714D02*
X73601009Y-97488095D01*
X73601009Y-97488095D02*
X73696247Y-97440476D01*
X73696247Y-97440476D02*
X73934342Y-97440476D01*
X73934342Y-97440476D02*
X74029580Y-97488095D01*
X74029580Y-97488095D02*
X74077200Y-97535714D01*
X74077200Y-97535714D02*
X74124819Y-97630952D01*
X74124819Y-97630952D02*
X74124819Y-97916666D01*
X74124819Y-97916666D02*
X74077200Y-98011904D01*
X74077200Y-98011904D02*
X74029580Y-98059523D01*
X142378095Y-46104819D02*
X142378095Y-46914342D01*
X142378095Y-46914342D02*
X142425714Y-47009580D01*
X142425714Y-47009580D02*
X142473333Y-47057200D01*
X142473333Y-47057200D02*
X142568571Y-47104819D01*
X142568571Y-47104819D02*
X142759047Y-47104819D01*
X142759047Y-47104819D02*
X142854285Y-47057200D01*
X142854285Y-47057200D02*
X142901904Y-47009580D01*
X142901904Y-47009580D02*
X142949523Y-46914342D01*
X142949523Y-46914342D02*
X142949523Y-46104819D01*
X143378095Y-46200057D02*
X143425714Y-46152438D01*
X143425714Y-46152438D02*
X143520952Y-46104819D01*
X143520952Y-46104819D02*
X143759047Y-46104819D01*
X143759047Y-46104819D02*
X143854285Y-46152438D01*
X143854285Y-46152438D02*
X143901904Y-46200057D01*
X143901904Y-46200057D02*
X143949523Y-46295295D01*
X143949523Y-46295295D02*
X143949523Y-46390533D01*
X143949523Y-46390533D02*
X143901904Y-46533390D01*
X143901904Y-46533390D02*
X143330476Y-47104819D01*
X143330476Y-47104819D02*
X143949523Y-47104819D01*
X101054819Y-49861904D02*
X101864342Y-49861904D01*
X101864342Y-49861904D02*
X101959580Y-49814285D01*
X101959580Y-49814285D02*
X102007200Y-49766666D01*
X102007200Y-49766666D02*
X102054819Y-49671428D01*
X102054819Y-49671428D02*
X102054819Y-49480952D01*
X102054819Y-49480952D02*
X102007200Y-49385714D01*
X102007200Y-49385714D02*
X101959580Y-49338095D01*
X101959580Y-49338095D02*
X101864342Y-49290476D01*
X101864342Y-49290476D02*
X101054819Y-49290476D01*
X102054819Y-48290476D02*
X102054819Y-48861904D01*
X102054819Y-48576190D02*
X101054819Y-48576190D01*
X101054819Y-48576190D02*
X101197676Y-48671428D01*
X101197676Y-48671428D02*
X101292914Y-48766666D01*
X101292914Y-48766666D02*
X101340533Y-48861904D01*
X108534819Y-54916666D02*
X108534819Y-55392856D01*
X108534819Y-55392856D02*
X107534819Y-55392856D01*
X108534819Y-54583332D02*
X107534819Y-54583332D01*
X107534819Y-54583332D02*
X108249104Y-54249999D01*
X108249104Y-54249999D02*
X107534819Y-53916666D01*
X107534819Y-53916666D02*
X108534819Y-53916666D01*
X107534819Y-53535713D02*
X107534819Y-52869047D01*
X107534819Y-52869047D02*
X108534819Y-53297618D01*
X107963390Y-52345237D02*
X107915771Y-52440475D01*
X107915771Y-52440475D02*
X107868152Y-52488094D01*
X107868152Y-52488094D02*
X107772914Y-52535713D01*
X107772914Y-52535713D02*
X107725295Y-52535713D01*
X107725295Y-52535713D02*
X107630057Y-52488094D01*
X107630057Y-52488094D02*
X107582438Y-52440475D01*
X107582438Y-52440475D02*
X107534819Y-52345237D01*
X107534819Y-52345237D02*
X107534819Y-52154761D01*
X107534819Y-52154761D02*
X107582438Y-52059523D01*
X107582438Y-52059523D02*
X107630057Y-52011904D01*
X107630057Y-52011904D02*
X107725295Y-51964285D01*
X107725295Y-51964285D02*
X107772914Y-51964285D01*
X107772914Y-51964285D02*
X107868152Y-52011904D01*
X107868152Y-52011904D02*
X107915771Y-52059523D01*
X107915771Y-52059523D02*
X107963390Y-52154761D01*
X107963390Y-52154761D02*
X107963390Y-52345237D01*
X107963390Y-52345237D02*
X108011009Y-52440475D01*
X108011009Y-52440475D02*
X108058628Y-52488094D01*
X108058628Y-52488094D02*
X108153866Y-52535713D01*
X108153866Y-52535713D02*
X108344342Y-52535713D01*
X108344342Y-52535713D02*
X108439580Y-52488094D01*
X108439580Y-52488094D02*
X108487200Y-52440475D01*
X108487200Y-52440475D02*
X108534819Y-52345237D01*
X108534819Y-52345237D02*
X108534819Y-52154761D01*
X108534819Y-52154761D02*
X108487200Y-52059523D01*
X108487200Y-52059523D02*
X108439580Y-52011904D01*
X108439580Y-52011904D02*
X108344342Y-51964285D01*
X108344342Y-51964285D02*
X108153866Y-51964285D01*
X108153866Y-51964285D02*
X108058628Y-52011904D01*
X108058628Y-52011904D02*
X108011009Y-52059523D01*
X108011009Y-52059523D02*
X107963390Y-52154761D01*
X107534819Y-51345237D02*
X107534819Y-51249999D01*
X107534819Y-51249999D02*
X107582438Y-51154761D01*
X107582438Y-51154761D02*
X107630057Y-51107142D01*
X107630057Y-51107142D02*
X107725295Y-51059523D01*
X107725295Y-51059523D02*
X107915771Y-51011904D01*
X107915771Y-51011904D02*
X108153866Y-51011904D01*
X108153866Y-51011904D02*
X108344342Y-51059523D01*
X108344342Y-51059523D02*
X108439580Y-51107142D01*
X108439580Y-51107142D02*
X108487200Y-51154761D01*
X108487200Y-51154761D02*
X108534819Y-51249999D01*
X108534819Y-51249999D02*
X108534819Y-51345237D01*
X108534819Y-51345237D02*
X108487200Y-51440475D01*
X108487200Y-51440475D02*
X108439580Y-51488094D01*
X108439580Y-51488094D02*
X108344342Y-51535713D01*
X108344342Y-51535713D02*
X108153866Y-51583332D01*
X108153866Y-51583332D02*
X107915771Y-51583332D01*
X107915771Y-51583332D02*
X107725295Y-51535713D01*
X107725295Y-51535713D02*
X107630057Y-51488094D01*
X107630057Y-51488094D02*
X107582438Y-51440475D01*
X107582438Y-51440475D02*
X107534819Y-51345237D01*
X107534819Y-50107142D02*
X107534819Y-50583332D01*
X107534819Y-50583332D02*
X108011009Y-50630951D01*
X108011009Y-50630951D02*
X107963390Y-50583332D01*
X107963390Y-50583332D02*
X107915771Y-50488094D01*
X107915771Y-50488094D02*
X107915771Y-50249999D01*
X107915771Y-50249999D02*
X107963390Y-50154761D01*
X107963390Y-50154761D02*
X108011009Y-50107142D01*
X108011009Y-50107142D02*
X108106247Y-50059523D01*
X108106247Y-50059523D02*
X108344342Y-50059523D01*
X108344342Y-50059523D02*
X108439580Y-50107142D01*
X108439580Y-50107142D02*
X108487200Y-50154761D01*
X108487200Y-50154761D02*
X108534819Y-50249999D01*
X108534819Y-50249999D02*
X108534819Y-50488094D01*
X108534819Y-50488094D02*
X108487200Y-50583332D01*
X108487200Y-50583332D02*
X108439580Y-50630951D01*
X125047200Y-57873332D02*
X125094819Y-57730475D01*
X125094819Y-57730475D02*
X125094819Y-57492380D01*
X125094819Y-57492380D02*
X125047200Y-57397142D01*
X125047200Y-57397142D02*
X124999580Y-57349523D01*
X124999580Y-57349523D02*
X124904342Y-57301904D01*
X124904342Y-57301904D02*
X124809104Y-57301904D01*
X124809104Y-57301904D02*
X124713866Y-57349523D01*
X124713866Y-57349523D02*
X124666247Y-57397142D01*
X124666247Y-57397142D02*
X124618628Y-57492380D01*
X124618628Y-57492380D02*
X124571009Y-57682856D01*
X124571009Y-57682856D02*
X124523390Y-57778094D01*
X124523390Y-57778094D02*
X124475771Y-57825713D01*
X124475771Y-57825713D02*
X124380533Y-57873332D01*
X124380533Y-57873332D02*
X124285295Y-57873332D01*
X124285295Y-57873332D02*
X124190057Y-57825713D01*
X124190057Y-57825713D02*
X124142438Y-57778094D01*
X124142438Y-57778094D02*
X124094819Y-57682856D01*
X124094819Y-57682856D02*
X124094819Y-57444761D01*
X124094819Y-57444761D02*
X124142438Y-57301904D01*
X124094819Y-56968570D02*
X125094819Y-56730475D01*
X125094819Y-56730475D02*
X124380533Y-56539999D01*
X124380533Y-56539999D02*
X125094819Y-56349523D01*
X125094819Y-56349523D02*
X124094819Y-56111428D01*
X125094819Y-55206666D02*
X125094819Y-55778094D01*
X125094819Y-55492380D02*
X124094819Y-55492380D01*
X124094819Y-55492380D02*
X124237676Y-55587618D01*
X124237676Y-55587618D02*
X124332914Y-55682856D01*
X124332914Y-55682856D02*
X124380533Y-55778094D01*
X170933333Y-52834819D02*
X170600000Y-52358628D01*
X170361905Y-52834819D02*
X170361905Y-51834819D01*
X170361905Y-51834819D02*
X170742857Y-51834819D01*
X170742857Y-51834819D02*
X170838095Y-51882438D01*
X170838095Y-51882438D02*
X170885714Y-51930057D01*
X170885714Y-51930057D02*
X170933333Y-52025295D01*
X170933333Y-52025295D02*
X170933333Y-52168152D01*
X170933333Y-52168152D02*
X170885714Y-52263390D01*
X170885714Y-52263390D02*
X170838095Y-52311009D01*
X170838095Y-52311009D02*
X170742857Y-52358628D01*
X170742857Y-52358628D02*
X170361905Y-52358628D01*
X171504762Y-52263390D02*
X171409524Y-52215771D01*
X171409524Y-52215771D02*
X171361905Y-52168152D01*
X171361905Y-52168152D02*
X171314286Y-52072914D01*
X171314286Y-52072914D02*
X171314286Y-52025295D01*
X171314286Y-52025295D02*
X171361905Y-51930057D01*
X171361905Y-51930057D02*
X171409524Y-51882438D01*
X171409524Y-51882438D02*
X171504762Y-51834819D01*
X171504762Y-51834819D02*
X171695238Y-51834819D01*
X171695238Y-51834819D02*
X171790476Y-51882438D01*
X171790476Y-51882438D02*
X171838095Y-51930057D01*
X171838095Y-51930057D02*
X171885714Y-52025295D01*
X171885714Y-52025295D02*
X171885714Y-52072914D01*
X171885714Y-52072914D02*
X171838095Y-52168152D01*
X171838095Y-52168152D02*
X171790476Y-52215771D01*
X171790476Y-52215771D02*
X171695238Y-52263390D01*
X171695238Y-52263390D02*
X171504762Y-52263390D01*
X171504762Y-52263390D02*
X171409524Y-52311009D01*
X171409524Y-52311009D02*
X171361905Y-52358628D01*
X171361905Y-52358628D02*
X171314286Y-52453866D01*
X171314286Y-52453866D02*
X171314286Y-52644342D01*
X171314286Y-52644342D02*
X171361905Y-52739580D01*
X171361905Y-52739580D02*
X171409524Y-52787200D01*
X171409524Y-52787200D02*
X171504762Y-52834819D01*
X171504762Y-52834819D02*
X171695238Y-52834819D01*
X171695238Y-52834819D02*
X171790476Y-52787200D01*
X171790476Y-52787200D02*
X171838095Y-52739580D01*
X171838095Y-52739580D02*
X171885714Y-52644342D01*
X171885714Y-52644342D02*
X171885714Y-52453866D01*
X171885714Y-52453866D02*
X171838095Y-52358628D01*
X171838095Y-52358628D02*
X171790476Y-52311009D01*
X171790476Y-52311009D02*
X171695238Y-52263390D01*
X169814286Y-56574819D02*
X170433333Y-56574819D01*
X170433333Y-56574819D02*
X170100000Y-56955771D01*
X170100000Y-56955771D02*
X170242857Y-56955771D01*
X170242857Y-56955771D02*
X170338095Y-57003390D01*
X170338095Y-57003390D02*
X170385714Y-57051009D01*
X170385714Y-57051009D02*
X170433333Y-57146247D01*
X170433333Y-57146247D02*
X170433333Y-57384342D01*
X170433333Y-57384342D02*
X170385714Y-57479580D01*
X170385714Y-57479580D02*
X170338095Y-57527200D01*
X170338095Y-57527200D02*
X170242857Y-57574819D01*
X170242857Y-57574819D02*
X169957143Y-57574819D01*
X169957143Y-57574819D02*
X169861905Y-57527200D01*
X169861905Y-57527200D02*
X169814286Y-57479580D01*
X170766667Y-56574819D02*
X171385714Y-56574819D01*
X171385714Y-56574819D02*
X171052381Y-56955771D01*
X171052381Y-56955771D02*
X171195238Y-56955771D01*
X171195238Y-56955771D02*
X171290476Y-57003390D01*
X171290476Y-57003390D02*
X171338095Y-57051009D01*
X171338095Y-57051009D02*
X171385714Y-57146247D01*
X171385714Y-57146247D02*
X171385714Y-57384342D01*
X171385714Y-57384342D02*
X171338095Y-57479580D01*
X171338095Y-57479580D02*
X171290476Y-57527200D01*
X171290476Y-57527200D02*
X171195238Y-57574819D01*
X171195238Y-57574819D02*
X170909524Y-57574819D01*
X170909524Y-57574819D02*
X170814286Y-57527200D01*
X170814286Y-57527200D02*
X170766667Y-57479580D01*
X172004762Y-56574819D02*
X172100000Y-56574819D01*
X172100000Y-56574819D02*
X172195238Y-56622438D01*
X172195238Y-56622438D02*
X172242857Y-56670057D01*
X172242857Y-56670057D02*
X172290476Y-56765295D01*
X172290476Y-56765295D02*
X172338095Y-56955771D01*
X172338095Y-56955771D02*
X172338095Y-57193866D01*
X172338095Y-57193866D02*
X172290476Y-57384342D01*
X172290476Y-57384342D02*
X172242857Y-57479580D01*
X172242857Y-57479580D02*
X172195238Y-57527200D01*
X172195238Y-57527200D02*
X172100000Y-57574819D01*
X172100000Y-57574819D02*
X172004762Y-57574819D01*
X172004762Y-57574819D02*
X171909524Y-57527200D01*
X171909524Y-57527200D02*
X171861905Y-57479580D01*
X171861905Y-57479580D02*
X171814286Y-57384342D01*
X171814286Y-57384342D02*
X171766667Y-57193866D01*
X171766667Y-57193866D02*
X171766667Y-56955771D01*
X171766667Y-56955771D02*
X171814286Y-56765295D01*
X171814286Y-56765295D02*
X171861905Y-56670057D01*
X171861905Y-56670057D02*
X171909524Y-56622438D01*
X171909524Y-56622438D02*
X172004762Y-56574819D01*
X166433333Y-135334819D02*
X166100000Y-134858628D01*
X165861905Y-135334819D02*
X165861905Y-134334819D01*
X165861905Y-134334819D02*
X166242857Y-134334819D01*
X166242857Y-134334819D02*
X166338095Y-134382438D01*
X166338095Y-134382438D02*
X166385714Y-134430057D01*
X166385714Y-134430057D02*
X166433333Y-134525295D01*
X166433333Y-134525295D02*
X166433333Y-134668152D01*
X166433333Y-134668152D02*
X166385714Y-134763390D01*
X166385714Y-134763390D02*
X166338095Y-134811009D01*
X166338095Y-134811009D02*
X166242857Y-134858628D01*
X166242857Y-134858628D02*
X165861905Y-134858628D01*
X166766667Y-134334819D02*
X167433333Y-134334819D01*
X167433333Y-134334819D02*
X167004762Y-135334819D01*
X170304761Y-135554819D02*
X169733333Y-135554819D01*
X170019047Y-135554819D02*
X170019047Y-134554819D01*
X170019047Y-134554819D02*
X169923809Y-134697676D01*
X169923809Y-134697676D02*
X169828571Y-134792914D01*
X169828571Y-134792914D02*
X169733333Y-134840533D01*
X170923809Y-134554819D02*
X171019047Y-134554819D01*
X171019047Y-134554819D02*
X171114285Y-134602438D01*
X171114285Y-134602438D02*
X171161904Y-134650057D01*
X171161904Y-134650057D02*
X171209523Y-134745295D01*
X171209523Y-134745295D02*
X171257142Y-134935771D01*
X171257142Y-134935771D02*
X171257142Y-135173866D01*
X171257142Y-135173866D02*
X171209523Y-135364342D01*
X171209523Y-135364342D02*
X171161904Y-135459580D01*
X171161904Y-135459580D02*
X171114285Y-135507200D01*
X171114285Y-135507200D02*
X171019047Y-135554819D01*
X171019047Y-135554819D02*
X170923809Y-135554819D01*
X170923809Y-135554819D02*
X170828571Y-135507200D01*
X170828571Y-135507200D02*
X170780952Y-135459580D01*
X170780952Y-135459580D02*
X170733333Y-135364342D01*
X170733333Y-135364342D02*
X170685714Y-135173866D01*
X170685714Y-135173866D02*
X170685714Y-134935771D01*
X170685714Y-134935771D02*
X170733333Y-134745295D01*
X170733333Y-134745295D02*
X170780952Y-134650057D01*
X170780952Y-134650057D02*
X170828571Y-134602438D01*
X170828571Y-134602438D02*
X170923809Y-134554819D01*
X171685714Y-135554819D02*
X171685714Y-134554819D01*
X171780952Y-135173866D02*
X172066666Y-135554819D01*
X172066666Y-134888152D02*
X171685714Y-135269104D01*
X147453333Y-135084819D02*
X147120000Y-134608628D01*
X146881905Y-135084819D02*
X146881905Y-134084819D01*
X146881905Y-134084819D02*
X147262857Y-134084819D01*
X147262857Y-134084819D02*
X147358095Y-134132438D01*
X147358095Y-134132438D02*
X147405714Y-134180057D01*
X147405714Y-134180057D02*
X147453333Y-134275295D01*
X147453333Y-134275295D02*
X147453333Y-134418152D01*
X147453333Y-134418152D02*
X147405714Y-134513390D01*
X147405714Y-134513390D02*
X147358095Y-134561009D01*
X147358095Y-134561009D02*
X147262857Y-134608628D01*
X147262857Y-134608628D02*
X146881905Y-134608628D01*
X148310476Y-134084819D02*
X148120000Y-134084819D01*
X148120000Y-134084819D02*
X148024762Y-134132438D01*
X148024762Y-134132438D02*
X147977143Y-134180057D01*
X147977143Y-134180057D02*
X147881905Y-134322914D01*
X147881905Y-134322914D02*
X147834286Y-134513390D01*
X147834286Y-134513390D02*
X147834286Y-134894342D01*
X147834286Y-134894342D02*
X147881905Y-134989580D01*
X147881905Y-134989580D02*
X147929524Y-135037200D01*
X147929524Y-135037200D02*
X148024762Y-135084819D01*
X148024762Y-135084819D02*
X148215238Y-135084819D01*
X148215238Y-135084819D02*
X148310476Y-135037200D01*
X148310476Y-135037200D02*
X148358095Y-134989580D01*
X148358095Y-134989580D02*
X148405714Y-134894342D01*
X148405714Y-134894342D02*
X148405714Y-134656247D01*
X148405714Y-134656247D02*
X148358095Y-134561009D01*
X148358095Y-134561009D02*
X148310476Y-134513390D01*
X148310476Y-134513390D02*
X148215238Y-134465771D01*
X148215238Y-134465771D02*
X148024762Y-134465771D01*
X148024762Y-134465771D02*
X147929524Y-134513390D01*
X147929524Y-134513390D02*
X147881905Y-134561009D01*
X147881905Y-134561009D02*
X147834286Y-134656247D01*
X146071428Y-139158152D02*
X146071428Y-139824819D01*
X145833333Y-138777200D02*
X145595238Y-139491485D01*
X145595238Y-139491485D02*
X146214285Y-139491485D01*
X146595238Y-139729580D02*
X146642857Y-139777200D01*
X146642857Y-139777200D02*
X146595238Y-139824819D01*
X146595238Y-139824819D02*
X146547619Y-139777200D01*
X146547619Y-139777200D02*
X146595238Y-139729580D01*
X146595238Y-139729580D02*
X146595238Y-139824819D01*
X146976190Y-138824819D02*
X147642856Y-138824819D01*
X147642856Y-138824819D02*
X147214285Y-139824819D01*
X148023809Y-139824819D02*
X148023809Y-138824819D01*
X148119047Y-139443866D02*
X148404761Y-139824819D01*
X148404761Y-139158152D02*
X148023809Y-139539104D01*
X133203333Y-135334819D02*
X132870000Y-134858628D01*
X132631905Y-135334819D02*
X132631905Y-134334819D01*
X132631905Y-134334819D02*
X133012857Y-134334819D01*
X133012857Y-134334819D02*
X133108095Y-134382438D01*
X133108095Y-134382438D02*
X133155714Y-134430057D01*
X133155714Y-134430057D02*
X133203333Y-134525295D01*
X133203333Y-134525295D02*
X133203333Y-134668152D01*
X133203333Y-134668152D02*
X133155714Y-134763390D01*
X133155714Y-134763390D02*
X133108095Y-134811009D01*
X133108095Y-134811009D02*
X133012857Y-134858628D01*
X133012857Y-134858628D02*
X132631905Y-134858628D01*
X134108095Y-134334819D02*
X133631905Y-134334819D01*
X133631905Y-134334819D02*
X133584286Y-134811009D01*
X133584286Y-134811009D02*
X133631905Y-134763390D01*
X133631905Y-134763390D02*
X133727143Y-134715771D01*
X133727143Y-134715771D02*
X133965238Y-134715771D01*
X133965238Y-134715771D02*
X134060476Y-134763390D01*
X134060476Y-134763390D02*
X134108095Y-134811009D01*
X134108095Y-134811009D02*
X134155714Y-134906247D01*
X134155714Y-134906247D02*
X134155714Y-135144342D01*
X134155714Y-135144342D02*
X134108095Y-135239580D01*
X134108095Y-135239580D02*
X134060476Y-135287200D01*
X134060476Y-135287200D02*
X133965238Y-135334819D01*
X133965238Y-135334819D02*
X133727143Y-135334819D01*
X133727143Y-135334819D02*
X133631905Y-135287200D01*
X133631905Y-135287200D02*
X133584286Y-135239580D01*
X132441428Y-139408152D02*
X132441428Y-140074819D01*
X132203333Y-139027200D02*
X131965238Y-139741485D01*
X131965238Y-139741485D02*
X132584285Y-139741485D01*
X132965238Y-139979580D02*
X133012857Y-140027200D01*
X133012857Y-140027200D02*
X132965238Y-140074819D01*
X132965238Y-140074819D02*
X132917619Y-140027200D01*
X132917619Y-140027200D02*
X132965238Y-139979580D01*
X132965238Y-139979580D02*
X132965238Y-140074819D01*
X133346190Y-139074819D02*
X134012856Y-139074819D01*
X134012856Y-139074819D02*
X133584285Y-140074819D01*
X134393809Y-140074819D02*
X134393809Y-139074819D01*
X134489047Y-139693866D02*
X134774761Y-140074819D01*
X134774761Y-139408152D02*
X134393809Y-139789104D01*
X175733333Y-51954819D02*
X175400000Y-51478628D01*
X175161905Y-51954819D02*
X175161905Y-50954819D01*
X175161905Y-50954819D02*
X175542857Y-50954819D01*
X175542857Y-50954819D02*
X175638095Y-51002438D01*
X175638095Y-51002438D02*
X175685714Y-51050057D01*
X175685714Y-51050057D02*
X175733333Y-51145295D01*
X175733333Y-51145295D02*
X175733333Y-51288152D01*
X175733333Y-51288152D02*
X175685714Y-51383390D01*
X175685714Y-51383390D02*
X175638095Y-51431009D01*
X175638095Y-51431009D02*
X175542857Y-51478628D01*
X175542857Y-51478628D02*
X175161905Y-51478628D01*
X176590476Y-51288152D02*
X176590476Y-51954819D01*
X176352381Y-50907200D02*
X176114286Y-51621485D01*
X176114286Y-51621485D02*
X176733333Y-51621485D01*
X169724286Y-46084819D02*
X170343333Y-46084819D01*
X170343333Y-46084819D02*
X170010000Y-46465771D01*
X170010000Y-46465771D02*
X170152857Y-46465771D01*
X170152857Y-46465771D02*
X170248095Y-46513390D01*
X170248095Y-46513390D02*
X170295714Y-46561009D01*
X170295714Y-46561009D02*
X170343333Y-46656247D01*
X170343333Y-46656247D02*
X170343333Y-46894342D01*
X170343333Y-46894342D02*
X170295714Y-46989580D01*
X170295714Y-46989580D02*
X170248095Y-47037200D01*
X170248095Y-47037200D02*
X170152857Y-47084819D01*
X170152857Y-47084819D02*
X169867143Y-47084819D01*
X169867143Y-47084819D02*
X169771905Y-47037200D01*
X169771905Y-47037200D02*
X169724286Y-46989580D01*
X170676667Y-46084819D02*
X171295714Y-46084819D01*
X171295714Y-46084819D02*
X170962381Y-46465771D01*
X170962381Y-46465771D02*
X171105238Y-46465771D01*
X171105238Y-46465771D02*
X171200476Y-46513390D01*
X171200476Y-46513390D02*
X171248095Y-46561009D01*
X171248095Y-46561009D02*
X171295714Y-46656247D01*
X171295714Y-46656247D02*
X171295714Y-46894342D01*
X171295714Y-46894342D02*
X171248095Y-46989580D01*
X171248095Y-46989580D02*
X171200476Y-47037200D01*
X171200476Y-47037200D02*
X171105238Y-47084819D01*
X171105238Y-47084819D02*
X170819524Y-47084819D01*
X170819524Y-47084819D02*
X170724286Y-47037200D01*
X170724286Y-47037200D02*
X170676667Y-46989580D01*
X171914762Y-46084819D02*
X172010000Y-46084819D01*
X172010000Y-46084819D02*
X172105238Y-46132438D01*
X172105238Y-46132438D02*
X172152857Y-46180057D01*
X172152857Y-46180057D02*
X172200476Y-46275295D01*
X172200476Y-46275295D02*
X172248095Y-46465771D01*
X172248095Y-46465771D02*
X172248095Y-46703866D01*
X172248095Y-46703866D02*
X172200476Y-46894342D01*
X172200476Y-46894342D02*
X172152857Y-46989580D01*
X172152857Y-46989580D02*
X172105238Y-47037200D01*
X172105238Y-47037200D02*
X172010000Y-47084819D01*
X172010000Y-47084819D02*
X171914762Y-47084819D01*
X171914762Y-47084819D02*
X171819524Y-47037200D01*
X171819524Y-47037200D02*
X171771905Y-46989580D01*
X171771905Y-46989580D02*
X171724286Y-46894342D01*
X171724286Y-46894342D02*
X171676667Y-46703866D01*
X171676667Y-46703866D02*
X171676667Y-46465771D01*
X171676667Y-46465771D02*
X171724286Y-46275295D01*
X171724286Y-46275295D02*
X171771905Y-46180057D01*
X171771905Y-46180057D02*
X171819524Y-46132438D01*
X171819524Y-46132438D02*
X171914762Y-46084819D01*
X150764819Y-53746666D02*
X150288628Y-54079999D01*
X150764819Y-54318094D02*
X149764819Y-54318094D01*
X149764819Y-54318094D02*
X149764819Y-53937142D01*
X149764819Y-53937142D02*
X149812438Y-53841904D01*
X149812438Y-53841904D02*
X149860057Y-53794285D01*
X149860057Y-53794285D02*
X149955295Y-53746666D01*
X149955295Y-53746666D02*
X150098152Y-53746666D01*
X150098152Y-53746666D02*
X150193390Y-53794285D01*
X150193390Y-53794285D02*
X150241009Y-53841904D01*
X150241009Y-53841904D02*
X150288628Y-53937142D01*
X150288628Y-53937142D02*
X150288628Y-54318094D01*
X149764819Y-53413332D02*
X149764819Y-52794285D01*
X149764819Y-52794285D02*
X150145771Y-53127618D01*
X150145771Y-53127618D02*
X150145771Y-52984761D01*
X150145771Y-52984761D02*
X150193390Y-52889523D01*
X150193390Y-52889523D02*
X150241009Y-52841904D01*
X150241009Y-52841904D02*
X150336247Y-52794285D01*
X150336247Y-52794285D02*
X150574342Y-52794285D01*
X150574342Y-52794285D02*
X150669580Y-52841904D01*
X150669580Y-52841904D02*
X150717200Y-52889523D01*
X150717200Y-52889523D02*
X150764819Y-52984761D01*
X150764819Y-52984761D02*
X150764819Y-53270475D01*
X150764819Y-53270475D02*
X150717200Y-53365713D01*
X150717200Y-53365713D02*
X150669580Y-53413332D01*
X154504819Y-54865713D02*
X154504819Y-54246666D01*
X154504819Y-54246666D02*
X154885771Y-54579999D01*
X154885771Y-54579999D02*
X154885771Y-54437142D01*
X154885771Y-54437142D02*
X154933390Y-54341904D01*
X154933390Y-54341904D02*
X154981009Y-54294285D01*
X154981009Y-54294285D02*
X155076247Y-54246666D01*
X155076247Y-54246666D02*
X155314342Y-54246666D01*
X155314342Y-54246666D02*
X155409580Y-54294285D01*
X155409580Y-54294285D02*
X155457200Y-54341904D01*
X155457200Y-54341904D02*
X155504819Y-54437142D01*
X155504819Y-54437142D02*
X155504819Y-54722856D01*
X155504819Y-54722856D02*
X155457200Y-54818094D01*
X155457200Y-54818094D02*
X155409580Y-54865713D01*
X155504819Y-53770475D02*
X155504819Y-53579999D01*
X155504819Y-53579999D02*
X155457200Y-53484761D01*
X155457200Y-53484761D02*
X155409580Y-53437142D01*
X155409580Y-53437142D02*
X155266723Y-53341904D01*
X155266723Y-53341904D02*
X155076247Y-53294285D01*
X155076247Y-53294285D02*
X154695295Y-53294285D01*
X154695295Y-53294285D02*
X154600057Y-53341904D01*
X154600057Y-53341904D02*
X154552438Y-53389523D01*
X154552438Y-53389523D02*
X154504819Y-53484761D01*
X154504819Y-53484761D02*
X154504819Y-53675237D01*
X154504819Y-53675237D02*
X154552438Y-53770475D01*
X154552438Y-53770475D02*
X154600057Y-53818094D01*
X154600057Y-53818094D02*
X154695295Y-53865713D01*
X154695295Y-53865713D02*
X154933390Y-53865713D01*
X154933390Y-53865713D02*
X155028628Y-53818094D01*
X155028628Y-53818094D02*
X155076247Y-53770475D01*
X155076247Y-53770475D02*
X155123866Y-53675237D01*
X155123866Y-53675237D02*
X155123866Y-53484761D01*
X155123866Y-53484761D02*
X155076247Y-53389523D01*
X155076247Y-53389523D02*
X155028628Y-53341904D01*
X155028628Y-53341904D02*
X154933390Y-53294285D01*
X154504819Y-52675237D02*
X154504819Y-52579999D01*
X154504819Y-52579999D02*
X154552438Y-52484761D01*
X154552438Y-52484761D02*
X154600057Y-52437142D01*
X154600057Y-52437142D02*
X154695295Y-52389523D01*
X154695295Y-52389523D02*
X154885771Y-52341904D01*
X154885771Y-52341904D02*
X155123866Y-52341904D01*
X155123866Y-52341904D02*
X155314342Y-52389523D01*
X155314342Y-52389523D02*
X155409580Y-52437142D01*
X155409580Y-52437142D02*
X155457200Y-52484761D01*
X155457200Y-52484761D02*
X155504819Y-52579999D01*
X155504819Y-52579999D02*
X155504819Y-52675237D01*
X155504819Y-52675237D02*
X155457200Y-52770475D01*
X155457200Y-52770475D02*
X155409580Y-52818094D01*
X155409580Y-52818094D02*
X155314342Y-52865713D01*
X155314342Y-52865713D02*
X155123866Y-52913332D01*
X155123866Y-52913332D02*
X154885771Y-52913332D01*
X154885771Y-52913332D02*
X154695295Y-52865713D01*
X154695295Y-52865713D02*
X154600057Y-52818094D01*
X154600057Y-52818094D02*
X154552438Y-52770475D01*
X154552438Y-52770475D02*
X154504819Y-52675237D01*
X142733333Y-54854819D02*
X142400000Y-54378628D01*
X142161905Y-54854819D02*
X142161905Y-53854819D01*
X142161905Y-53854819D02*
X142542857Y-53854819D01*
X142542857Y-53854819D02*
X142638095Y-53902438D01*
X142638095Y-53902438D02*
X142685714Y-53950057D01*
X142685714Y-53950057D02*
X142733333Y-54045295D01*
X142733333Y-54045295D02*
X142733333Y-54188152D01*
X142733333Y-54188152D02*
X142685714Y-54283390D01*
X142685714Y-54283390D02*
X142638095Y-54331009D01*
X142638095Y-54331009D02*
X142542857Y-54378628D01*
X142542857Y-54378628D02*
X142161905Y-54378628D01*
X143114286Y-53950057D02*
X143161905Y-53902438D01*
X143161905Y-53902438D02*
X143257143Y-53854819D01*
X143257143Y-53854819D02*
X143495238Y-53854819D01*
X143495238Y-53854819D02*
X143590476Y-53902438D01*
X143590476Y-53902438D02*
X143638095Y-53950057D01*
X143638095Y-53950057D02*
X143685714Y-54045295D01*
X143685714Y-54045295D02*
X143685714Y-54140533D01*
X143685714Y-54140533D02*
X143638095Y-54283390D01*
X143638095Y-54283390D02*
X143066667Y-54854819D01*
X143066667Y-54854819D02*
X143685714Y-54854819D01*
X141861905Y-58550057D02*
X141909524Y-58502438D01*
X141909524Y-58502438D02*
X142004762Y-58454819D01*
X142004762Y-58454819D02*
X142242857Y-58454819D01*
X142242857Y-58454819D02*
X142338095Y-58502438D01*
X142338095Y-58502438D02*
X142385714Y-58550057D01*
X142385714Y-58550057D02*
X142433333Y-58645295D01*
X142433333Y-58645295D02*
X142433333Y-58740533D01*
X142433333Y-58740533D02*
X142385714Y-58883390D01*
X142385714Y-58883390D02*
X141814286Y-59454819D01*
X141814286Y-59454819D02*
X142433333Y-59454819D01*
X143290476Y-58788152D02*
X143290476Y-59454819D01*
X143052381Y-58407200D02*
X142814286Y-59121485D01*
X142814286Y-59121485D02*
X143433333Y-59121485D01*
X144004762Y-58454819D02*
X144100000Y-58454819D01*
X144100000Y-58454819D02*
X144195238Y-58502438D01*
X144195238Y-58502438D02*
X144242857Y-58550057D01*
X144242857Y-58550057D02*
X144290476Y-58645295D01*
X144290476Y-58645295D02*
X144338095Y-58835771D01*
X144338095Y-58835771D02*
X144338095Y-59073866D01*
X144338095Y-59073866D02*
X144290476Y-59264342D01*
X144290476Y-59264342D02*
X144242857Y-59359580D01*
X144242857Y-59359580D02*
X144195238Y-59407200D01*
X144195238Y-59407200D02*
X144100000Y-59454819D01*
X144100000Y-59454819D02*
X144004762Y-59454819D01*
X144004762Y-59454819D02*
X143909524Y-59407200D01*
X143909524Y-59407200D02*
X143861905Y-59359580D01*
X143861905Y-59359580D02*
X143814286Y-59264342D01*
X143814286Y-59264342D02*
X143766667Y-59073866D01*
X143766667Y-59073866D02*
X143766667Y-58835771D01*
X143766667Y-58835771D02*
X143814286Y-58645295D01*
X143814286Y-58645295D02*
X143861905Y-58550057D01*
X143861905Y-58550057D02*
X143909524Y-58502438D01*
X143909524Y-58502438D02*
X144004762Y-58454819D01*
X122513333Y-46834819D02*
X122180000Y-46358628D01*
X121941905Y-46834819D02*
X121941905Y-45834819D01*
X121941905Y-45834819D02*
X122322857Y-45834819D01*
X122322857Y-45834819D02*
X122418095Y-45882438D01*
X122418095Y-45882438D02*
X122465714Y-45930057D01*
X122465714Y-45930057D02*
X122513333Y-46025295D01*
X122513333Y-46025295D02*
X122513333Y-46168152D01*
X122513333Y-46168152D02*
X122465714Y-46263390D01*
X122465714Y-46263390D02*
X122418095Y-46311009D01*
X122418095Y-46311009D02*
X122322857Y-46358628D01*
X122322857Y-46358628D02*
X121941905Y-46358628D01*
X123465714Y-46834819D02*
X122894286Y-46834819D01*
X123180000Y-46834819D02*
X123180000Y-45834819D01*
X123180000Y-45834819D02*
X123084762Y-45977676D01*
X123084762Y-45977676D02*
X122989524Y-46072914D01*
X122989524Y-46072914D02*
X122894286Y-46120533D01*
X119754819Y-143333333D02*
X120469104Y-143333333D01*
X120469104Y-143333333D02*
X120611961Y-143380952D01*
X120611961Y-143380952D02*
X120707200Y-143476190D01*
X120707200Y-143476190D02*
X120754819Y-143619047D01*
X120754819Y-143619047D02*
X120754819Y-143714285D01*
X120183390Y-142714285D02*
X120135771Y-142809523D01*
X120135771Y-142809523D02*
X120088152Y-142857142D01*
X120088152Y-142857142D02*
X119992914Y-142904761D01*
X119992914Y-142904761D02*
X119945295Y-142904761D01*
X119945295Y-142904761D02*
X119850057Y-142857142D01*
X119850057Y-142857142D02*
X119802438Y-142809523D01*
X119802438Y-142809523D02*
X119754819Y-142714285D01*
X119754819Y-142714285D02*
X119754819Y-142523809D01*
X119754819Y-142523809D02*
X119802438Y-142428571D01*
X119802438Y-142428571D02*
X119850057Y-142380952D01*
X119850057Y-142380952D02*
X119945295Y-142333333D01*
X119945295Y-142333333D02*
X119992914Y-142333333D01*
X119992914Y-142333333D02*
X120088152Y-142380952D01*
X120088152Y-142380952D02*
X120135771Y-142428571D01*
X120135771Y-142428571D02*
X120183390Y-142523809D01*
X120183390Y-142523809D02*
X120183390Y-142714285D01*
X120183390Y-142714285D02*
X120231009Y-142809523D01*
X120231009Y-142809523D02*
X120278628Y-142857142D01*
X120278628Y-142857142D02*
X120373866Y-142904761D01*
X120373866Y-142904761D02*
X120564342Y-142904761D01*
X120564342Y-142904761D02*
X120659580Y-142857142D01*
X120659580Y-142857142D02*
X120707200Y-142809523D01*
X120707200Y-142809523D02*
X120754819Y-142714285D01*
X120754819Y-142714285D02*
X120754819Y-142523809D01*
X120754819Y-142523809D02*
X120707200Y-142428571D01*
X120707200Y-142428571D02*
X120659580Y-142380952D01*
X120659580Y-142380952D02*
X120564342Y-142333333D01*
X120564342Y-142333333D02*
X120373866Y-142333333D01*
X120373866Y-142333333D02*
X120278628Y-142380952D01*
X120278628Y-142380952D02*
X120231009Y-142428571D01*
X120231009Y-142428571D02*
X120183390Y-142523809D01*
X194593809Y-46454819D02*
X194593809Y-47169104D01*
X194593809Y-47169104D02*
X194546190Y-47311961D01*
X194546190Y-47311961D02*
X194450952Y-47407200D01*
X194450952Y-47407200D02*
X194308095Y-47454819D01*
X194308095Y-47454819D02*
X194212857Y-47454819D01*
X194974762Y-46454819D02*
X195641428Y-46454819D01*
X195641428Y-46454819D02*
X195212857Y-47454819D01*
X196308095Y-47835771D02*
X196260476Y-47788152D01*
X196260476Y-47788152D02*
X196165238Y-47645295D01*
X196165238Y-47645295D02*
X196117619Y-47550057D01*
X196117619Y-47550057D02*
X196070000Y-47407200D01*
X196070000Y-47407200D02*
X196022381Y-47169104D01*
X196022381Y-47169104D02*
X196022381Y-46978628D01*
X196022381Y-46978628D02*
X196070000Y-46740533D01*
X196070000Y-46740533D02*
X196117619Y-46597676D01*
X196117619Y-46597676D02*
X196165238Y-46502438D01*
X196165238Y-46502438D02*
X196260476Y-46359580D01*
X196260476Y-46359580D02*
X196308095Y-46311961D01*
X196689048Y-47454819D02*
X196689048Y-46454819D01*
X196689048Y-46454819D02*
X197022381Y-47169104D01*
X197022381Y-47169104D02*
X197355714Y-46454819D01*
X197355714Y-46454819D02*
X197355714Y-47454819D01*
X197831905Y-47454819D02*
X197831905Y-46454819D01*
X197831905Y-46454819D02*
X198212857Y-46454819D01*
X198212857Y-46454819D02*
X198308095Y-46502438D01*
X198308095Y-46502438D02*
X198355714Y-46550057D01*
X198355714Y-46550057D02*
X198403333Y-46645295D01*
X198403333Y-46645295D02*
X198403333Y-46788152D01*
X198403333Y-46788152D02*
X198355714Y-46883390D01*
X198355714Y-46883390D02*
X198308095Y-46931009D01*
X198308095Y-46931009D02*
X198212857Y-46978628D01*
X198212857Y-46978628D02*
X197831905Y-46978628D01*
X198831905Y-46454819D02*
X198831905Y-47264342D01*
X198831905Y-47264342D02*
X198879524Y-47359580D01*
X198879524Y-47359580D02*
X198927143Y-47407200D01*
X198927143Y-47407200D02*
X199022381Y-47454819D01*
X199022381Y-47454819D02*
X199212857Y-47454819D01*
X199212857Y-47454819D02*
X199308095Y-47407200D01*
X199308095Y-47407200D02*
X199355714Y-47359580D01*
X199355714Y-47359580D02*
X199403333Y-47264342D01*
X199403333Y-47264342D02*
X199403333Y-46454819D01*
X200308095Y-46454819D02*
X200117619Y-46454819D01*
X200117619Y-46454819D02*
X200022381Y-46502438D01*
X200022381Y-46502438D02*
X199974762Y-46550057D01*
X199974762Y-46550057D02*
X199879524Y-46692914D01*
X199879524Y-46692914D02*
X199831905Y-46883390D01*
X199831905Y-46883390D02*
X199831905Y-47264342D01*
X199831905Y-47264342D02*
X199879524Y-47359580D01*
X199879524Y-47359580D02*
X199927143Y-47407200D01*
X199927143Y-47407200D02*
X200022381Y-47454819D01*
X200022381Y-47454819D02*
X200212857Y-47454819D01*
X200212857Y-47454819D02*
X200308095Y-47407200D01*
X200308095Y-47407200D02*
X200355714Y-47359580D01*
X200355714Y-47359580D02*
X200403333Y-47264342D01*
X200403333Y-47264342D02*
X200403333Y-47026247D01*
X200403333Y-47026247D02*
X200355714Y-46931009D01*
X200355714Y-46931009D02*
X200308095Y-46883390D01*
X200308095Y-46883390D02*
X200212857Y-46835771D01*
X200212857Y-46835771D02*
X200022381Y-46835771D01*
X200022381Y-46835771D02*
X199927143Y-46883390D01*
X199927143Y-46883390D02*
X199879524Y-46931009D01*
X199879524Y-46931009D02*
X199831905Y-47026247D01*
X201022381Y-46454819D02*
X201117619Y-46454819D01*
X201117619Y-46454819D02*
X201212857Y-46502438D01*
X201212857Y-46502438D02*
X201260476Y-46550057D01*
X201260476Y-46550057D02*
X201308095Y-46645295D01*
X201308095Y-46645295D02*
X201355714Y-46835771D01*
X201355714Y-46835771D02*
X201355714Y-47073866D01*
X201355714Y-47073866D02*
X201308095Y-47264342D01*
X201308095Y-47264342D02*
X201260476Y-47359580D01*
X201260476Y-47359580D02*
X201212857Y-47407200D01*
X201212857Y-47407200D02*
X201117619Y-47454819D01*
X201117619Y-47454819D02*
X201022381Y-47454819D01*
X201022381Y-47454819D02*
X200927143Y-47407200D01*
X200927143Y-47407200D02*
X200879524Y-47359580D01*
X200879524Y-47359580D02*
X200831905Y-47264342D01*
X200831905Y-47264342D02*
X200784286Y-47073866D01*
X200784286Y-47073866D02*
X200784286Y-46835771D01*
X200784286Y-46835771D02*
X200831905Y-46645295D01*
X200831905Y-46645295D02*
X200879524Y-46550057D01*
X200879524Y-46550057D02*
X200927143Y-46502438D01*
X200927143Y-46502438D02*
X201022381Y-46454819D01*
X202260476Y-46454819D02*
X201784286Y-46454819D01*
X201784286Y-46454819D02*
X201736667Y-46931009D01*
X201736667Y-46931009D02*
X201784286Y-46883390D01*
X201784286Y-46883390D02*
X201879524Y-46835771D01*
X201879524Y-46835771D02*
X202117619Y-46835771D01*
X202117619Y-46835771D02*
X202212857Y-46883390D01*
X202212857Y-46883390D02*
X202260476Y-46931009D01*
X202260476Y-46931009D02*
X202308095Y-47026247D01*
X202308095Y-47026247D02*
X202308095Y-47264342D01*
X202308095Y-47264342D02*
X202260476Y-47359580D01*
X202260476Y-47359580D02*
X202212857Y-47407200D01*
X202212857Y-47407200D02*
X202117619Y-47454819D01*
X202117619Y-47454819D02*
X201879524Y-47454819D01*
X201879524Y-47454819D02*
X201784286Y-47407200D01*
X201784286Y-47407200D02*
X201736667Y-47359580D01*
X202927143Y-46454819D02*
X203022381Y-46454819D01*
X203022381Y-46454819D02*
X203117619Y-46502438D01*
X203117619Y-46502438D02*
X203165238Y-46550057D01*
X203165238Y-46550057D02*
X203212857Y-46645295D01*
X203212857Y-46645295D02*
X203260476Y-46835771D01*
X203260476Y-46835771D02*
X203260476Y-47073866D01*
X203260476Y-47073866D02*
X203212857Y-47264342D01*
X203212857Y-47264342D02*
X203165238Y-47359580D01*
X203165238Y-47359580D02*
X203117619Y-47407200D01*
X203117619Y-47407200D02*
X203022381Y-47454819D01*
X203022381Y-47454819D02*
X202927143Y-47454819D01*
X202927143Y-47454819D02*
X202831905Y-47407200D01*
X202831905Y-47407200D02*
X202784286Y-47359580D01*
X202784286Y-47359580D02*
X202736667Y-47264342D01*
X202736667Y-47264342D02*
X202689048Y-47073866D01*
X202689048Y-47073866D02*
X202689048Y-46835771D01*
X202689048Y-46835771D02*
X202736667Y-46645295D01*
X202736667Y-46645295D02*
X202784286Y-46550057D01*
X202784286Y-46550057D02*
X202831905Y-46502438D01*
X202831905Y-46502438D02*
X202927143Y-46454819D01*
X203593810Y-47835771D02*
X203641429Y-47788152D01*
X203641429Y-47788152D02*
X203736667Y-47645295D01*
X203736667Y-47645295D02*
X203784286Y-47550057D01*
X203784286Y-47550057D02*
X203831905Y-47407200D01*
X203831905Y-47407200D02*
X203879524Y-47169104D01*
X203879524Y-47169104D02*
X203879524Y-46978628D01*
X203879524Y-46978628D02*
X203831905Y-46740533D01*
X203831905Y-46740533D02*
X203784286Y-46597676D01*
X203784286Y-46597676D02*
X203736667Y-46502438D01*
X203736667Y-46502438D02*
X203641429Y-46359580D01*
X203641429Y-46359580D02*
X203593810Y-46311961D01*
X204879524Y-47454819D02*
X204308096Y-47454819D01*
X204593810Y-47454819D02*
X204593810Y-46454819D01*
X204593810Y-46454819D02*
X204498572Y-46597676D01*
X204498572Y-46597676D02*
X204403334Y-46692914D01*
X204403334Y-46692914D02*
X204308096Y-46740533D01*
X194674819Y-146547619D02*
X195389104Y-146547619D01*
X195389104Y-146547619D02*
X195531961Y-146595238D01*
X195531961Y-146595238D02*
X195627200Y-146690476D01*
X195627200Y-146690476D02*
X195674819Y-146833333D01*
X195674819Y-146833333D02*
X195674819Y-146928571D01*
X194674819Y-145642857D02*
X194674819Y-145833333D01*
X194674819Y-145833333D02*
X194722438Y-145928571D01*
X194722438Y-145928571D02*
X194770057Y-145976190D01*
X194770057Y-145976190D02*
X194912914Y-146071428D01*
X194912914Y-146071428D02*
X195103390Y-146119047D01*
X195103390Y-146119047D02*
X195484342Y-146119047D01*
X195484342Y-146119047D02*
X195579580Y-146071428D01*
X195579580Y-146071428D02*
X195627200Y-146023809D01*
X195627200Y-146023809D02*
X195674819Y-145928571D01*
X195674819Y-145928571D02*
X195674819Y-145738095D01*
X195674819Y-145738095D02*
X195627200Y-145642857D01*
X195627200Y-145642857D02*
X195579580Y-145595238D01*
X195579580Y-145595238D02*
X195484342Y-145547619D01*
X195484342Y-145547619D02*
X195246247Y-145547619D01*
X195246247Y-145547619D02*
X195151009Y-145595238D01*
X195151009Y-145595238D02*
X195103390Y-145642857D01*
X195103390Y-145642857D02*
X195055771Y-145738095D01*
X195055771Y-145738095D02*
X195055771Y-145928571D01*
X195055771Y-145928571D02*
X195103390Y-146023809D01*
X195103390Y-146023809D02*
X195151009Y-146071428D01*
X195151009Y-146071428D02*
X195246247Y-146119047D01*
X196055771Y-144833333D02*
X196008152Y-144880952D01*
X196008152Y-144880952D02*
X195865295Y-144976190D01*
X195865295Y-144976190D02*
X195770057Y-145023809D01*
X195770057Y-145023809D02*
X195627200Y-145071428D01*
X195627200Y-145071428D02*
X195389104Y-145119047D01*
X195389104Y-145119047D02*
X195198628Y-145119047D01*
X195198628Y-145119047D02*
X194960533Y-145071428D01*
X194960533Y-145071428D02*
X194817676Y-145023809D01*
X194817676Y-145023809D02*
X194722438Y-144976190D01*
X194722438Y-144976190D02*
X194579580Y-144880952D01*
X194579580Y-144880952D02*
X194531961Y-144833333D01*
X195674819Y-144452380D02*
X194674819Y-144452380D01*
X195151009Y-144452380D02*
X195151009Y-143880952D01*
X195674819Y-143880952D02*
X194674819Y-143880952D01*
X195579580Y-142833333D02*
X195627200Y-142880952D01*
X195627200Y-142880952D02*
X195674819Y-143023809D01*
X195674819Y-143023809D02*
X195674819Y-143119047D01*
X195674819Y-143119047D02*
X195627200Y-143261904D01*
X195627200Y-143261904D02*
X195531961Y-143357142D01*
X195531961Y-143357142D02*
X195436723Y-143404761D01*
X195436723Y-143404761D02*
X195246247Y-143452380D01*
X195246247Y-143452380D02*
X195103390Y-143452380D01*
X195103390Y-143452380D02*
X194912914Y-143404761D01*
X194912914Y-143404761D02*
X194817676Y-143357142D01*
X194817676Y-143357142D02*
X194722438Y-143261904D01*
X194722438Y-143261904D02*
X194674819Y-143119047D01*
X194674819Y-143119047D02*
X194674819Y-143023809D01*
X194674819Y-143023809D02*
X194722438Y-142880952D01*
X194722438Y-142880952D02*
X194770057Y-142833333D01*
X195627200Y-142452380D02*
X195674819Y-142309523D01*
X195674819Y-142309523D02*
X195674819Y-142071428D01*
X195674819Y-142071428D02*
X195627200Y-141976190D01*
X195627200Y-141976190D02*
X195579580Y-141928571D01*
X195579580Y-141928571D02*
X195484342Y-141880952D01*
X195484342Y-141880952D02*
X195389104Y-141880952D01*
X195389104Y-141880952D02*
X195293866Y-141928571D01*
X195293866Y-141928571D02*
X195246247Y-141976190D01*
X195246247Y-141976190D02*
X195198628Y-142071428D01*
X195198628Y-142071428D02*
X195151009Y-142261904D01*
X195151009Y-142261904D02*
X195103390Y-142357142D01*
X195103390Y-142357142D02*
X195055771Y-142404761D01*
X195055771Y-142404761D02*
X194960533Y-142452380D01*
X194960533Y-142452380D02*
X194865295Y-142452380D01*
X194865295Y-142452380D02*
X194770057Y-142404761D01*
X194770057Y-142404761D02*
X194722438Y-142357142D01*
X194722438Y-142357142D02*
X194674819Y-142261904D01*
X194674819Y-142261904D02*
X194674819Y-142023809D01*
X194674819Y-142023809D02*
X194722438Y-141880952D01*
X195674819Y-140880952D02*
X195198628Y-141214285D01*
X195674819Y-141452380D02*
X194674819Y-141452380D01*
X194674819Y-141452380D02*
X194674819Y-141071428D01*
X194674819Y-141071428D02*
X194722438Y-140976190D01*
X194722438Y-140976190D02*
X194770057Y-140928571D01*
X194770057Y-140928571D02*
X194865295Y-140880952D01*
X194865295Y-140880952D02*
X195008152Y-140880952D01*
X195008152Y-140880952D02*
X195103390Y-140928571D01*
X195103390Y-140928571D02*
X195151009Y-140976190D01*
X195151009Y-140976190D02*
X195198628Y-141071428D01*
X195198628Y-141071428D02*
X195198628Y-141452380D01*
X195293866Y-140452380D02*
X195293866Y-139690476D01*
X194674819Y-139023809D02*
X194674819Y-138928571D01*
X194674819Y-138928571D02*
X194722438Y-138833333D01*
X194722438Y-138833333D02*
X194770057Y-138785714D01*
X194770057Y-138785714D02*
X194865295Y-138738095D01*
X194865295Y-138738095D02*
X195055771Y-138690476D01*
X195055771Y-138690476D02*
X195293866Y-138690476D01*
X195293866Y-138690476D02*
X195484342Y-138738095D01*
X195484342Y-138738095D02*
X195579580Y-138785714D01*
X195579580Y-138785714D02*
X195627200Y-138833333D01*
X195627200Y-138833333D02*
X195674819Y-138928571D01*
X195674819Y-138928571D02*
X195674819Y-139023809D01*
X195674819Y-139023809D02*
X195627200Y-139119047D01*
X195627200Y-139119047D02*
X195579580Y-139166666D01*
X195579580Y-139166666D02*
X195484342Y-139214285D01*
X195484342Y-139214285D02*
X195293866Y-139261904D01*
X195293866Y-139261904D02*
X195055771Y-139261904D01*
X195055771Y-139261904D02*
X194865295Y-139214285D01*
X194865295Y-139214285D02*
X194770057Y-139166666D01*
X194770057Y-139166666D02*
X194722438Y-139119047D01*
X194722438Y-139119047D02*
X194674819Y-139023809D01*
X195008152Y-137833333D02*
X195674819Y-137833333D01*
X194627200Y-138071428D02*
X195341485Y-138309523D01*
X195341485Y-138309523D02*
X195341485Y-137690476D01*
X196055771Y-137404761D02*
X196008152Y-137357142D01*
X196008152Y-137357142D02*
X195865295Y-137261904D01*
X195865295Y-137261904D02*
X195770057Y-137214285D01*
X195770057Y-137214285D02*
X195627200Y-137166666D01*
X195627200Y-137166666D02*
X195389104Y-137119047D01*
X195389104Y-137119047D02*
X195198628Y-137119047D01*
X195198628Y-137119047D02*
X194960533Y-137166666D01*
X194960533Y-137166666D02*
X194817676Y-137214285D01*
X194817676Y-137214285D02*
X194722438Y-137261904D01*
X194722438Y-137261904D02*
X194579580Y-137357142D01*
X194579580Y-137357142D02*
X194531961Y-137404761D01*
X195674819Y-136119047D02*
X195674819Y-136690475D01*
X195674819Y-136404761D02*
X194674819Y-136404761D01*
X194674819Y-136404761D02*
X194817676Y-136499999D01*
X194817676Y-136499999D02*
X194912914Y-136595237D01*
X194912914Y-136595237D02*
X194960533Y-136690475D01*
X191514819Y-145583333D02*
X192229104Y-145583333D01*
X192229104Y-145583333D02*
X192371961Y-145630952D01*
X192371961Y-145630952D02*
X192467200Y-145726190D01*
X192467200Y-145726190D02*
X192514819Y-145869047D01*
X192514819Y-145869047D02*
X192514819Y-145964285D01*
X191514819Y-144630952D02*
X191514819Y-145107142D01*
X191514819Y-145107142D02*
X191991009Y-145154761D01*
X191991009Y-145154761D02*
X191943390Y-145107142D01*
X191943390Y-145107142D02*
X191895771Y-145011904D01*
X191895771Y-145011904D02*
X191895771Y-144773809D01*
X191895771Y-144773809D02*
X191943390Y-144678571D01*
X191943390Y-144678571D02*
X191991009Y-144630952D01*
X191991009Y-144630952D02*
X192086247Y-144583333D01*
X192086247Y-144583333D02*
X192324342Y-144583333D01*
X192324342Y-144583333D02*
X192419580Y-144630952D01*
X192419580Y-144630952D02*
X192467200Y-144678571D01*
X192467200Y-144678571D02*
X192514819Y-144773809D01*
X192514819Y-144773809D02*
X192514819Y-145011904D01*
X192514819Y-145011904D02*
X192467200Y-145107142D01*
X192467200Y-145107142D02*
X192419580Y-145154761D01*
X192895771Y-143869047D02*
X192848152Y-143916666D01*
X192848152Y-143916666D02*
X192705295Y-144011904D01*
X192705295Y-144011904D02*
X192610057Y-144059523D01*
X192610057Y-144059523D02*
X192467200Y-144107142D01*
X192467200Y-144107142D02*
X192229104Y-144154761D01*
X192229104Y-144154761D02*
X192038628Y-144154761D01*
X192038628Y-144154761D02*
X191800533Y-144107142D01*
X191800533Y-144107142D02*
X191657676Y-144059523D01*
X191657676Y-144059523D02*
X191562438Y-144011904D01*
X191562438Y-144011904D02*
X191419580Y-143916666D01*
X191419580Y-143916666D02*
X191371961Y-143869047D01*
X192514819Y-143488094D02*
X191514819Y-143488094D01*
X191514819Y-143488094D02*
X191514819Y-143249999D01*
X191514819Y-143249999D02*
X191562438Y-143107142D01*
X191562438Y-143107142D02*
X191657676Y-143011904D01*
X191657676Y-143011904D02*
X191752914Y-142964285D01*
X191752914Y-142964285D02*
X191943390Y-142916666D01*
X191943390Y-142916666D02*
X192086247Y-142916666D01*
X192086247Y-142916666D02*
X192276723Y-142964285D01*
X192276723Y-142964285D02*
X192371961Y-143011904D01*
X192371961Y-143011904D02*
X192467200Y-143107142D01*
X192467200Y-143107142D02*
X192514819Y-143249999D01*
X192514819Y-143249999D02*
X192514819Y-143488094D01*
X192514819Y-142488094D02*
X191514819Y-142488094D01*
X191991009Y-142488094D02*
X191991009Y-141916666D01*
X192514819Y-141916666D02*
X191514819Y-141916666D01*
X191514819Y-141583332D02*
X191514819Y-141011904D01*
X192514819Y-141297618D02*
X191514819Y-141297618D01*
X192514819Y-140154761D02*
X192514819Y-140726189D01*
X192514819Y-140440475D02*
X191514819Y-140440475D01*
X191514819Y-140440475D02*
X191657676Y-140535713D01*
X191657676Y-140535713D02*
X191752914Y-140630951D01*
X191752914Y-140630951D02*
X191800533Y-140726189D01*
X192514819Y-139202380D02*
X192514819Y-139773808D01*
X192514819Y-139488094D02*
X191514819Y-139488094D01*
X191514819Y-139488094D02*
X191657676Y-139583332D01*
X191657676Y-139583332D02*
X191752914Y-139678570D01*
X191752914Y-139678570D02*
X191800533Y-139773808D01*
X192895771Y-138869046D02*
X192848152Y-138821427D01*
X192848152Y-138821427D02*
X192705295Y-138726189D01*
X192705295Y-138726189D02*
X192610057Y-138678570D01*
X192610057Y-138678570D02*
X192467200Y-138630951D01*
X192467200Y-138630951D02*
X192229104Y-138583332D01*
X192229104Y-138583332D02*
X192038628Y-138583332D01*
X192038628Y-138583332D02*
X191800533Y-138630951D01*
X191800533Y-138630951D02*
X191657676Y-138678570D01*
X191657676Y-138678570D02*
X191562438Y-138726189D01*
X191562438Y-138726189D02*
X191419580Y-138821427D01*
X191419580Y-138821427D02*
X191371961Y-138869046D01*
X192514819Y-137583332D02*
X192514819Y-138154760D01*
X192514819Y-137869046D02*
X191514819Y-137869046D01*
X191514819Y-137869046D02*
X191657676Y-137964284D01*
X191657676Y-137964284D02*
X191752914Y-138059522D01*
X191752914Y-138059522D02*
X191800533Y-138154760D01*
X176654819Y-144440476D02*
X177369104Y-144440476D01*
X177369104Y-144440476D02*
X177511961Y-144488095D01*
X177511961Y-144488095D02*
X177607200Y-144583333D01*
X177607200Y-144583333D02*
X177654819Y-144726190D01*
X177654819Y-144726190D02*
X177654819Y-144821428D01*
X176988152Y-143535714D02*
X177654819Y-143535714D01*
X176607200Y-143773809D02*
X177321485Y-144011904D01*
X177321485Y-144011904D02*
X177321485Y-143392857D01*
X178035771Y-142726190D02*
X177988152Y-142773809D01*
X177988152Y-142773809D02*
X177845295Y-142869047D01*
X177845295Y-142869047D02*
X177750057Y-142916666D01*
X177750057Y-142916666D02*
X177607200Y-142964285D01*
X177607200Y-142964285D02*
X177369104Y-143011904D01*
X177369104Y-143011904D02*
X177178628Y-143011904D01*
X177178628Y-143011904D02*
X176940533Y-142964285D01*
X176940533Y-142964285D02*
X176797676Y-142916666D01*
X176797676Y-142916666D02*
X176702438Y-142869047D01*
X176702438Y-142869047D02*
X176559580Y-142773809D01*
X176559580Y-142773809D02*
X176511961Y-142726190D01*
X177607200Y-142392856D02*
X177654819Y-142249999D01*
X177654819Y-142249999D02*
X177654819Y-142011904D01*
X177654819Y-142011904D02*
X177607200Y-141916666D01*
X177607200Y-141916666D02*
X177559580Y-141869047D01*
X177559580Y-141869047D02*
X177464342Y-141821428D01*
X177464342Y-141821428D02*
X177369104Y-141821428D01*
X177369104Y-141821428D02*
X177273866Y-141869047D01*
X177273866Y-141869047D02*
X177226247Y-141916666D01*
X177226247Y-141916666D02*
X177178628Y-142011904D01*
X177178628Y-142011904D02*
X177131009Y-142202380D01*
X177131009Y-142202380D02*
X177083390Y-142297618D01*
X177083390Y-142297618D02*
X177035771Y-142345237D01*
X177035771Y-142345237D02*
X176940533Y-142392856D01*
X176940533Y-142392856D02*
X176845295Y-142392856D01*
X176845295Y-142392856D02*
X176750057Y-142345237D01*
X176750057Y-142345237D02*
X176702438Y-142297618D01*
X176702438Y-142297618D02*
X176654819Y-142202380D01*
X176654819Y-142202380D02*
X176654819Y-141964285D01*
X176654819Y-141964285D02*
X176702438Y-141821428D01*
X177654819Y-141392856D02*
X176654819Y-141392856D01*
X176654819Y-141392856D02*
X176654819Y-141011904D01*
X176654819Y-141011904D02*
X176702438Y-140916666D01*
X176702438Y-140916666D02*
X176750057Y-140869047D01*
X176750057Y-140869047D02*
X176845295Y-140821428D01*
X176845295Y-140821428D02*
X176988152Y-140821428D01*
X176988152Y-140821428D02*
X177083390Y-140869047D01*
X177083390Y-140869047D02*
X177131009Y-140916666D01*
X177131009Y-140916666D02*
X177178628Y-141011904D01*
X177178628Y-141011904D02*
X177178628Y-141392856D01*
X177654819Y-140392856D02*
X176654819Y-140392856D01*
X178035771Y-140011904D02*
X177988152Y-139964285D01*
X177988152Y-139964285D02*
X177845295Y-139869047D01*
X177845295Y-139869047D02*
X177750057Y-139821428D01*
X177750057Y-139821428D02*
X177607200Y-139773809D01*
X177607200Y-139773809D02*
X177369104Y-139726190D01*
X177369104Y-139726190D02*
X177178628Y-139726190D01*
X177178628Y-139726190D02*
X176940533Y-139773809D01*
X176940533Y-139773809D02*
X176797676Y-139821428D01*
X176797676Y-139821428D02*
X176702438Y-139869047D01*
X176702438Y-139869047D02*
X176559580Y-139964285D01*
X176559580Y-139964285D02*
X176511961Y-140011904D01*
X177654819Y-138726190D02*
X177654819Y-139297618D01*
X177654819Y-139011904D02*
X176654819Y-139011904D01*
X176654819Y-139011904D02*
X176797676Y-139107142D01*
X176797676Y-139107142D02*
X176892914Y-139202380D01*
X176892914Y-139202380D02*
X176940533Y-139297618D01*
X142134819Y-145309524D02*
X142849104Y-145309524D01*
X142849104Y-145309524D02*
X142991961Y-145357143D01*
X142991961Y-145357143D02*
X143087200Y-145452381D01*
X143087200Y-145452381D02*
X143134819Y-145595238D01*
X143134819Y-145595238D02*
X143134819Y-145690476D01*
X142134819Y-144928571D02*
X142134819Y-144309524D01*
X142134819Y-144309524D02*
X142515771Y-144642857D01*
X142515771Y-144642857D02*
X142515771Y-144500000D01*
X142515771Y-144500000D02*
X142563390Y-144404762D01*
X142563390Y-144404762D02*
X142611009Y-144357143D01*
X142611009Y-144357143D02*
X142706247Y-144309524D01*
X142706247Y-144309524D02*
X142944342Y-144309524D01*
X142944342Y-144309524D02*
X143039580Y-144357143D01*
X143039580Y-144357143D02*
X143087200Y-144404762D01*
X143087200Y-144404762D02*
X143134819Y-144500000D01*
X143134819Y-144500000D02*
X143134819Y-144785714D01*
X143134819Y-144785714D02*
X143087200Y-144880952D01*
X143087200Y-144880952D02*
X143039580Y-144928571D01*
X143515771Y-143595238D02*
X143468152Y-143642857D01*
X143468152Y-143642857D02*
X143325295Y-143738095D01*
X143325295Y-143738095D02*
X143230057Y-143785714D01*
X143230057Y-143785714D02*
X143087200Y-143833333D01*
X143087200Y-143833333D02*
X142849104Y-143880952D01*
X142849104Y-143880952D02*
X142658628Y-143880952D01*
X142658628Y-143880952D02*
X142420533Y-143833333D01*
X142420533Y-143833333D02*
X142277676Y-143785714D01*
X142277676Y-143785714D02*
X142182438Y-143738095D01*
X142182438Y-143738095D02*
X142039580Y-143642857D01*
X142039580Y-143642857D02*
X141991961Y-143595238D01*
X142134819Y-143214285D02*
X142944342Y-143214285D01*
X142944342Y-143214285D02*
X143039580Y-143166666D01*
X143039580Y-143166666D02*
X143087200Y-143119047D01*
X143087200Y-143119047D02*
X143134819Y-143023809D01*
X143134819Y-143023809D02*
X143134819Y-142833333D01*
X143134819Y-142833333D02*
X143087200Y-142738095D01*
X143087200Y-142738095D02*
X143039580Y-142690476D01*
X143039580Y-142690476D02*
X142944342Y-142642857D01*
X142944342Y-142642857D02*
X142134819Y-142642857D01*
X142849104Y-142214285D02*
X142849104Y-141738095D01*
X143134819Y-142309523D02*
X142134819Y-141976190D01*
X142134819Y-141976190D02*
X143134819Y-141642857D01*
X143134819Y-140738095D02*
X142658628Y-141071428D01*
X143134819Y-141309523D02*
X142134819Y-141309523D01*
X142134819Y-141309523D02*
X142134819Y-140928571D01*
X142134819Y-140928571D02*
X142182438Y-140833333D01*
X142182438Y-140833333D02*
X142230057Y-140785714D01*
X142230057Y-140785714D02*
X142325295Y-140738095D01*
X142325295Y-140738095D02*
X142468152Y-140738095D01*
X142468152Y-140738095D02*
X142563390Y-140785714D01*
X142563390Y-140785714D02*
X142611009Y-140833333D01*
X142611009Y-140833333D02*
X142658628Y-140928571D01*
X142658628Y-140928571D02*
X142658628Y-141309523D01*
X142134819Y-140452380D02*
X142134819Y-139880952D01*
X143134819Y-140166666D02*
X142134819Y-140166666D01*
X143515771Y-139642856D02*
X143468152Y-139595237D01*
X143468152Y-139595237D02*
X143325295Y-139499999D01*
X143325295Y-139499999D02*
X143230057Y-139452380D01*
X143230057Y-139452380D02*
X143087200Y-139404761D01*
X143087200Y-139404761D02*
X142849104Y-139357142D01*
X142849104Y-139357142D02*
X142658628Y-139357142D01*
X142658628Y-139357142D02*
X142420533Y-139404761D01*
X142420533Y-139404761D02*
X142277676Y-139452380D01*
X142277676Y-139452380D02*
X142182438Y-139499999D01*
X142182438Y-139499999D02*
X142039580Y-139595237D01*
X142039580Y-139595237D02*
X141991961Y-139642856D01*
X143134819Y-138357142D02*
X143134819Y-138928570D01*
X143134819Y-138642856D02*
X142134819Y-138642856D01*
X142134819Y-138642856D02*
X142277676Y-138738094D01*
X142277676Y-138738094D02*
X142372914Y-138833332D01*
X142372914Y-138833332D02*
X142420533Y-138928570D01*
X127134819Y-144940476D02*
X127849104Y-144940476D01*
X127849104Y-144940476D02*
X127991961Y-144988095D01*
X127991961Y-144988095D02*
X128087200Y-145083333D01*
X128087200Y-145083333D02*
X128134819Y-145226190D01*
X128134819Y-145226190D02*
X128134819Y-145321428D01*
X127230057Y-144511904D02*
X127182438Y-144464285D01*
X127182438Y-144464285D02*
X127134819Y-144369047D01*
X127134819Y-144369047D02*
X127134819Y-144130952D01*
X127134819Y-144130952D02*
X127182438Y-144035714D01*
X127182438Y-144035714D02*
X127230057Y-143988095D01*
X127230057Y-143988095D02*
X127325295Y-143940476D01*
X127325295Y-143940476D02*
X127420533Y-143940476D01*
X127420533Y-143940476D02*
X127563390Y-143988095D01*
X127563390Y-143988095D02*
X128134819Y-144559523D01*
X128134819Y-144559523D02*
X128134819Y-143940476D01*
X128515771Y-143226190D02*
X128468152Y-143273809D01*
X128468152Y-143273809D02*
X128325295Y-143369047D01*
X128325295Y-143369047D02*
X128230057Y-143416666D01*
X128230057Y-143416666D02*
X128087200Y-143464285D01*
X128087200Y-143464285D02*
X127849104Y-143511904D01*
X127849104Y-143511904D02*
X127658628Y-143511904D01*
X127658628Y-143511904D02*
X127420533Y-143464285D01*
X127420533Y-143464285D02*
X127277676Y-143416666D01*
X127277676Y-143416666D02*
X127182438Y-143369047D01*
X127182438Y-143369047D02*
X127039580Y-143273809D01*
X127039580Y-143273809D02*
X126991961Y-143226190D01*
X128134819Y-142845237D02*
X127134819Y-142845237D01*
X127230057Y-142416666D02*
X127182438Y-142369047D01*
X127182438Y-142369047D02*
X127134819Y-142273809D01*
X127134819Y-142273809D02*
X127134819Y-142035714D01*
X127134819Y-142035714D02*
X127182438Y-141940476D01*
X127182438Y-141940476D02*
X127230057Y-141892857D01*
X127230057Y-141892857D02*
X127325295Y-141845238D01*
X127325295Y-141845238D02*
X127420533Y-141845238D01*
X127420533Y-141845238D02*
X127563390Y-141892857D01*
X127563390Y-141892857D02*
X128134819Y-142464285D01*
X128134819Y-142464285D02*
X128134819Y-141845238D01*
X128039580Y-140845238D02*
X128087200Y-140892857D01*
X128087200Y-140892857D02*
X128134819Y-141035714D01*
X128134819Y-141035714D02*
X128134819Y-141130952D01*
X128134819Y-141130952D02*
X128087200Y-141273809D01*
X128087200Y-141273809D02*
X127991961Y-141369047D01*
X127991961Y-141369047D02*
X127896723Y-141416666D01*
X127896723Y-141416666D02*
X127706247Y-141464285D01*
X127706247Y-141464285D02*
X127563390Y-141464285D01*
X127563390Y-141464285D02*
X127372914Y-141416666D01*
X127372914Y-141416666D02*
X127277676Y-141369047D01*
X127277676Y-141369047D02*
X127182438Y-141273809D01*
X127182438Y-141273809D02*
X127134819Y-141130952D01*
X127134819Y-141130952D02*
X127134819Y-141035714D01*
X127134819Y-141035714D02*
X127182438Y-140892857D01*
X127182438Y-140892857D02*
X127230057Y-140845238D01*
X128515771Y-140511904D02*
X128468152Y-140464285D01*
X128468152Y-140464285D02*
X128325295Y-140369047D01*
X128325295Y-140369047D02*
X128230057Y-140321428D01*
X128230057Y-140321428D02*
X128087200Y-140273809D01*
X128087200Y-140273809D02*
X127849104Y-140226190D01*
X127849104Y-140226190D02*
X127658628Y-140226190D01*
X127658628Y-140226190D02*
X127420533Y-140273809D01*
X127420533Y-140273809D02*
X127277676Y-140321428D01*
X127277676Y-140321428D02*
X127182438Y-140369047D01*
X127182438Y-140369047D02*
X127039580Y-140464285D01*
X127039580Y-140464285D02*
X126991961Y-140511904D01*
X128134819Y-139226190D02*
X128134819Y-139797618D01*
X128134819Y-139511904D02*
X127134819Y-139511904D01*
X127134819Y-139511904D02*
X127277676Y-139607142D01*
X127277676Y-139607142D02*
X127372914Y-139702380D01*
X127372914Y-139702380D02*
X127420533Y-139797618D01*
X83846666Y-58454819D02*
X83846666Y-59169104D01*
X83846666Y-59169104D02*
X83799047Y-59311961D01*
X83799047Y-59311961D02*
X83703809Y-59407200D01*
X83703809Y-59407200D02*
X83560952Y-59454819D01*
X83560952Y-59454819D02*
X83465714Y-59454819D01*
X84846666Y-59454819D02*
X84275238Y-59454819D01*
X84560952Y-59454819D02*
X84560952Y-58454819D01*
X84560952Y-58454819D02*
X84465714Y-58597676D01*
X84465714Y-58597676D02*
X84370476Y-58692914D01*
X84370476Y-58692914D02*
X84275238Y-58740533D01*
X182421905Y-47744819D02*
X182421905Y-46744819D01*
X182421905Y-46744819D02*
X182660000Y-46744819D01*
X182660000Y-46744819D02*
X182802857Y-46792438D01*
X182802857Y-46792438D02*
X182898095Y-46887676D01*
X182898095Y-46887676D02*
X182945714Y-46982914D01*
X182945714Y-46982914D02*
X182993333Y-47173390D01*
X182993333Y-47173390D02*
X182993333Y-47316247D01*
X182993333Y-47316247D02*
X182945714Y-47506723D01*
X182945714Y-47506723D02*
X182898095Y-47601961D01*
X182898095Y-47601961D02*
X182802857Y-47697200D01*
X182802857Y-47697200D02*
X182660000Y-47744819D01*
X182660000Y-47744819D02*
X182421905Y-47744819D01*
X183850476Y-47078152D02*
X183850476Y-47744819D01*
X183612381Y-46697200D02*
X183374286Y-47411485D01*
X183374286Y-47411485D02*
X183993333Y-47411485D01*
X159921905Y-52744819D02*
X159921905Y-51744819D01*
X159921905Y-51744819D02*
X160160000Y-51744819D01*
X160160000Y-51744819D02*
X160302857Y-51792438D01*
X160302857Y-51792438D02*
X160398095Y-51887676D01*
X160398095Y-51887676D02*
X160445714Y-51982914D01*
X160445714Y-51982914D02*
X160493333Y-52173390D01*
X160493333Y-52173390D02*
X160493333Y-52316247D01*
X160493333Y-52316247D02*
X160445714Y-52506723D01*
X160445714Y-52506723D02*
X160398095Y-52601961D01*
X160398095Y-52601961D02*
X160302857Y-52697200D01*
X160302857Y-52697200D02*
X160160000Y-52744819D01*
X160160000Y-52744819D02*
X159921905Y-52744819D01*
X160826667Y-51744819D02*
X161445714Y-51744819D01*
X161445714Y-51744819D02*
X161112381Y-52125771D01*
X161112381Y-52125771D02*
X161255238Y-52125771D01*
X161255238Y-52125771D02*
X161350476Y-52173390D01*
X161350476Y-52173390D02*
X161398095Y-52221009D01*
X161398095Y-52221009D02*
X161445714Y-52316247D01*
X161445714Y-52316247D02*
X161445714Y-52554342D01*
X161445714Y-52554342D02*
X161398095Y-52649580D01*
X161398095Y-52649580D02*
X161350476Y-52697200D01*
X161350476Y-52697200D02*
X161255238Y-52744819D01*
X161255238Y-52744819D02*
X160969524Y-52744819D01*
X160969524Y-52744819D02*
X160874286Y-52697200D01*
X160874286Y-52697200D02*
X160826667Y-52649580D01*
X158779047Y-60664819D02*
X158302857Y-60664819D01*
X158302857Y-60664819D02*
X158302857Y-59664819D01*
X159112381Y-60141009D02*
X159445714Y-60141009D01*
X159588571Y-60664819D02*
X159112381Y-60664819D01*
X159112381Y-60664819D02*
X159112381Y-59664819D01*
X159112381Y-59664819D02*
X159588571Y-59664819D01*
X160017143Y-60664819D02*
X160017143Y-59664819D01*
X160017143Y-59664819D02*
X160255238Y-59664819D01*
X160255238Y-59664819D02*
X160398095Y-59712438D01*
X160398095Y-59712438D02*
X160493333Y-59807676D01*
X160493333Y-59807676D02*
X160540952Y-59902914D01*
X160540952Y-59902914D02*
X160588571Y-60093390D01*
X160588571Y-60093390D02*
X160588571Y-60236247D01*
X160588571Y-60236247D02*
X160540952Y-60426723D01*
X160540952Y-60426723D02*
X160493333Y-60521961D01*
X160493333Y-60521961D02*
X160398095Y-60617200D01*
X160398095Y-60617200D02*
X160255238Y-60664819D01*
X160255238Y-60664819D02*
X160017143Y-60664819D01*
X160779048Y-60760057D02*
X161540952Y-60760057D01*
X161683810Y-59664819D02*
X162302857Y-59664819D01*
X162302857Y-59664819D02*
X161969524Y-60045771D01*
X161969524Y-60045771D02*
X162112381Y-60045771D01*
X162112381Y-60045771D02*
X162207619Y-60093390D01*
X162207619Y-60093390D02*
X162255238Y-60141009D01*
X162255238Y-60141009D02*
X162302857Y-60236247D01*
X162302857Y-60236247D02*
X162302857Y-60474342D01*
X162302857Y-60474342D02*
X162255238Y-60569580D01*
X162255238Y-60569580D02*
X162207619Y-60617200D01*
X162207619Y-60617200D02*
X162112381Y-60664819D01*
X162112381Y-60664819D02*
X161826667Y-60664819D01*
X161826667Y-60664819D02*
X161731429Y-60617200D01*
X161731429Y-60617200D02*
X161683810Y-60569580D01*
X162636191Y-59998152D02*
X162874286Y-60664819D01*
X162874286Y-60664819D02*
X163112381Y-59998152D01*
X119671905Y-53244819D02*
X119671905Y-52244819D01*
X119671905Y-52244819D02*
X119910000Y-52244819D01*
X119910000Y-52244819D02*
X120052857Y-52292438D01*
X120052857Y-52292438D02*
X120148095Y-52387676D01*
X120148095Y-52387676D02*
X120195714Y-52482914D01*
X120195714Y-52482914D02*
X120243333Y-52673390D01*
X120243333Y-52673390D02*
X120243333Y-52816247D01*
X120243333Y-52816247D02*
X120195714Y-53006723D01*
X120195714Y-53006723D02*
X120148095Y-53101961D01*
X120148095Y-53101961D02*
X120052857Y-53197200D01*
X120052857Y-53197200D02*
X119910000Y-53244819D01*
X119910000Y-53244819D02*
X119671905Y-53244819D01*
X120624286Y-52340057D02*
X120671905Y-52292438D01*
X120671905Y-52292438D02*
X120767143Y-52244819D01*
X120767143Y-52244819D02*
X121005238Y-52244819D01*
X121005238Y-52244819D02*
X121100476Y-52292438D01*
X121100476Y-52292438D02*
X121148095Y-52340057D01*
X121148095Y-52340057D02*
X121195714Y-52435295D01*
X121195714Y-52435295D02*
X121195714Y-52530533D01*
X121195714Y-52530533D02*
X121148095Y-52673390D01*
X121148095Y-52673390D02*
X120576667Y-53244819D01*
X120576667Y-53244819D02*
X121195714Y-53244819D01*
X118529047Y-61164819D02*
X118052857Y-61164819D01*
X118052857Y-61164819D02*
X118052857Y-60164819D01*
X118862381Y-60641009D02*
X119195714Y-60641009D01*
X119338571Y-61164819D02*
X118862381Y-61164819D01*
X118862381Y-61164819D02*
X118862381Y-60164819D01*
X118862381Y-60164819D02*
X119338571Y-60164819D01*
X119767143Y-61164819D02*
X119767143Y-60164819D01*
X119767143Y-60164819D02*
X120005238Y-60164819D01*
X120005238Y-60164819D02*
X120148095Y-60212438D01*
X120148095Y-60212438D02*
X120243333Y-60307676D01*
X120243333Y-60307676D02*
X120290952Y-60402914D01*
X120290952Y-60402914D02*
X120338571Y-60593390D01*
X120338571Y-60593390D02*
X120338571Y-60736247D01*
X120338571Y-60736247D02*
X120290952Y-60926723D01*
X120290952Y-60926723D02*
X120243333Y-61021961D01*
X120243333Y-61021961D02*
X120148095Y-61117200D01*
X120148095Y-61117200D02*
X120005238Y-61164819D01*
X120005238Y-61164819D02*
X119767143Y-61164819D01*
X120529048Y-61260057D02*
X121290952Y-61260057D01*
X122005238Y-60164819D02*
X121529048Y-60164819D01*
X121529048Y-60164819D02*
X121481429Y-60641009D01*
X121481429Y-60641009D02*
X121529048Y-60593390D01*
X121529048Y-60593390D02*
X121624286Y-60545771D01*
X121624286Y-60545771D02*
X121862381Y-60545771D01*
X121862381Y-60545771D02*
X121957619Y-60593390D01*
X121957619Y-60593390D02*
X122005238Y-60641009D01*
X122005238Y-60641009D02*
X122052857Y-60736247D01*
X122052857Y-60736247D02*
X122052857Y-60974342D01*
X122052857Y-60974342D02*
X122005238Y-61069580D01*
X122005238Y-61069580D02*
X121957619Y-61117200D01*
X121957619Y-61117200D02*
X121862381Y-61164819D01*
X121862381Y-61164819D02*
X121624286Y-61164819D01*
X121624286Y-61164819D02*
X121529048Y-61117200D01*
X121529048Y-61117200D02*
X121481429Y-61069580D01*
X122386191Y-60498152D02*
X122624286Y-61164819D01*
X122624286Y-61164819D02*
X122862381Y-60498152D01*
X96414819Y-53658094D02*
X95414819Y-53658094D01*
X95414819Y-53658094D02*
X95414819Y-53419999D01*
X95414819Y-53419999D02*
X95462438Y-53277142D01*
X95462438Y-53277142D02*
X95557676Y-53181904D01*
X95557676Y-53181904D02*
X95652914Y-53134285D01*
X95652914Y-53134285D02*
X95843390Y-53086666D01*
X95843390Y-53086666D02*
X95986247Y-53086666D01*
X95986247Y-53086666D02*
X96176723Y-53134285D01*
X96176723Y-53134285D02*
X96271961Y-53181904D01*
X96271961Y-53181904D02*
X96367200Y-53277142D01*
X96367200Y-53277142D02*
X96414819Y-53419999D01*
X96414819Y-53419999D02*
X96414819Y-53658094D01*
X96414819Y-52134285D02*
X96414819Y-52705713D01*
X96414819Y-52419999D02*
X95414819Y-52419999D01*
X95414819Y-52419999D02*
X95557676Y-52515237D01*
X95557676Y-52515237D02*
X95652914Y-52610475D01*
X95652914Y-52610475D02*
X95700533Y-52705713D01*
X101054819Y-54633332D02*
X100054819Y-54633332D01*
X100054819Y-54633332D02*
X100054819Y-54395237D01*
X100054819Y-54395237D02*
X100102438Y-54252380D01*
X100102438Y-54252380D02*
X100197676Y-54157142D01*
X100197676Y-54157142D02*
X100292914Y-54109523D01*
X100292914Y-54109523D02*
X100483390Y-54061904D01*
X100483390Y-54061904D02*
X100626247Y-54061904D01*
X100626247Y-54061904D02*
X100816723Y-54109523D01*
X100816723Y-54109523D02*
X100911961Y-54157142D01*
X100911961Y-54157142D02*
X101007200Y-54252380D01*
X101007200Y-54252380D02*
X101054819Y-54395237D01*
X101054819Y-54395237D02*
X101054819Y-54633332D01*
X101054819Y-53633332D02*
X100388152Y-53633332D01*
X100054819Y-53633332D02*
X100102438Y-53680951D01*
X100102438Y-53680951D02*
X100150057Y-53633332D01*
X100150057Y-53633332D02*
X100102438Y-53585713D01*
X100102438Y-53585713D02*
X100054819Y-53633332D01*
X100054819Y-53633332D02*
X100150057Y-53633332D01*
X101054819Y-53014285D02*
X101007200Y-53109523D01*
X101007200Y-53109523D02*
X100959580Y-53157142D01*
X100959580Y-53157142D02*
X100864342Y-53204761D01*
X100864342Y-53204761D02*
X100578628Y-53204761D01*
X100578628Y-53204761D02*
X100483390Y-53157142D01*
X100483390Y-53157142D02*
X100435771Y-53109523D01*
X100435771Y-53109523D02*
X100388152Y-53014285D01*
X100388152Y-53014285D02*
X100388152Y-52871428D01*
X100388152Y-52871428D02*
X100435771Y-52776190D01*
X100435771Y-52776190D02*
X100483390Y-52728571D01*
X100483390Y-52728571D02*
X100578628Y-52680952D01*
X100578628Y-52680952D02*
X100864342Y-52680952D01*
X100864342Y-52680952D02*
X100959580Y-52728571D01*
X100959580Y-52728571D02*
X101007200Y-52776190D01*
X101007200Y-52776190D02*
X101054819Y-52871428D01*
X101054819Y-52871428D02*
X101054819Y-53014285D01*
X101054819Y-51823809D02*
X100054819Y-51823809D01*
X101007200Y-51823809D02*
X101054819Y-51919047D01*
X101054819Y-51919047D02*
X101054819Y-52109523D01*
X101054819Y-52109523D02*
X101007200Y-52204761D01*
X101007200Y-52204761D02*
X100959580Y-52252380D01*
X100959580Y-52252380D02*
X100864342Y-52299999D01*
X100864342Y-52299999D02*
X100578628Y-52299999D01*
X100578628Y-52299999D02*
X100483390Y-52252380D01*
X100483390Y-52252380D02*
X100435771Y-52204761D01*
X100435771Y-52204761D02*
X100388152Y-52109523D01*
X100388152Y-52109523D02*
X100388152Y-51919047D01*
X100388152Y-51919047D02*
X100435771Y-51823809D01*
X101007200Y-50966666D02*
X101054819Y-51061904D01*
X101054819Y-51061904D02*
X101054819Y-51252380D01*
X101054819Y-51252380D02*
X101007200Y-51347618D01*
X101007200Y-51347618D02*
X100911961Y-51395237D01*
X100911961Y-51395237D02*
X100531009Y-51395237D01*
X100531009Y-51395237D02*
X100435771Y-51347618D01*
X100435771Y-51347618D02*
X100388152Y-51252380D01*
X100388152Y-51252380D02*
X100388152Y-51061904D01*
X100388152Y-51061904D02*
X100435771Y-50966666D01*
X100435771Y-50966666D02*
X100531009Y-50919047D01*
X100531009Y-50919047D02*
X100626247Y-50919047D01*
X100626247Y-50919047D02*
X100721485Y-51395237D01*
X96784819Y-58261904D02*
X95784819Y-58261904D01*
X96784819Y-57690476D02*
X96213390Y-58119047D01*
X95784819Y-57690476D02*
X96356247Y-58261904D01*
X160013333Y-46609580D02*
X159965714Y-46657200D01*
X159965714Y-46657200D02*
X159822857Y-46704819D01*
X159822857Y-46704819D02*
X159727619Y-46704819D01*
X159727619Y-46704819D02*
X159584762Y-46657200D01*
X159584762Y-46657200D02*
X159489524Y-46561961D01*
X159489524Y-46561961D02*
X159441905Y-46466723D01*
X159441905Y-46466723D02*
X159394286Y-46276247D01*
X159394286Y-46276247D02*
X159394286Y-46133390D01*
X159394286Y-46133390D02*
X159441905Y-45942914D01*
X159441905Y-45942914D02*
X159489524Y-45847676D01*
X159489524Y-45847676D02*
X159584762Y-45752438D01*
X159584762Y-45752438D02*
X159727619Y-45704819D01*
X159727619Y-45704819D02*
X159822857Y-45704819D01*
X159822857Y-45704819D02*
X159965714Y-45752438D01*
X159965714Y-45752438D02*
X160013333Y-45800057D01*
X160346667Y-45704819D02*
X160965714Y-45704819D01*
X160965714Y-45704819D02*
X160632381Y-46085771D01*
X160632381Y-46085771D02*
X160775238Y-46085771D01*
X160775238Y-46085771D02*
X160870476Y-46133390D01*
X160870476Y-46133390D02*
X160918095Y-46181009D01*
X160918095Y-46181009D02*
X160965714Y-46276247D01*
X160965714Y-46276247D02*
X160965714Y-46514342D01*
X160965714Y-46514342D02*
X160918095Y-46609580D01*
X160918095Y-46609580D02*
X160870476Y-46657200D01*
X160870476Y-46657200D02*
X160775238Y-46704819D01*
X160775238Y-46704819D02*
X160489524Y-46704819D01*
X160489524Y-46704819D02*
X160394286Y-46657200D01*
X160394286Y-46657200D02*
X160346667Y-46609580D01*
X115039580Y-56416666D02*
X115087200Y-56464285D01*
X115087200Y-56464285D02*
X115134819Y-56607142D01*
X115134819Y-56607142D02*
X115134819Y-56702380D01*
X115134819Y-56702380D02*
X115087200Y-56845237D01*
X115087200Y-56845237D02*
X114991961Y-56940475D01*
X114991961Y-56940475D02*
X114896723Y-56988094D01*
X114896723Y-56988094D02*
X114706247Y-57035713D01*
X114706247Y-57035713D02*
X114563390Y-57035713D01*
X114563390Y-57035713D02*
X114372914Y-56988094D01*
X114372914Y-56988094D02*
X114277676Y-56940475D01*
X114277676Y-56940475D02*
X114182438Y-56845237D01*
X114182438Y-56845237D02*
X114134819Y-56702380D01*
X114134819Y-56702380D02*
X114134819Y-56607142D01*
X114134819Y-56607142D02*
X114182438Y-56464285D01*
X114182438Y-56464285D02*
X114230057Y-56416666D01*
X114230057Y-56035713D02*
X114182438Y-55988094D01*
X114182438Y-55988094D02*
X114134819Y-55892856D01*
X114134819Y-55892856D02*
X114134819Y-55654761D01*
X114134819Y-55654761D02*
X114182438Y-55559523D01*
X114182438Y-55559523D02*
X114230057Y-55511904D01*
X114230057Y-55511904D02*
X114325295Y-55464285D01*
X114325295Y-55464285D02*
X114420533Y-55464285D01*
X114420533Y-55464285D02*
X114563390Y-55511904D01*
X114563390Y-55511904D02*
X115134819Y-56083332D01*
X115134819Y-56083332D02*
X115134819Y-55464285D01*
X109134819Y-57464285D02*
X109134819Y-57369047D01*
X109134819Y-57369047D02*
X109182438Y-57273809D01*
X109182438Y-57273809D02*
X109230057Y-57226190D01*
X109230057Y-57226190D02*
X109325295Y-57178571D01*
X109325295Y-57178571D02*
X109515771Y-57130952D01*
X109515771Y-57130952D02*
X109753866Y-57130952D01*
X109753866Y-57130952D02*
X109944342Y-57178571D01*
X109944342Y-57178571D02*
X110039580Y-57226190D01*
X110039580Y-57226190D02*
X110087200Y-57273809D01*
X110087200Y-57273809D02*
X110134819Y-57369047D01*
X110134819Y-57369047D02*
X110134819Y-57464285D01*
X110134819Y-57464285D02*
X110087200Y-57559523D01*
X110087200Y-57559523D02*
X110039580Y-57607142D01*
X110039580Y-57607142D02*
X109944342Y-57654761D01*
X109944342Y-57654761D02*
X109753866Y-57702380D01*
X109753866Y-57702380D02*
X109515771Y-57702380D01*
X109515771Y-57702380D02*
X109325295Y-57654761D01*
X109325295Y-57654761D02*
X109230057Y-57607142D01*
X109230057Y-57607142D02*
X109182438Y-57559523D01*
X109182438Y-57559523D02*
X109134819Y-57464285D01*
X110039580Y-56702380D02*
X110087200Y-56654761D01*
X110087200Y-56654761D02*
X110134819Y-56702380D01*
X110134819Y-56702380D02*
X110087200Y-56749999D01*
X110087200Y-56749999D02*
X110039580Y-56702380D01*
X110039580Y-56702380D02*
X110134819Y-56702380D01*
X110134819Y-55702381D02*
X110134819Y-56273809D01*
X110134819Y-55988095D02*
X109134819Y-55988095D01*
X109134819Y-55988095D02*
X109277676Y-56083333D01*
X109277676Y-56083333D02*
X109372914Y-56178571D01*
X109372914Y-56178571D02*
X109420533Y-56273809D01*
X109468152Y-54845238D02*
X110134819Y-54845238D01*
X109468152Y-55273809D02*
X109991961Y-55273809D01*
X109991961Y-55273809D02*
X110087200Y-55226190D01*
X110087200Y-55226190D02*
X110134819Y-55130952D01*
X110134819Y-55130952D02*
X110134819Y-54988095D01*
X110134819Y-54988095D02*
X110087200Y-54892857D01*
X110087200Y-54892857D02*
X110039580Y-54845238D01*
X114263333Y-50359580D02*
X114215714Y-50407200D01*
X114215714Y-50407200D02*
X114072857Y-50454819D01*
X114072857Y-50454819D02*
X113977619Y-50454819D01*
X113977619Y-50454819D02*
X113834762Y-50407200D01*
X113834762Y-50407200D02*
X113739524Y-50311961D01*
X113739524Y-50311961D02*
X113691905Y-50216723D01*
X113691905Y-50216723D02*
X113644286Y-50026247D01*
X113644286Y-50026247D02*
X113644286Y-49883390D01*
X113644286Y-49883390D02*
X113691905Y-49692914D01*
X113691905Y-49692914D02*
X113739524Y-49597676D01*
X113739524Y-49597676D02*
X113834762Y-49502438D01*
X113834762Y-49502438D02*
X113977619Y-49454819D01*
X113977619Y-49454819D02*
X114072857Y-49454819D01*
X114072857Y-49454819D02*
X114215714Y-49502438D01*
X114215714Y-49502438D02*
X114263333Y-49550057D01*
X115215714Y-50454819D02*
X114644286Y-50454819D01*
X114930000Y-50454819D02*
X114930000Y-49454819D01*
X114930000Y-49454819D02*
X114834762Y-49597676D01*
X114834762Y-49597676D02*
X114739524Y-49692914D01*
X114739524Y-49692914D02*
X114644286Y-49740533D01*
X109884819Y-50642857D02*
X109884819Y-51214285D01*
X109884819Y-50928571D02*
X108884819Y-50928571D01*
X108884819Y-50928571D02*
X109027676Y-51023809D01*
X109027676Y-51023809D02*
X109122914Y-51119047D01*
X109122914Y-51119047D02*
X109170533Y-51214285D01*
X108884819Y-50023809D02*
X108884819Y-49928571D01*
X108884819Y-49928571D02*
X108932438Y-49833333D01*
X108932438Y-49833333D02*
X108980057Y-49785714D01*
X108980057Y-49785714D02*
X109075295Y-49738095D01*
X109075295Y-49738095D02*
X109265771Y-49690476D01*
X109265771Y-49690476D02*
X109503866Y-49690476D01*
X109503866Y-49690476D02*
X109694342Y-49738095D01*
X109694342Y-49738095D02*
X109789580Y-49785714D01*
X109789580Y-49785714D02*
X109837200Y-49833333D01*
X109837200Y-49833333D02*
X109884819Y-49928571D01*
X109884819Y-49928571D02*
X109884819Y-50023809D01*
X109884819Y-50023809D02*
X109837200Y-50119047D01*
X109837200Y-50119047D02*
X109789580Y-50166666D01*
X109789580Y-50166666D02*
X109694342Y-50214285D01*
X109694342Y-50214285D02*
X109503866Y-50261904D01*
X109503866Y-50261904D02*
X109265771Y-50261904D01*
X109265771Y-50261904D02*
X109075295Y-50214285D01*
X109075295Y-50214285D02*
X108980057Y-50166666D01*
X108980057Y-50166666D02*
X108932438Y-50119047D01*
X108932438Y-50119047D02*
X108884819Y-50023809D01*
X109218152Y-48833333D02*
X109884819Y-48833333D01*
X109218152Y-49261904D02*
X109741961Y-49261904D01*
X109741961Y-49261904D02*
X109837200Y-49214285D01*
X109837200Y-49214285D02*
X109884819Y-49119047D01*
X109884819Y-49119047D02*
X109884819Y-48976190D01*
X109884819Y-48976190D02*
X109837200Y-48880952D01*
X109837200Y-48880952D02*
X109789580Y-48833333D01*
%TO.C,SW3*%
D12*
X100275000Y-139775000D02*
X100275000Y-141275000D01*
X101525000Y-143775000D02*
X106025000Y-143775000D01*
X106025000Y-137275000D02*
X101525000Y-137275000D01*
X107275000Y-141275000D02*
X107275000Y-139775000D01*
%TO.C,SW2*%
X111930000Y-140000000D02*
X111930000Y-141500000D01*
X113180000Y-144000000D02*
X117680000Y-144000000D01*
X117680000Y-137500000D02*
X113180000Y-137500000D01*
X118930000Y-141500000D02*
X118930000Y-140000000D01*
%TO.C,U3*%
X79060000Y-133350000D02*
X211860000Y-133350000D01*
X212260000Y-121360000D02*
X212260000Y-132950000D01*
X212260000Y-121360000D02*
X213770000Y-121360000D01*
X213770000Y-121360000D02*
X213770000Y-113140000D01*
X213770000Y-113140000D02*
X212250000Y-113140000D01*
X212260000Y-95960000D02*
X212250000Y-113140000D01*
X214710000Y-95960000D02*
X212260000Y-95960000D01*
X77150000Y-88360000D02*
X77150000Y-80140000D01*
X78660000Y-88360000D02*
X78660000Y-132950000D01*
X78660000Y-88360000D02*
X77150000Y-88360000D01*
X212260000Y-81740000D02*
X214710000Y-81740000D01*
X212260000Y-81740000D02*
X212260000Y-63550000D01*
X214710000Y-81740000D02*
X214710000Y-95960000D01*
X77150000Y-80140000D02*
X78660000Y-80140000D01*
X78660000Y-80140000D02*
X78660000Y-63550000D01*
X211860000Y-63150000D02*
X79060000Y-63150000D01*
X79060000Y-133350000D02*
G75*
G02*
X78660000Y-132950000I-1J399999D01*
G01*
X212260000Y-132950000D02*
G75*
G02*
X211860000Y-133350000I-399999J-1D01*
G01*
X78660000Y-63550000D02*
G75*
G02*
X79060000Y-63150000I400000J0D01*
G01*
X211860000Y-63150000D02*
G75*
G02*
X212260000Y-63550000I0J-400000D01*
G01*
%TO.C,U2*%
X138030000Y-47490000D02*
X148250000Y-47490000D01*
X138030000Y-48870000D02*
X148250000Y-48870000D01*
X138030000Y-52110000D02*
X138030000Y-47490000D01*
X141290000Y-47490000D02*
X141290000Y-48870000D01*
X144990000Y-47490000D02*
X144990000Y-48870000D01*
X148250000Y-47490000D02*
X148250000Y-52110000D01*
X148250000Y-52110000D02*
X138030000Y-52110000D01*
%TO.C,U1*%
X102620000Y-57860000D02*
X102620000Y-47640000D01*
X104000000Y-57860000D02*
X104000000Y-47640000D01*
X107240000Y-57860000D02*
X102620000Y-57860000D01*
X102620000Y-54600000D02*
X104000000Y-54600000D01*
X102620000Y-50900000D02*
X104000000Y-50900000D01*
X102620000Y-47640000D02*
X107240000Y-47640000D01*
X107240000Y-47640000D02*
X107240000Y-57860000D01*
%TO.C,SW1*%
X125820000Y-51430000D02*
X128540000Y-51430000D01*
X128540000Y-61650000D01*
X125820000Y-61650000D01*
X125820000Y-51430000D01*
%TO.C,R8*%
X167060000Y-54750000D02*
X167830000Y-54750000D01*
X175140000Y-54750000D02*
X174370000Y-54750000D01*
X167830000Y-53380000D02*
X174370000Y-53380000D01*
X174370000Y-56120000D01*
X167830000Y-56120000D01*
X167830000Y-53380000D01*
%TO.C,R7*%
X162560000Y-137250000D02*
X163330000Y-137250000D01*
X170640000Y-137250000D02*
X169870000Y-137250000D01*
X163330000Y-135880000D02*
X169870000Y-135880000D01*
X169870000Y-138620000D01*
X163330000Y-138620000D01*
X163330000Y-135880000D01*
%TO.C,R6*%
X144350000Y-135630000D02*
X150890000Y-135630000D01*
X144350000Y-135960000D02*
X144350000Y-135630000D01*
X144350000Y-138040000D02*
X144350000Y-138370000D01*
X144350000Y-138370000D02*
X150890000Y-138370000D01*
X150890000Y-135630000D02*
X150890000Y-135960000D01*
X150890000Y-138370000D02*
X150890000Y-138040000D01*
%TO.C,R5*%
X130100000Y-135880000D02*
X136640000Y-135880000D01*
X130100000Y-136210000D02*
X130100000Y-135880000D01*
X130100000Y-138290000D02*
X130100000Y-138620000D01*
X130100000Y-138620000D02*
X136640000Y-138620000D01*
X136640000Y-135880000D02*
X136640000Y-136210000D01*
X136640000Y-138620000D02*
X136640000Y-138290000D01*
%TO.C,R4*%
X175050000Y-49000000D02*
X174280000Y-49000000D01*
X166970000Y-49000000D02*
X167740000Y-49000000D01*
X167740000Y-47630000D02*
X174280000Y-47630000D01*
X174280000Y-50370000D01*
X167740000Y-50370000D01*
X167740000Y-47630000D01*
%TO.C,R3*%
X152680000Y-57620000D02*
X152680000Y-56850000D01*
X152680000Y-49540000D02*
X152680000Y-50310000D01*
X151310000Y-50310000D02*
X154050000Y-50310000D01*
X154050000Y-56850000D01*
X151310000Y-56850000D01*
X151310000Y-50310000D01*
%TO.C,R2*%
X147050000Y-56750000D02*
X146280000Y-56750000D01*
X138970000Y-56750000D02*
X139740000Y-56750000D01*
X139740000Y-55380000D02*
X146280000Y-55380000D01*
X146280000Y-58120000D01*
X139740000Y-58120000D01*
X139740000Y-55380000D01*
%TO.C,R1*%
X118640000Y-48750000D02*
X119410000Y-48750000D01*
X126720000Y-48750000D02*
X125950000Y-48750000D01*
X119410000Y-47380000D02*
X125950000Y-47380000D01*
X125950000Y-50120000D01*
X119410000Y-50120000D01*
X119410000Y-47380000D01*
%TO.C,J8*%
X121300000Y-144380000D02*
X121300000Y-143000000D01*
X122680000Y-144380000D02*
X121300000Y-144380000D01*
X123950000Y-144380000D02*
X124060000Y-144380000D01*
X123950000Y-144380000D02*
X123950000Y-141620000D01*
X124060000Y-144380000D02*
X124060000Y-141620000D01*
X123950000Y-141620000D02*
X124060000Y-141620000D01*
%TO.C,J7(MPU6050)1*%
X187770000Y-47790000D02*
X190180000Y-47790000D01*
X187770000Y-50200000D02*
X187770000Y-47790000D01*
X188070000Y-48090000D02*
X188070000Y-50620000D01*
X188070000Y-50620000D02*
X188200000Y-50620000D01*
X188070000Y-52430000D02*
X188070000Y-53410000D01*
X188070000Y-53410000D02*
X195650000Y-53410000D01*
X188200000Y-50620000D02*
X188200000Y-52430000D01*
X188200000Y-52430000D02*
X188070000Y-52430000D01*
X195650000Y-53410000D02*
X195650000Y-54910000D01*
X195650000Y-54910000D02*
X203490000Y-54910000D01*
X203490000Y-53410000D02*
X211070000Y-53410000D01*
X203490000Y-54910000D02*
X203490000Y-53410000D01*
X210940000Y-50620000D02*
X211070000Y-50620000D01*
X210940000Y-52430000D02*
X210940000Y-50620000D01*
X211070000Y-48090000D02*
X188070000Y-48090000D01*
X211070000Y-50620000D02*
X211070000Y-48090000D01*
X211070000Y-52430000D02*
X210940000Y-52430000D01*
X211070000Y-53410000D02*
X211070000Y-52430000D01*
%TO.C,J6(HCSR-04)1*%
X196220000Y-142880000D02*
X196220000Y-141500000D01*
X197600000Y-142880000D02*
X196220000Y-142880000D01*
X198870000Y-142880000D02*
X206600000Y-142880000D01*
X198870000Y-142880000D02*
X198870000Y-140120000D01*
X206600000Y-142880000D02*
X206600000Y-140120000D01*
X198870000Y-140120000D02*
X206600000Y-140120000D01*
%TO.C,J5(DHT11)1*%
X191060000Y-140370000D02*
X191060000Y-141750000D01*
X189680000Y-140370000D02*
X191060000Y-140370000D01*
X188410000Y-140370000D02*
X180680000Y-140370000D01*
X188410000Y-140370000D02*
X188410000Y-143130000D01*
X180680000Y-140370000D02*
X180680000Y-143130000D01*
X188410000Y-143130000D02*
X180680000Y-143130000D01*
%TO.C,J4(SPI)1*%
X173160000Y-140420000D02*
X160400000Y-140420000D01*
X173160000Y-140420000D02*
X173160000Y-143080000D01*
X160400000Y-140420000D02*
X160400000Y-143080000D01*
X175760000Y-141750000D02*
X175760000Y-143080000D01*
X175760000Y-143080000D02*
X174430000Y-143080000D01*
X173160000Y-143080000D02*
X160400000Y-143080000D01*
%TO.C,J3(UART)1*%
X143680000Y-143380000D02*
X143680000Y-142000000D01*
X145060000Y-143380000D02*
X143680000Y-143380000D01*
X146330000Y-143380000D02*
X154060000Y-143380000D01*
X146330000Y-143380000D02*
X146330000Y-140620000D01*
X154060000Y-143380000D02*
X154060000Y-140620000D01*
X146330000Y-140620000D02*
X154060000Y-140620000D01*
%TO.C,J2(I2C)1*%
X128680000Y-143630000D02*
X128680000Y-142250000D01*
X130060000Y-143630000D02*
X128680000Y-143630000D01*
X131330000Y-143630000D02*
X139060000Y-143630000D01*
X131330000Y-143630000D02*
X131330000Y-140870000D01*
X139060000Y-143630000D02*
X139060000Y-140870000D01*
X131330000Y-140870000D02*
X139060000Y-140870000D01*
%TO.C,J1*%
X93670000Y-48410000D02*
X93670000Y-50150000D01*
X91930000Y-48410000D02*
X93670000Y-48410000D01*
X93430000Y-48650000D02*
X93430000Y-51450000D01*
X78830000Y-48650000D02*
X93430000Y-48650000D01*
X93430000Y-55050000D02*
X93430000Y-57850000D01*
X93430000Y-57850000D02*
X91430000Y-57850000D01*
X87830000Y-57850000D02*
X78830000Y-57850000D01*
X78830000Y-57850000D02*
X78830000Y-48650000D01*
%TO.C,D4*%
X180600000Y-49705000D02*
X180600000Y-52795000D01*
X180600000Y-49705170D02*
G75*
G02*
X186150000Y-51250000I2560000J-1544830D01*
G01*
X186150000Y-51250000D02*
G75*
G02*
X180600000Y-52794830I-2990000J0D01*
G01*
X185660000Y-51250000D02*
G75*
G02*
X180660000Y-51250000I-2500000J0D01*
G01*
X180660000Y-51250000D02*
G75*
G02*
X185660000Y-51250000I2500000J0D01*
G01*
%TO.C,D3*%
X158100000Y-54705000D02*
X158100000Y-57795000D01*
X158100000Y-54705170D02*
G75*
G02*
X163650000Y-56250000I2560000J-1544830D01*
G01*
X163650000Y-56250000D02*
G75*
G02*
X158100000Y-57794830I-2990000J0D01*
G01*
X163160000Y-56250000D02*
G75*
G02*
X158160000Y-56250000I-2500000J0D01*
G01*
X158160000Y-56250000D02*
G75*
G02*
X163160000Y-56250000I2500000J0D01*
G01*
%TO.C,D2*%
X117850000Y-55205000D02*
X117850000Y-58295000D01*
X117850000Y-55205170D02*
G75*
G02*
X123400000Y-56750000I2560000J-1544830D01*
G01*
X123400000Y-56750000D02*
G75*
G02*
X117850000Y-58294830I-2990000J0D01*
G01*
X122910000Y-56750000D02*
G75*
G02*
X117910000Y-56750000I-2500000J0D01*
G01*
X117910000Y-56750000D02*
G75*
G02*
X122910000Y-56750000I2500000J0D01*
G01*
%TO.C,D1*%
X98430000Y-56660000D02*
X98430000Y-55640000D01*
X96960000Y-54860000D02*
X99900000Y-54860000D01*
X96960000Y-54740000D02*
X99900000Y-54740000D01*
X96960000Y-54620000D02*
X99900000Y-54620000D01*
X98430000Y-49180000D02*
X98430000Y-50200000D01*
X96960000Y-50200000D02*
X99900000Y-50200000D01*
X99900000Y-55640000D01*
X96960000Y-55640000D01*
X96960000Y-50200000D01*
%TO.C,C3*%
X157560000Y-47380000D02*
X162800000Y-47380000D01*
X157560000Y-50120000D02*
X157560000Y-47380000D01*
X162800000Y-47380000D02*
X162800000Y-50120000D01*
X162800000Y-50120000D02*
X157560000Y-50120000D01*
%TO.C,C2*%
X113550000Y-53630000D02*
X113550000Y-58870000D01*
X110810000Y-53630000D02*
X113550000Y-53630000D01*
X113550000Y-58870000D02*
X110810000Y-58870000D01*
X110810000Y-58870000D02*
X110810000Y-53630000D01*
%TO.C,C1*%
X113300000Y-47380000D02*
X113300000Y-52620000D01*
X110560000Y-47380000D02*
X113300000Y-47380000D01*
X113300000Y-52620000D02*
X110560000Y-52620000D01*
X110560000Y-52620000D02*
X110560000Y-47380000D01*
%TD*%
M02*
