%TF.GenerationSoftware,KiCad,Pcbnew,10.0.3*%
%TF.CreationDate,2026-06-14T13:53:10+05:30*%
%TF.ProjectId,STM32_Sensor_Expansion_Board,53544d33-325f-4536-956e-736f725f4578,rev?*%
%TF.SameCoordinates,Original*%
%TF.FileFunction,Soldermask,Top*%
%TF.FilePolarity,Negative*%
%FSLAX46Y46*%
G04 Gerber Fmt 4.6, Leading zero omitted, Abs format (unit mm)*
G04 Created by KiCad (PCBNEW 10.0.3) date 2026-06-14 13:53:10*
%MOMM*%
%LPD*%
G01*
G04 APERTURE LIST*
G04 Aperture macros list*
%AMRoundRect*
0 Rectangle with rounded corners*
0 $1 Rounding radius*
0 $2 $3 $4 $5 $6 $7 $8 $9 X,Y pos of 4 corners*
0 Add a 4 corners polygon primitive as box body*
4,1,4,$2,$3,$4,$5,$6,$7,$8,$9,$2,$3,0*
0 Add four circle primitives for the rounded corners*
1,1,$1+$1,$2,$3*
1,1,$1+$1,$4,$5*
1,1,$1+$1,$6,$7*
1,1,$1+$1,$8,$9*
0 Add four rect primitives between the rounded corners*
20,1,$1+$1,$2,$3,$4,$5,0*
20,1,$1+$1,$4,$5,$6,$7,0*
20,1,$1+$1,$6,$7,$8,$9,0*
20,1,$1+$1,$8,$9,$2,$3,0*%
G04 Aperture macros list end*
%ADD10C,2.000000*%
%ADD11C,1.700000*%
%ADD12R,1.905000X2.000000*%
%ADD13O,1.905000X2.000000*%
%ADD14R,2.000000X1.905000*%
%ADD15O,2.000000X1.905000*%
%ADD16R,1.500000X1.500000*%
%ADD17C,1.600000*%
%ADD18R,1.700000X1.700000*%
%ADD19RoundRect,0.250000X-0.620000X-0.620000X0.620000X-0.620000X0.620000X0.620000X-0.620000X0.620000X0*%
%ADD20C,1.740000*%
%ADD21R,2.600000X2.600000*%
%ADD22C,2.600000*%
%ADD23R,1.800000X1.800000*%
%ADD24C,1.800000*%
%ADD25RoundRect,0.249999X0.850001X-0.850001X0.850001X0.850001X-0.850001X0.850001X-0.850001X-0.850001X0*%
%ADD26C,2.200000*%
G04 APERTURE END LIST*
D10*
%TO.C,SW3*%
X100525000Y-138275000D03*
X107025000Y-138275000D03*
X100525000Y-142775000D03*
X107025000Y-142775000D03*
%TD*%
%TO.C,SW2*%
X112180000Y-138500000D03*
X118680000Y-138500000D03*
X112180000Y-143000000D03*
X118680000Y-143000000D03*
%TD*%
D11*
%TO.C,U3*%
X110500000Y-130000000D03*
X110500000Y-127460000D03*
X113040000Y-130000000D03*
X113040000Y-127460000D03*
X115580000Y-130000000D03*
X115580000Y-127460000D03*
X118120000Y-130000000D03*
X118120000Y-127460000D03*
X120660000Y-130000000D03*
X120660000Y-127460000D03*
X123200000Y-130000000D03*
X123200000Y-127460000D03*
X125740000Y-130000000D03*
X125740000Y-127460000D03*
X128280000Y-130000000D03*
X128280000Y-127460000D03*
X130820000Y-130000000D03*
X130820000Y-127460000D03*
X133360000Y-130000000D03*
X133360000Y-127460000D03*
X135900000Y-130000000D03*
X135900000Y-127460000D03*
X138440000Y-130000000D03*
X138440000Y-127460000D03*
X140980000Y-130000000D03*
X140980000Y-127460000D03*
X143520000Y-130000000D03*
X143520000Y-127460000D03*
X146060000Y-130000000D03*
X146060000Y-127460000D03*
X148600000Y-130000000D03*
X148600000Y-127460000D03*
X151140000Y-130000000D03*
X151140000Y-127460000D03*
X153680000Y-130000000D03*
X153680000Y-127460000D03*
X156220000Y-130000000D03*
X156220000Y-127460000D03*
X158760000Y-130000000D03*
X158760000Y-127460000D03*
X161300000Y-130000000D03*
X161300000Y-127460000D03*
X163840000Y-130000000D03*
X163840000Y-127460000D03*
X166380000Y-130000000D03*
X166380000Y-127460000D03*
X168920000Y-130000000D03*
X168920000Y-127460000D03*
X171460000Y-130000000D03*
X171460000Y-127460000D03*
X174000000Y-130000000D03*
X174000000Y-127460000D03*
X176540000Y-130000000D03*
X176540000Y-127460000D03*
X179080000Y-130000000D03*
X179080000Y-127460000D03*
X181620000Y-130000000D03*
X181620000Y-127460000D03*
X184160000Y-130000000D03*
X184160000Y-127460000D03*
X186700000Y-130000000D03*
X186700000Y-127460000D03*
X189240000Y-130000000D03*
X189240000Y-127460000D03*
X191780000Y-130000000D03*
X191780000Y-127460000D03*
X194320000Y-130000000D03*
X194320000Y-127460000D03*
X196860000Y-130000000D03*
X196860000Y-127460000D03*
X199400000Y-130000000D03*
X199400000Y-127460000D03*
X110500000Y-69040000D03*
X110500000Y-66500000D03*
X113040000Y-69040000D03*
X113040000Y-66500000D03*
X115580000Y-69040000D03*
X115580000Y-66500000D03*
X118120000Y-69040000D03*
X118120000Y-66500000D03*
X120660000Y-69040000D03*
X120660000Y-66500000D03*
X123200000Y-69040000D03*
X123200000Y-66500000D03*
X125740000Y-69040000D03*
X125740000Y-66500000D03*
X128280000Y-69040000D03*
X128280000Y-66500000D03*
X130820000Y-69040000D03*
X130820000Y-66500000D03*
X133360000Y-69040000D03*
X133360000Y-66500000D03*
X135900000Y-69040000D03*
X135900000Y-66500000D03*
X138440000Y-69040000D03*
X138440000Y-66500000D03*
X140980000Y-69040000D03*
X140980000Y-66500000D03*
X143520000Y-69040000D03*
X143520000Y-66500000D03*
X146060000Y-69040000D03*
X146060000Y-66500000D03*
X148600000Y-69040000D03*
X148600000Y-66500000D03*
X151140000Y-69040000D03*
X151140000Y-66500000D03*
X153680000Y-69040000D03*
X153680000Y-66500000D03*
X156220000Y-69040000D03*
X156220000Y-66500000D03*
X158760000Y-69040000D03*
X158760000Y-66500000D03*
X161300000Y-69040000D03*
X161300000Y-66500000D03*
X163840000Y-69040000D03*
X163840000Y-66500000D03*
X166380000Y-69040000D03*
X166380000Y-66500000D03*
X168920000Y-69040000D03*
X168920000Y-66500000D03*
X171460000Y-69040000D03*
X171460000Y-66500000D03*
X174000000Y-69040000D03*
X174000000Y-66500000D03*
X176540000Y-69040000D03*
X176540000Y-66500000D03*
X179080000Y-69040000D03*
X179080000Y-66500000D03*
X181620000Y-69040000D03*
X181620000Y-66500000D03*
X184160000Y-69040000D03*
X184160000Y-66500000D03*
X186700000Y-69040000D03*
X186700000Y-66500000D03*
X189240000Y-69040000D03*
X189240000Y-66500000D03*
X191780000Y-69040000D03*
X191780000Y-66500000D03*
X194320000Y-69040000D03*
X194320000Y-66500000D03*
X196860000Y-69040000D03*
X196860000Y-66500000D03*
X199400000Y-69040000D03*
X199400000Y-66500000D03*
X82560000Y-130000000D03*
X85100000Y-130000000D03*
X82560000Y-66500000D03*
X85100000Y-66500000D03*
%TD*%
D12*
%TO.C,U2*%
X140600000Y-50750000D03*
D13*
X143140000Y-50750000D03*
X145680000Y-50750000D03*
%TD*%
D14*
%TO.C,U1*%
X105880000Y-55290000D03*
D15*
X105880000Y-52750000D03*
X105880000Y-50210000D03*
%TD*%
D16*
%TO.C,SW1*%
X127180000Y-56540000D03*
D17*
X127180000Y-59080000D03*
X127180000Y-54000000D03*
%TD*%
%TO.C,R8*%
X166020000Y-54750000D03*
X176180000Y-54750000D03*
%TD*%
%TO.C,R7*%
X161520000Y-137250000D03*
X171680000Y-137250000D03*
%TD*%
%TO.C,R6*%
X143810000Y-137000000D03*
X151430000Y-137000000D03*
%TD*%
%TO.C,R5*%
X129560000Y-137250000D03*
X137180000Y-137250000D03*
%TD*%
%TO.C,R4*%
X176090000Y-49000000D03*
X165930000Y-49000000D03*
%TD*%
%TO.C,R3*%
X152680000Y-58660000D03*
X152680000Y-48500000D03*
%TD*%
%TO.C,R2*%
X148090000Y-56750000D03*
X137930000Y-56750000D03*
%TD*%
%TO.C,R1*%
X117600000Y-48750000D03*
X127760000Y-48750000D03*
%TD*%
D18*
%TO.C,J8*%
X122680000Y-143000000D03*
%TD*%
D19*
%TO.C,J7(MPU6050)1*%
X190680000Y-50750000D03*
D20*
X193220000Y-50750000D03*
X195760000Y-50750000D03*
X198300000Y-50750000D03*
X200840000Y-50750000D03*
X203380000Y-50750000D03*
X205920000Y-50750000D03*
X208460000Y-50750000D03*
%TD*%
D18*
%TO.C,J6(HCSR-04)1*%
X197600000Y-141500000D03*
D11*
X200140000Y-141500000D03*
X202680000Y-141500000D03*
X205220000Y-141500000D03*
%TD*%
D18*
%TO.C,J5(DHT11)1*%
X189680000Y-141750000D03*
D11*
X187140000Y-141750000D03*
X184600000Y-141750000D03*
X182060000Y-141750000D03*
%TD*%
D18*
%TO.C,J4(SPI)1*%
X174430000Y-141750000D03*
D11*
X171890000Y-141750000D03*
X169350000Y-141750000D03*
X166810000Y-141750000D03*
X164270000Y-141750000D03*
X161730000Y-141750000D03*
%TD*%
D18*
%TO.C,J3(UART)1*%
X145060000Y-142000000D03*
D11*
X147600000Y-142000000D03*
X150140000Y-142000000D03*
X152680000Y-142000000D03*
%TD*%
D18*
%TO.C,J2(I2C)1*%
X130060000Y-142250000D03*
D11*
X132600000Y-142250000D03*
X135140000Y-142250000D03*
X137680000Y-142250000D03*
%TD*%
D21*
%TO.C,J1*%
X92630000Y-53250000D03*
D22*
X86630000Y-53250000D03*
X89630000Y-57950000D03*
%TD*%
D23*
%TO.C,D4*%
X181890000Y-51250000D03*
D24*
X184430000Y-51250000D03*
%TD*%
D23*
%TO.C,D3*%
X159390000Y-56250000D03*
D24*
X161930000Y-56250000D03*
%TD*%
D23*
%TO.C,D2*%
X119140000Y-56750000D03*
D24*
X121680000Y-56750000D03*
%TD*%
D25*
%TO.C,D1*%
X98430000Y-58000000D03*
D26*
X98430000Y-47840000D03*
%TD*%
D17*
%TO.C,C3*%
X158930000Y-48750000D03*
X161430000Y-48750000D03*
%TD*%
%TO.C,C2*%
X112180000Y-55000000D03*
X112180000Y-57500000D03*
%TD*%
%TO.C,C1*%
X111930000Y-48750000D03*
X111930000Y-51250000D03*
%TD*%
M02*
