%TF.GenerationSoftware,KiCad,Pcbnew,10.0.3*%
%TF.CreationDate,2026-06-25T13:31:27+05:30*%
%TF.ProjectId,Tiny_Solar_Power_Supply,54696e79-5f53-46f6-9c61-725f506f7765,rev?*%
%TF.SameCoordinates,Original*%
%TF.FileFunction,Legend,Top*%
%TF.FilePolarity,Positive*%
%FSLAX46Y46*%
G04 Gerber Fmt 4.6, Leading zero omitted, Abs format (unit mm)*
G04 Created by KiCad (PCBNEW 10.0.3) date 2026-06-25 13:31:27*
%MOMM*%
%LPD*%
G01*
G04 APERTURE LIST*
%ADD10C,0.100000*%
%ADD11C,0.150000*%
%ADD12C,0.120000*%
%ADD13C,0.152400*%
G04 APERTURE END LIST*
D10*
X146688884Y-89216466D02*
X147450789Y-89216466D01*
X137303884Y-89191466D02*
X138065789Y-89191466D01*
X138303884Y-88691466D02*
X139065789Y-88691466D01*
X138684836Y-89072419D02*
X138684836Y-88310514D01*
X129203884Y-88791466D02*
X129965789Y-88791466D01*
X129584836Y-89172419D02*
X129584836Y-88410514D01*
X135933333Y-97964895D02*
X135933333Y-98536323D01*
X135933333Y-98536323D02*
X135895238Y-98650609D01*
X135895238Y-98650609D02*
X135819047Y-98726800D01*
X135819047Y-98726800D02*
X135704762Y-98764895D01*
X135704762Y-98764895D02*
X135628571Y-98764895D01*
X136238095Y-97964895D02*
X136733333Y-97964895D01*
X136733333Y-97964895D02*
X136466667Y-98269657D01*
X136466667Y-98269657D02*
X136580952Y-98269657D01*
X136580952Y-98269657D02*
X136657143Y-98307752D01*
X136657143Y-98307752D02*
X136695238Y-98345847D01*
X136695238Y-98345847D02*
X136733333Y-98422038D01*
X136733333Y-98422038D02*
X136733333Y-98612514D01*
X136733333Y-98612514D02*
X136695238Y-98688704D01*
X136695238Y-98688704D02*
X136657143Y-98726800D01*
X136657143Y-98726800D02*
X136580952Y-98764895D01*
X136580952Y-98764895D02*
X136352381Y-98764895D01*
X136352381Y-98764895D02*
X136276190Y-98726800D01*
X136276190Y-98726800D02*
X136238095Y-98688704D01*
X156683333Y-94454895D02*
X156683333Y-95026323D01*
X156683333Y-95026323D02*
X156645238Y-95140609D01*
X156645238Y-95140609D02*
X156569047Y-95216800D01*
X156569047Y-95216800D02*
X156454762Y-95254895D01*
X156454762Y-95254895D02*
X156378571Y-95254895D01*
X157483333Y-95254895D02*
X157026190Y-95254895D01*
X157254762Y-95254895D02*
X157254762Y-94454895D01*
X157254762Y-94454895D02*
X157178571Y-94569180D01*
X157178571Y-94569180D02*
X157102381Y-94645371D01*
X157102381Y-94645371D02*
X157026190Y-94683466D01*
X151135104Y-91306666D02*
X151135104Y-90925714D01*
X151135104Y-90925714D02*
X151935104Y-90925714D01*
X151135104Y-91992380D02*
X151135104Y-91535237D01*
X151135104Y-91763809D02*
X151935104Y-91763809D01*
X151935104Y-91763809D02*
X151820819Y-91687618D01*
X151820819Y-91687618D02*
X151744628Y-91611428D01*
X151744628Y-91611428D02*
X151706533Y-91535237D01*
X154266667Y-102713704D02*
X154228571Y-102751800D01*
X154228571Y-102751800D02*
X154114286Y-102789895D01*
X154114286Y-102789895D02*
X154038095Y-102789895D01*
X154038095Y-102789895D02*
X153923809Y-102751800D01*
X153923809Y-102751800D02*
X153847619Y-102675609D01*
X153847619Y-102675609D02*
X153809524Y-102599419D01*
X153809524Y-102599419D02*
X153771428Y-102447038D01*
X153771428Y-102447038D02*
X153771428Y-102332752D01*
X153771428Y-102332752D02*
X153809524Y-102180371D01*
X153809524Y-102180371D02*
X153847619Y-102104180D01*
X153847619Y-102104180D02*
X153923809Y-102027990D01*
X153923809Y-102027990D02*
X154038095Y-101989895D01*
X154038095Y-101989895D02*
X154114286Y-101989895D01*
X154114286Y-101989895D02*
X154228571Y-102027990D01*
X154228571Y-102027990D02*
X154266667Y-102066085D01*
X155028571Y-102789895D02*
X154571428Y-102789895D01*
X154800000Y-102789895D02*
X154800000Y-101989895D01*
X154800000Y-101989895D02*
X154723809Y-102104180D01*
X154723809Y-102104180D02*
X154647619Y-102180371D01*
X154647619Y-102180371D02*
X154571428Y-102218466D01*
X149866667Y-98664895D02*
X149600000Y-98283942D01*
X149409524Y-98664895D02*
X149409524Y-97864895D01*
X149409524Y-97864895D02*
X149714286Y-97864895D01*
X149714286Y-97864895D02*
X149790476Y-97902990D01*
X149790476Y-97902990D02*
X149828571Y-97941085D01*
X149828571Y-97941085D02*
X149866667Y-98017276D01*
X149866667Y-98017276D02*
X149866667Y-98131561D01*
X149866667Y-98131561D02*
X149828571Y-98207752D01*
X149828571Y-98207752D02*
X149790476Y-98245847D01*
X149790476Y-98245847D02*
X149714286Y-98283942D01*
X149714286Y-98283942D02*
X149409524Y-98283942D01*
X150171428Y-97941085D02*
X150209524Y-97902990D01*
X150209524Y-97902990D02*
X150285714Y-97864895D01*
X150285714Y-97864895D02*
X150476190Y-97864895D01*
X150476190Y-97864895D02*
X150552381Y-97902990D01*
X150552381Y-97902990D02*
X150590476Y-97941085D01*
X150590476Y-97941085D02*
X150628571Y-98017276D01*
X150628571Y-98017276D02*
X150628571Y-98093466D01*
X150628571Y-98093466D02*
X150590476Y-98207752D01*
X150590476Y-98207752D02*
X150133333Y-98664895D01*
X150133333Y-98664895D02*
X150628571Y-98664895D01*
X144221667Y-98518704D02*
X144183571Y-98556800D01*
X144183571Y-98556800D02*
X144069286Y-98594895D01*
X144069286Y-98594895D02*
X143993095Y-98594895D01*
X143993095Y-98594895D02*
X143878809Y-98556800D01*
X143878809Y-98556800D02*
X143802619Y-98480609D01*
X143802619Y-98480609D02*
X143764524Y-98404419D01*
X143764524Y-98404419D02*
X143726428Y-98252038D01*
X143726428Y-98252038D02*
X143726428Y-98137752D01*
X143726428Y-98137752D02*
X143764524Y-97985371D01*
X143764524Y-97985371D02*
X143802619Y-97909180D01*
X143802619Y-97909180D02*
X143878809Y-97832990D01*
X143878809Y-97832990D02*
X143993095Y-97794895D01*
X143993095Y-97794895D02*
X144069286Y-97794895D01*
X144069286Y-97794895D02*
X144183571Y-97832990D01*
X144183571Y-97832990D02*
X144221667Y-97871085D01*
X144526428Y-97871085D02*
X144564524Y-97832990D01*
X144564524Y-97832990D02*
X144640714Y-97794895D01*
X144640714Y-97794895D02*
X144831190Y-97794895D01*
X144831190Y-97794895D02*
X144907381Y-97832990D01*
X144907381Y-97832990D02*
X144945476Y-97871085D01*
X144945476Y-97871085D02*
X144983571Y-97947276D01*
X144983571Y-97947276D02*
X144983571Y-98023466D01*
X144983571Y-98023466D02*
X144945476Y-98137752D01*
X144945476Y-98137752D02*
X144488333Y-98594895D01*
X144488333Y-98594895D02*
X144983571Y-98594895D01*
X139044167Y-102704895D02*
X138777500Y-102323942D01*
X138587024Y-102704895D02*
X138587024Y-101904895D01*
X138587024Y-101904895D02*
X138891786Y-101904895D01*
X138891786Y-101904895D02*
X138967976Y-101942990D01*
X138967976Y-101942990D02*
X139006071Y-101981085D01*
X139006071Y-101981085D02*
X139044167Y-102057276D01*
X139044167Y-102057276D02*
X139044167Y-102171561D01*
X139044167Y-102171561D02*
X139006071Y-102247752D01*
X139006071Y-102247752D02*
X138967976Y-102285847D01*
X138967976Y-102285847D02*
X138891786Y-102323942D01*
X138891786Y-102323942D02*
X138587024Y-102323942D01*
X139729881Y-102171561D02*
X139729881Y-102704895D01*
X139539405Y-101866800D02*
X139348928Y-102438228D01*
X139348928Y-102438228D02*
X139844167Y-102438228D01*
X154041667Y-98864895D02*
X153775000Y-98483942D01*
X153584524Y-98864895D02*
X153584524Y-98064895D01*
X153584524Y-98064895D02*
X153889286Y-98064895D01*
X153889286Y-98064895D02*
X153965476Y-98102990D01*
X153965476Y-98102990D02*
X154003571Y-98141085D01*
X154003571Y-98141085D02*
X154041667Y-98217276D01*
X154041667Y-98217276D02*
X154041667Y-98331561D01*
X154041667Y-98331561D02*
X154003571Y-98407752D01*
X154003571Y-98407752D02*
X153965476Y-98445847D01*
X153965476Y-98445847D02*
X153889286Y-98483942D01*
X153889286Y-98483942D02*
X153584524Y-98483942D01*
X154803571Y-98864895D02*
X154346428Y-98864895D01*
X154575000Y-98864895D02*
X154575000Y-98064895D01*
X154575000Y-98064895D02*
X154498809Y-98179180D01*
X154498809Y-98179180D02*
X154422619Y-98255371D01*
X154422619Y-98255371D02*
X154346428Y-98293466D01*
X134623809Y-101241085D02*
X134547619Y-101202990D01*
X134547619Y-101202990D02*
X134471428Y-101126800D01*
X134471428Y-101126800D02*
X134357142Y-101012514D01*
X134357142Y-101012514D02*
X134280952Y-100974419D01*
X134280952Y-100974419D02*
X134204761Y-100974419D01*
X134242857Y-101164895D02*
X134166666Y-101126800D01*
X134166666Y-101126800D02*
X134090476Y-101050609D01*
X134090476Y-101050609D02*
X134052380Y-100898228D01*
X134052380Y-100898228D02*
X134052380Y-100631561D01*
X134052380Y-100631561D02*
X134090476Y-100479180D01*
X134090476Y-100479180D02*
X134166666Y-100402990D01*
X134166666Y-100402990D02*
X134242857Y-100364895D01*
X134242857Y-100364895D02*
X134395238Y-100364895D01*
X134395238Y-100364895D02*
X134471428Y-100402990D01*
X134471428Y-100402990D02*
X134547619Y-100479180D01*
X134547619Y-100479180D02*
X134585714Y-100631561D01*
X134585714Y-100631561D02*
X134585714Y-100898228D01*
X134585714Y-100898228D02*
X134547619Y-101050609D01*
X134547619Y-101050609D02*
X134471428Y-101126800D01*
X134471428Y-101126800D02*
X134395238Y-101164895D01*
X134395238Y-101164895D02*
X134242857Y-101164895D01*
X135347618Y-101164895D02*
X134890475Y-101164895D01*
X135119047Y-101164895D02*
X135119047Y-100364895D01*
X135119047Y-100364895D02*
X135042856Y-100479180D01*
X135042856Y-100479180D02*
X134966666Y-100555371D01*
X134966666Y-100555371D02*
X134890475Y-100593466D01*
X145990476Y-93964895D02*
X145990476Y-94612514D01*
X145990476Y-94612514D02*
X146028571Y-94688704D01*
X146028571Y-94688704D02*
X146066666Y-94726800D01*
X146066666Y-94726800D02*
X146142857Y-94764895D01*
X146142857Y-94764895D02*
X146295238Y-94764895D01*
X146295238Y-94764895D02*
X146371428Y-94726800D01*
X146371428Y-94726800D02*
X146409523Y-94688704D01*
X146409523Y-94688704D02*
X146447619Y-94612514D01*
X146447619Y-94612514D02*
X146447619Y-93964895D01*
X147247618Y-94764895D02*
X146790475Y-94764895D01*
X147019047Y-94764895D02*
X147019047Y-93964895D01*
X147019047Y-93964895D02*
X146942856Y-94079180D01*
X146942856Y-94079180D02*
X146866666Y-94155371D01*
X146866666Y-94155371D02*
X146790475Y-94193466D01*
D11*
X145224499Y-97630178D02*
X145224499Y-97392083D01*
X145462594Y-97487321D02*
X145224499Y-97392083D01*
X145224499Y-97392083D02*
X144986404Y-97487321D01*
X145367356Y-97201607D02*
X145224499Y-97392083D01*
X145224499Y-97392083D02*
X145081642Y-97201607D01*
X146140000Y-97041618D02*
X146140000Y-97279713D01*
X145901905Y-97184475D02*
X146140000Y-97279713D01*
X146140000Y-97279713D02*
X146378095Y-97184475D01*
X145997143Y-97470189D02*
X146140000Y-97279713D01*
X146140000Y-97279713D02*
X146282857Y-97470189D01*
D10*
X134109524Y-91664895D02*
X134109524Y-90864895D01*
X134109524Y-90864895D02*
X134300000Y-90864895D01*
X134300000Y-90864895D02*
X134414286Y-90902990D01*
X134414286Y-90902990D02*
X134490476Y-90979180D01*
X134490476Y-90979180D02*
X134528571Y-91055371D01*
X134528571Y-91055371D02*
X134566667Y-91207752D01*
X134566667Y-91207752D02*
X134566667Y-91322038D01*
X134566667Y-91322038D02*
X134528571Y-91474419D01*
X134528571Y-91474419D02*
X134490476Y-91550609D01*
X134490476Y-91550609D02*
X134414286Y-91626800D01*
X134414286Y-91626800D02*
X134300000Y-91664895D01*
X134300000Y-91664895D02*
X134109524Y-91664895D01*
X134871428Y-90941085D02*
X134909524Y-90902990D01*
X134909524Y-90902990D02*
X134985714Y-90864895D01*
X134985714Y-90864895D02*
X135176190Y-90864895D01*
X135176190Y-90864895D02*
X135252381Y-90902990D01*
X135252381Y-90902990D02*
X135290476Y-90941085D01*
X135290476Y-90941085D02*
X135328571Y-91017276D01*
X135328571Y-91017276D02*
X135328571Y-91093466D01*
X135328571Y-91093466D02*
X135290476Y-91207752D01*
X135290476Y-91207752D02*
X134833333Y-91664895D01*
X134833333Y-91664895D02*
X135328571Y-91664895D01*
X127518333Y-88664895D02*
X127518333Y-89236323D01*
X127518333Y-89236323D02*
X127480238Y-89350609D01*
X127480238Y-89350609D02*
X127404047Y-89426800D01*
X127404047Y-89426800D02*
X127289762Y-89464895D01*
X127289762Y-89464895D02*
X127213571Y-89464895D01*
X128242143Y-88931561D02*
X128242143Y-89464895D01*
X128051667Y-88626800D02*
X127861190Y-89198228D01*
X127861190Y-89198228D02*
X128356429Y-89198228D01*
X149666667Y-102588704D02*
X149628571Y-102626800D01*
X149628571Y-102626800D02*
X149514286Y-102664895D01*
X149514286Y-102664895D02*
X149438095Y-102664895D01*
X149438095Y-102664895D02*
X149323809Y-102626800D01*
X149323809Y-102626800D02*
X149247619Y-102550609D01*
X149247619Y-102550609D02*
X149209524Y-102474419D01*
X149209524Y-102474419D02*
X149171428Y-102322038D01*
X149171428Y-102322038D02*
X149171428Y-102207752D01*
X149171428Y-102207752D02*
X149209524Y-102055371D01*
X149209524Y-102055371D02*
X149247619Y-101979180D01*
X149247619Y-101979180D02*
X149323809Y-101902990D01*
X149323809Y-101902990D02*
X149438095Y-101864895D01*
X149438095Y-101864895D02*
X149514286Y-101864895D01*
X149514286Y-101864895D02*
X149628571Y-101902990D01*
X149628571Y-101902990D02*
X149666667Y-101941085D01*
X149933333Y-101864895D02*
X150428571Y-101864895D01*
X150428571Y-101864895D02*
X150161905Y-102169657D01*
X150161905Y-102169657D02*
X150276190Y-102169657D01*
X150276190Y-102169657D02*
X150352381Y-102207752D01*
X150352381Y-102207752D02*
X150390476Y-102245847D01*
X150390476Y-102245847D02*
X150428571Y-102322038D01*
X150428571Y-102322038D02*
X150428571Y-102512514D01*
X150428571Y-102512514D02*
X150390476Y-102588704D01*
X150390476Y-102588704D02*
X150352381Y-102626800D01*
X150352381Y-102626800D02*
X150276190Y-102664895D01*
X150276190Y-102664895D02*
X150047619Y-102664895D01*
X150047619Y-102664895D02*
X149971428Y-102626800D01*
X149971428Y-102626800D02*
X149933333Y-102588704D01*
X142384524Y-91764895D02*
X142384524Y-90964895D01*
X142384524Y-90964895D02*
X142575000Y-90964895D01*
X142575000Y-90964895D02*
X142689286Y-91002990D01*
X142689286Y-91002990D02*
X142765476Y-91079180D01*
X142765476Y-91079180D02*
X142803571Y-91155371D01*
X142803571Y-91155371D02*
X142841667Y-91307752D01*
X142841667Y-91307752D02*
X142841667Y-91422038D01*
X142841667Y-91422038D02*
X142803571Y-91574419D01*
X142803571Y-91574419D02*
X142765476Y-91650609D01*
X142765476Y-91650609D02*
X142689286Y-91726800D01*
X142689286Y-91726800D02*
X142575000Y-91764895D01*
X142575000Y-91764895D02*
X142384524Y-91764895D01*
X143603571Y-91764895D02*
X143146428Y-91764895D01*
X143375000Y-91764895D02*
X143375000Y-90964895D01*
X143375000Y-90964895D02*
X143298809Y-91079180D01*
X143298809Y-91079180D02*
X143222619Y-91155371D01*
X143222619Y-91155371D02*
X143146428Y-91193466D01*
X139501667Y-98994895D02*
X139235000Y-98613942D01*
X139044524Y-98994895D02*
X139044524Y-98194895D01*
X139044524Y-98194895D02*
X139349286Y-98194895D01*
X139349286Y-98194895D02*
X139425476Y-98232990D01*
X139425476Y-98232990D02*
X139463571Y-98271085D01*
X139463571Y-98271085D02*
X139501667Y-98347276D01*
X139501667Y-98347276D02*
X139501667Y-98461561D01*
X139501667Y-98461561D02*
X139463571Y-98537752D01*
X139463571Y-98537752D02*
X139425476Y-98575847D01*
X139425476Y-98575847D02*
X139349286Y-98613942D01*
X139349286Y-98613942D02*
X139044524Y-98613942D01*
X139768333Y-98194895D02*
X140263571Y-98194895D01*
X140263571Y-98194895D02*
X139996905Y-98499657D01*
X139996905Y-98499657D02*
X140111190Y-98499657D01*
X140111190Y-98499657D02*
X140187381Y-98537752D01*
X140187381Y-98537752D02*
X140225476Y-98575847D01*
X140225476Y-98575847D02*
X140263571Y-98652038D01*
X140263571Y-98652038D02*
X140263571Y-98842514D01*
X140263571Y-98842514D02*
X140225476Y-98918704D01*
X140225476Y-98918704D02*
X140187381Y-98956800D01*
X140187381Y-98956800D02*
X140111190Y-98994895D01*
X140111190Y-98994895D02*
X139882619Y-98994895D01*
X139882619Y-98994895D02*
X139806428Y-98956800D01*
X139806428Y-98956800D02*
X139768333Y-98918704D01*
X126933333Y-103164895D02*
X126933333Y-103736323D01*
X126933333Y-103736323D02*
X126895238Y-103850609D01*
X126895238Y-103850609D02*
X126819047Y-103926800D01*
X126819047Y-103926800D02*
X126704762Y-103964895D01*
X126704762Y-103964895D02*
X126628571Y-103964895D01*
X127276190Y-103241085D02*
X127314286Y-103202990D01*
X127314286Y-103202990D02*
X127390476Y-103164895D01*
X127390476Y-103164895D02*
X127580952Y-103164895D01*
X127580952Y-103164895D02*
X127657143Y-103202990D01*
X127657143Y-103202990D02*
X127695238Y-103241085D01*
X127695238Y-103241085D02*
X127733333Y-103317276D01*
X127733333Y-103317276D02*
X127733333Y-103393466D01*
X127733333Y-103393466D02*
X127695238Y-103507752D01*
X127695238Y-103507752D02*
X127238095Y-103964895D01*
X127238095Y-103964895D02*
X127733333Y-103964895D01*
%TO.C,J3*%
D12*
X133225000Y-94365000D02*
X137285000Y-94365000D01*
X137285000Y-95635000D01*
X133225000Y-95635000D01*
X133225000Y-94365000D01*
X135931667Y-94365000D02*
X137285000Y-94365000D01*
X137285000Y-95635000D01*
X135931667Y-95635000D01*
X135931667Y-94365000D01*
G36*
X135931667Y-94365000D02*
G01*
X137285000Y-94365000D01*
X137285000Y-95635000D01*
X135931667Y-95635000D01*
X135931667Y-94365000D01*
G37*
X130305000Y-97420000D02*
X130305000Y-92580000D01*
X135931667Y-95635000D02*
X135931667Y-94365000D01*
X140205000Y-92580000D02*
X130305000Y-92580000D01*
X140205000Y-97420000D02*
X130305000Y-97420000D01*
X140205000Y-97420000D02*
X140205000Y-92580000D01*
X140445000Y-97660000D02*
X139062000Y-97660000D01*
X140445000Y-97660000D02*
X140445000Y-96277000D01*
%TO.C,J1*%
X163700000Y-93920000D02*
X169700000Y-93920000D01*
X169700000Y-94780000D01*
X163700000Y-94780000D01*
X163700000Y-93920000D01*
G36*
X163700000Y-93920000D02*
G01*
X169700000Y-93920000D01*
X169700000Y-94780000D01*
X163700000Y-94780000D01*
X163700000Y-93920000D01*
G37*
X160940000Y-92970000D02*
X163700000Y-92970000D01*
X163700000Y-98270000D01*
X160940000Y-98270000D01*
X160940000Y-92970000D01*
X169700000Y-97320000D02*
X163700000Y-97320000D01*
X169700000Y-96460000D02*
X169700000Y-97320000D01*
X163700000Y-96460000D02*
X169700000Y-96460000D01*
X160940000Y-95620000D02*
X163700000Y-95620000D01*
X160710000Y-94780000D02*
X160940000Y-94780000D01*
X160710000Y-93920000D02*
X160940000Y-93920000D01*
X160627358Y-97320000D02*
X160940000Y-97320000D01*
X160627358Y-96460000D02*
X160940000Y-96460000D01*
X158280000Y-94350000D02*
X158280000Y-93080000D01*
X158280000Y-93080000D02*
X159550000Y-93080000D01*
%TO.C,L1*%
D13*
X151576200Y-86423500D02*
G75*
G02*
X151423800Y-86423500I-76200J0D01*
G01*
X151423800Y-86423500D02*
G75*
G02*
X151576200Y-86423500I76200J0D01*
G01*
X155056000Y-95313500D02*
X155056000Y-87566500D01*
X155056000Y-87566500D02*
X153483740Y-87566500D01*
X153483740Y-95313500D02*
X155056000Y-95313500D01*
X149516260Y-87566500D02*
X147944000Y-87566500D01*
X147944000Y-95313500D02*
X149516260Y-95313500D01*
X147944000Y-87566500D02*
X147944000Y-95313500D01*
%TO.C,C1*%
D12*
X153988748Y-104835000D02*
X154511252Y-104835000D01*
X153988748Y-103365000D02*
X154511252Y-103365000D01*
%TO.C,R2*%
X150114564Y-100835000D02*
X149660436Y-100835000D01*
X150114564Y-99365000D02*
X149660436Y-99365000D01*
%TO.C,C2*%
X145491252Y-101240000D02*
X144068748Y-101240000D01*
X145491252Y-99420000D02*
X144068748Y-99420000D01*
%TO.C,R4*%
X138837936Y-104875000D02*
X139292064Y-104875000D01*
X138837936Y-103405000D02*
X139292064Y-103405000D01*
%TO.C,R1*%
X153860436Y-100835000D02*
X154314564Y-100835000D01*
X153860436Y-99365000D02*
X154314564Y-99365000D01*
%TO.C,Q1*%
X133462500Y-102720000D02*
X133702500Y-103050000D01*
X133222500Y-103050000D01*
X133462500Y-102720000D01*
G36*
X133702500Y-103050000D02*
G01*
X133222500Y-103050000D01*
X133462500Y-102720000D01*
X133702500Y-103050000D01*
G37*
X135522500Y-104660000D02*
X134002500Y-104660000D01*
X135522500Y-103660000D02*
X135522500Y-104660000D01*
X135522500Y-101540000D02*
X135522500Y-102540000D01*
X134002500Y-104660000D02*
X134002500Y-104610000D01*
X134002500Y-103490000D02*
X134002500Y-102710000D01*
X134002500Y-101590000D02*
X134002500Y-101540000D01*
X134002500Y-101540000D02*
X135522500Y-101540000D01*
%TO.C,U1*%
D13*
X142703550Y-94597138D02*
X142703550Y-95272860D01*
X142703550Y-96509799D02*
X144506950Y-96509799D01*
X144506950Y-93360199D02*
X142703550Y-93360199D01*
%TO.C,D2*%
D12*
X137110000Y-90550000D02*
X137110000Y-87250000D01*
X137110000Y-90550000D02*
X131600000Y-90550000D01*
X137110000Y-87250000D02*
X131600000Y-87250000D01*
%TO.C,J4*%
X122835000Y-90055000D02*
X125595000Y-90055000D01*
X125595000Y-95355000D01*
X122835000Y-95355000D01*
X122835000Y-90055000D01*
X116835000Y-93545000D02*
X122835000Y-93545000D01*
X122835000Y-94405000D01*
X116835000Y-94405000D01*
X116835000Y-93545000D01*
G36*
X116835000Y-93545000D02*
G01*
X122835000Y-93545000D01*
X122835000Y-94405000D01*
X116835000Y-94405000D01*
X116835000Y-93545000D01*
G37*
X128255000Y-95245000D02*
X126985000Y-95245000D01*
X128255000Y-93975000D02*
X128255000Y-95245000D01*
X125907642Y-91865000D02*
X125595000Y-91865000D01*
X125907642Y-91005000D02*
X125595000Y-91005000D01*
X125825000Y-94405000D02*
X125595000Y-94405000D01*
X125825000Y-93545000D02*
X125595000Y-93545000D01*
X125595000Y-92705000D02*
X122835000Y-92705000D01*
X122835000Y-91865000D02*
X116835000Y-91865000D01*
X116835000Y-91865000D02*
X116835000Y-91005000D01*
X116835000Y-91005000D02*
X122835000Y-91005000D01*
%TO.C,C3*%
X151000000Y-103065000D02*
X148315000Y-103065000D01*
X148315000Y-104985000D02*
X151000000Y-104985000D01*
X148315000Y-103065000D02*
X148315000Y-104985000D01*
%TO.C,D1*%
X146385000Y-87250000D02*
X140875000Y-87250000D01*
X146385000Y-90550000D02*
X140875000Y-90550000D01*
X146385000Y-90550000D02*
X146385000Y-87250000D01*
%TO.C,R3*%
X139195436Y-101065000D02*
X139649564Y-101065000D01*
X139195436Y-99595000D02*
X139649564Y-99595000D01*
%TO.C,J2*%
X122850000Y-97020000D02*
X125610000Y-97020000D01*
X125610000Y-102320000D01*
X122850000Y-102320000D01*
X122850000Y-97020000D01*
X116850000Y-100510000D02*
X122850000Y-100510000D01*
X122850000Y-101370000D01*
X116850000Y-101370000D01*
X116850000Y-100510000D01*
G36*
X116850000Y-100510000D02*
G01*
X122850000Y-100510000D01*
X122850000Y-101370000D01*
X116850000Y-101370000D01*
X116850000Y-100510000D01*
G37*
X128270000Y-102210000D02*
X127000000Y-102210000D01*
X128270000Y-100940000D02*
X128270000Y-102210000D01*
X125922642Y-98830000D02*
X125610000Y-98830000D01*
X125922642Y-97970000D02*
X125610000Y-97970000D01*
X125840000Y-101370000D02*
X125610000Y-101370000D01*
X125840000Y-100510000D02*
X125610000Y-100510000D01*
X125610000Y-99670000D02*
X122850000Y-99670000D01*
X122850000Y-98830000D02*
X116850000Y-98830000D01*
X116850000Y-98830000D02*
X116850000Y-97970000D01*
X116850000Y-97970000D02*
X122850000Y-97970000D01*
%TD*%
M02*
