%TF.GenerationSoftware,KiCad,Pcbnew,10.0.3*%
%TF.CreationDate,2026-06-25T13:31:27+05:30*%
%TF.ProjectId,Tiny_Solar_Power_Supply,54696e79-5f53-46f6-9c61-725f506f7765,rev?*%
%TF.SameCoordinates,Original*%
%TF.FileFunction,Copper,L2,Bot*%
%TF.FilePolarity,Positive*%
%FSLAX46Y46*%
G04 Gerber Fmt 4.6, Leading zero omitted, Abs format (unit mm)*
G04 Created by KiCad (PCBNEW 10.0.3) date 2026-06-25 13:31:27*
%MOMM*%
%LPD*%
G01*
G04 APERTURE LIST*
G04 Aperture macros list*
%AMRoundRect*
0 Rectangle with rounded corners*
0 $1 Rounding radius*
0 $2 $3 $4 $5 $6 $7 $8 $9 X,Y pos of 4 corners*
0 Add a 4 corners polygon primitive as box body*
4,1,4,$2,$3,$4,$5,$6,$7,$8,$9,$2,$3,0*
0 Add four circle primitives for the rounded corners*
1,1,$1+$1,$2,$3*
1,1,$1+$1,$4,$5*
1,1,$1+$1,$6,$7*
1,1,$1+$1,$8,$9*
0 Add four rect primitives between the rounded corners*
20,1,$1+$1,$2,$3,$4,$5,0*
20,1,$1+$1,$4,$5,$6,$7,0*
20,1,$1+$1,$6,$7,$8,$9,0*
20,1,$1+$1,$8,$9,$2,$3,0*%
G04 Aperture macros list end*
%TA.AperFunction,ComponentPad*%
%ADD10C,1.600000*%
%TD*%
%TA.AperFunction,ComponentPad*%
%ADD11RoundRect,0.250000X0.550000X0.550000X-0.550000X0.550000X-0.550000X-0.550000X0.550000X-0.550000X0*%
%TD*%
%TA.AperFunction,ComponentPad*%
%ADD12C,1.700000*%
%TD*%
%TA.AperFunction,ComponentPad*%
%ADD13R,1.700000X1.700000*%
%TD*%
%TA.AperFunction,ViaPad*%
%ADD14C,0.600000*%
%TD*%
%TA.AperFunction,ViaPad*%
%ADD15C,0.900000*%
%TD*%
%TA.AperFunction,Conductor*%
%ADD16C,0.200000*%
%TD*%
%TA.AperFunction,Conductor*%
%ADD17C,0.350000*%
%TD*%
G04 APERTURE END LIST*
D10*
%TO.P,J3,2,Pin_2_2*%
%TO.N,/BAT_P*%
X131445000Y-95000000D03*
D11*
%TO.P,J3,1,Pin_1_1*%
%TO.N,Net-(J3-Pin_1)*%
X139065000Y-95000000D03*
%TD*%
D12*
%TO.P,J1,2,Pin_2_2*%
%TO.N,/OUT_P*%
X159550000Y-96890000D03*
D13*
%TO.P,J1,1,Pin_1_1*%
%TO.N,GNDD*%
X159550000Y-94350000D03*
%TD*%
D12*
%TO.P,J4,2,Pin_2_2*%
%TO.N,GNDD*%
X126985000Y-91435000D03*
D13*
%TO.P,J4,1,Pin_1_1*%
%TO.N,/SOLAR_P*%
X126985000Y-93975000D03*
%TD*%
D12*
%TO.P,J2,2,Pin_2_2*%
%TO.N,GNDD*%
X127000000Y-98400000D03*
D13*
%TO.P,J2,1,Pin_1_1*%
%TO.N,/BAT_P*%
X127000000Y-100940000D03*
%TD*%
D14*
%TO.N,GNDD*%
X144750000Y-92400000D03*
X127000000Y-89150000D03*
X158850000Y-91350000D03*
X157050000Y-103200000D03*
X148250000Y-98500000D03*
X130890000Y-100410000D03*
X141375500Y-102259500D03*
%TO.N,Net-(J3-Pin_1)*%
X148650000Y-96150000D03*
X141850000Y-97550000D03*
D15*
%TO.N,/OUT_P*%
X152100000Y-100050000D03*
X156677631Y-98122369D03*
%TD*%
%TO.N,Net-(J3-Pin_1)*%
D16*
X144750000Y-97550000D02*
X141850000Y-97550000D01*
X146150000Y-96150000D02*
X144750000Y-97550000D01*
X148650000Y-96150000D02*
X146150000Y-96150000D01*
%TO.N,/OUT_P*%
D17*
X154027631Y-98122369D02*
X152100000Y-100050000D01*
X156677631Y-98122369D02*
X154027631Y-98122369D01*
%TD*%
%TA.AperFunction,Conductor*%
%TO.N,GNDD*%
G36*
X159690677Y-87119685D02*
G01*
X159711319Y-87136319D01*
X160958213Y-88383213D01*
X160988463Y-88432575D01*
X161059433Y-88650996D01*
X161166653Y-88861425D01*
X161166657Y-88861433D01*
X161305483Y-89052510D01*
X161472490Y-89219517D01*
X161663567Y-89358343D01*
X161807295Y-89431576D01*
X161858091Y-89479551D01*
X161875000Y-89542061D01*
X161875000Y-102857939D01*
X161855315Y-102924978D01*
X161807295Y-102968424D01*
X161663566Y-103041657D01*
X161554550Y-103120862D01*
X161472490Y-103180483D01*
X161472488Y-103180485D01*
X161472487Y-103180485D01*
X161305485Y-103347487D01*
X161305485Y-103347488D01*
X161305483Y-103347490D01*
X161245862Y-103429550D01*
X161166657Y-103538566D01*
X161059433Y-103749003D01*
X160986446Y-103973631D01*
X160949500Y-104206902D01*
X160949500Y-104443097D01*
X160986446Y-104676368D01*
X161059433Y-104900996D01*
X161107181Y-104994705D01*
X161120077Y-105063374D01*
X161093801Y-105128115D01*
X161036694Y-105168372D01*
X160996696Y-105175000D01*
X125728304Y-105175000D01*
X125661265Y-105155315D01*
X125615510Y-105102511D01*
X125605566Y-105033353D01*
X125617819Y-104994705D01*
X125665566Y-104900996D01*
X125665566Y-104900995D01*
X125665568Y-104900992D01*
X125738553Y-104676368D01*
X125763929Y-104516150D01*
X125775500Y-104443097D01*
X125775500Y-104206902D01*
X125738553Y-103973631D01*
X125665566Y-103749003D01*
X125558342Y-103538566D01*
X125548682Y-103525270D01*
X125525202Y-103459464D01*
X125525000Y-103452384D01*
X125525000Y-102162830D01*
X125544685Y-102095791D01*
X125597489Y-102050036D01*
X125666647Y-102040092D01*
X125730203Y-102069117D01*
X125748263Y-102088515D01*
X125792454Y-102147546D01*
X125812871Y-102162830D01*
X125907664Y-102233793D01*
X125907671Y-102233797D01*
X126042517Y-102284091D01*
X126042516Y-102284091D01*
X126049444Y-102284835D01*
X126102127Y-102290500D01*
X127897872Y-102290499D01*
X127957483Y-102284091D01*
X128092331Y-102233796D01*
X128207546Y-102147546D01*
X128293796Y-102032331D01*
X128344091Y-101897483D01*
X128350500Y-101837873D01*
X128350499Y-100042128D01*
X128344091Y-99982517D01*
X128334342Y-99956379D01*
X151149500Y-99956379D01*
X151149500Y-100143620D01*
X151186025Y-100327243D01*
X151186027Y-100327251D01*
X151257676Y-100500228D01*
X151257681Y-100500237D01*
X151361697Y-100655907D01*
X151361700Y-100655911D01*
X151494088Y-100788299D01*
X151494092Y-100788302D01*
X151649762Y-100892318D01*
X151649768Y-100892321D01*
X151649769Y-100892322D01*
X151822749Y-100963973D01*
X152006379Y-101000499D01*
X152006383Y-101000500D01*
X152006384Y-101000500D01*
X152193617Y-101000500D01*
X152193618Y-101000499D01*
X152377251Y-100963973D01*
X152550231Y-100892322D01*
X152705908Y-100788302D01*
X152838302Y-100655908D01*
X152942322Y-100500231D01*
X153013973Y-100327251D01*
X153050500Y-100143616D01*
X153050500Y-100106163D01*
X153070185Y-100039124D01*
X153086819Y-100018482D01*
X154271113Y-98834188D01*
X154332436Y-98800703D01*
X154358794Y-98797869D01*
X155957558Y-98797869D01*
X156024597Y-98817554D01*
X156045239Y-98834188D01*
X156071719Y-98860668D01*
X156071723Y-98860671D01*
X156227393Y-98964687D01*
X156227399Y-98964690D01*
X156227400Y-98964691D01*
X156400380Y-99036342D01*
X156535310Y-99063181D01*
X156584010Y-99072868D01*
X156584014Y-99072869D01*
X156584015Y-99072869D01*
X156771248Y-99072869D01*
X156771249Y-99072868D01*
X156954882Y-99036342D01*
X157127862Y-98964691D01*
X157283539Y-98860671D01*
X157415933Y-98728277D01*
X157519953Y-98572600D01*
X157591604Y-98399620D01*
X157628131Y-98215985D01*
X157628131Y-98028753D01*
X157591604Y-97845118D01*
X157519953Y-97672138D01*
X157519952Y-97672137D01*
X157519949Y-97672131D01*
X157415933Y-97516461D01*
X157415930Y-97516457D01*
X157283542Y-97384069D01*
X157283538Y-97384066D01*
X157127868Y-97280050D01*
X157127859Y-97280045D01*
X156954882Y-97208396D01*
X156954874Y-97208394D01*
X156771251Y-97171869D01*
X156771247Y-97171869D01*
X156584015Y-97171869D01*
X156584010Y-97171869D01*
X156400387Y-97208394D01*
X156400379Y-97208396D01*
X156227402Y-97280045D01*
X156227393Y-97280050D01*
X156071723Y-97384066D01*
X156071719Y-97384069D01*
X156045239Y-97410550D01*
X155983916Y-97444035D01*
X155957558Y-97446869D01*
X153961095Y-97446869D01*
X153830602Y-97472826D01*
X153830594Y-97472828D01*
X153707665Y-97523747D01*
X153707655Y-97523752D01*
X153597025Y-97597673D01*
X153597021Y-97597676D01*
X152131518Y-99063181D01*
X152070195Y-99096666D01*
X152043837Y-99099500D01*
X152006379Y-99099500D01*
X151822756Y-99136025D01*
X151822748Y-99136027D01*
X151649771Y-99207676D01*
X151649762Y-99207681D01*
X151494092Y-99311697D01*
X151494088Y-99311700D01*
X151361700Y-99444088D01*
X151361697Y-99444092D01*
X151257681Y-99599762D01*
X151257676Y-99599771D01*
X151186027Y-99772748D01*
X151186025Y-99772756D01*
X151149500Y-99956379D01*
X128334342Y-99956379D01*
X128293797Y-99847671D01*
X128293793Y-99847664D01*
X128207547Y-99732455D01*
X128207544Y-99732452D01*
X128092335Y-99646206D01*
X128092328Y-99646202D01*
X127957482Y-99595908D01*
X127957483Y-99595908D01*
X127897883Y-99589501D01*
X127897881Y-99589500D01*
X127897873Y-99589500D01*
X127897864Y-99589500D01*
X126102129Y-99589500D01*
X126102123Y-99589501D01*
X126042516Y-99595908D01*
X125907671Y-99646202D01*
X125907664Y-99646206D01*
X125792455Y-99732452D01*
X125748266Y-99791481D01*
X125692332Y-99833351D01*
X125622640Y-99838335D01*
X125561318Y-99804849D01*
X125527833Y-99743525D01*
X125525000Y-99717169D01*
X125525000Y-97471153D01*
X141049500Y-97471153D01*
X141049500Y-97628846D01*
X141080261Y-97783489D01*
X141080264Y-97783501D01*
X141140602Y-97929172D01*
X141140609Y-97929185D01*
X141228210Y-98060288D01*
X141228213Y-98060292D01*
X141339707Y-98171786D01*
X141339711Y-98171789D01*
X141470814Y-98259390D01*
X141470827Y-98259397D01*
X141616498Y-98319735D01*
X141616503Y-98319737D01*
X141771153Y-98350499D01*
X141771156Y-98350500D01*
X141771158Y-98350500D01*
X141928844Y-98350500D01*
X141928845Y-98350499D01*
X142083497Y-98319737D01*
X142229179Y-98259394D01*
X142257456Y-98240500D01*
X142360875Y-98171398D01*
X142427553Y-98150520D01*
X142429766Y-98150500D01*
X144663331Y-98150500D01*
X144663347Y-98150501D01*
X144670943Y-98150501D01*
X144829054Y-98150501D01*
X144829057Y-98150501D01*
X144981785Y-98109577D01*
X145031904Y-98080639D01*
X145118716Y-98030520D01*
X145230520Y-97918716D01*
X145230520Y-97918714D01*
X145240728Y-97908507D01*
X145240729Y-97908504D01*
X146362416Y-96786819D01*
X146423739Y-96753334D01*
X146450097Y-96750500D01*
X148070234Y-96750500D01*
X148137273Y-96770185D01*
X148139125Y-96771398D01*
X148270814Y-96859390D01*
X148270827Y-96859397D01*
X148400675Y-96913181D01*
X148416503Y-96919737D01*
X148566131Y-96949500D01*
X148571153Y-96950499D01*
X148571156Y-96950500D01*
X148571158Y-96950500D01*
X148728844Y-96950500D01*
X148728845Y-96950499D01*
X148883497Y-96919737D01*
X149029179Y-96859394D01*
X149142443Y-96783713D01*
X158199500Y-96783713D01*
X158199500Y-96996286D01*
X158227309Y-97171869D01*
X158232754Y-97206243D01*
X158290533Y-97384069D01*
X158298444Y-97408414D01*
X158394951Y-97597820D01*
X158519890Y-97769786D01*
X158670213Y-97920109D01*
X158842179Y-98045048D01*
X158842181Y-98045049D01*
X158842184Y-98045051D01*
X159031588Y-98141557D01*
X159233757Y-98207246D01*
X159443713Y-98240500D01*
X159443714Y-98240500D01*
X159656286Y-98240500D01*
X159656287Y-98240500D01*
X159866243Y-98207246D01*
X160068412Y-98141557D01*
X160257816Y-98045051D01*
X160280255Y-98028748D01*
X160429786Y-97920109D01*
X160429788Y-97920106D01*
X160429792Y-97920104D01*
X160580104Y-97769792D01*
X160580106Y-97769788D01*
X160580109Y-97769786D01*
X160705048Y-97597820D01*
X160705047Y-97597820D01*
X160705051Y-97597816D01*
X160801557Y-97408412D01*
X160867246Y-97206243D01*
X160900500Y-96996287D01*
X160900500Y-96783713D01*
X160867246Y-96573757D01*
X160801557Y-96371588D01*
X160705051Y-96182184D01*
X160705049Y-96182181D01*
X160705048Y-96182179D01*
X160580109Y-96010213D01*
X160429786Y-95859890D01*
X160257820Y-95734951D01*
X160068414Y-95638444D01*
X160068413Y-95638443D01*
X160068412Y-95638443D01*
X159866243Y-95572754D01*
X159866241Y-95572753D01*
X159866240Y-95572753D01*
X159704957Y-95547208D01*
X159656287Y-95539500D01*
X159443713Y-95539500D01*
X159395042Y-95547208D01*
X159233760Y-95572753D01*
X159031585Y-95638444D01*
X158842179Y-95734951D01*
X158670213Y-95859890D01*
X158519890Y-96010213D01*
X158394951Y-96182179D01*
X158298444Y-96371585D01*
X158232753Y-96573760D01*
X158199500Y-96783713D01*
X149142443Y-96783713D01*
X149160289Y-96771789D01*
X149182578Y-96749500D01*
X149240919Y-96691160D01*
X149271786Y-96660292D01*
X149271789Y-96660289D01*
X149359394Y-96529179D01*
X149419737Y-96383497D01*
X149450500Y-96228842D01*
X149450500Y-96071158D01*
X149450500Y-96071155D01*
X149450499Y-96071153D01*
X149440057Y-96018657D01*
X149419737Y-95916503D01*
X149396290Y-95859896D01*
X149359397Y-95770827D01*
X149359390Y-95770814D01*
X149271789Y-95639711D01*
X149271786Y-95639707D01*
X149160292Y-95528213D01*
X149160288Y-95528210D01*
X149029185Y-95440609D01*
X149029172Y-95440602D01*
X148883501Y-95380264D01*
X148883489Y-95380261D01*
X148728845Y-95349500D01*
X148728842Y-95349500D01*
X148571158Y-95349500D01*
X148571155Y-95349500D01*
X148416510Y-95380261D01*
X148416498Y-95380264D01*
X148270827Y-95440602D01*
X148270814Y-95440609D01*
X148139125Y-95528602D01*
X148072447Y-95549480D01*
X148070234Y-95549500D01*
X146236669Y-95549500D01*
X146236653Y-95549499D01*
X146229057Y-95549499D01*
X146070943Y-95549499D01*
X145918215Y-95590423D01*
X145918214Y-95590423D01*
X145918212Y-95590424D01*
X145901613Y-95600008D01*
X145901611Y-95600009D01*
X145781290Y-95669475D01*
X145781282Y-95669481D01*
X145669478Y-95781286D01*
X144537584Y-96913181D01*
X144476261Y-96946666D01*
X144449903Y-96949500D01*
X142429766Y-96949500D01*
X142362727Y-96929815D01*
X142360875Y-96928602D01*
X142229185Y-96840609D01*
X142229172Y-96840602D01*
X142083501Y-96780264D01*
X142083489Y-96780261D01*
X141928845Y-96749500D01*
X141928842Y-96749500D01*
X141771158Y-96749500D01*
X141771155Y-96749500D01*
X141616510Y-96780261D01*
X141616498Y-96780264D01*
X141470827Y-96840602D01*
X141470814Y-96840609D01*
X141339711Y-96928210D01*
X141339707Y-96928213D01*
X141228213Y-97039707D01*
X141228210Y-97039711D01*
X141140609Y-97170814D01*
X141140602Y-97170827D01*
X141080264Y-97316498D01*
X141080261Y-97316510D01*
X141049500Y-97471153D01*
X125525000Y-97471153D01*
X125525000Y-95217867D01*
X125544685Y-95150828D01*
X125597489Y-95105073D01*
X125666647Y-95095129D01*
X125730203Y-95124154D01*
X125748262Y-95143550D01*
X125777454Y-95182546D01*
X125777455Y-95182546D01*
X125777456Y-95182548D01*
X125892664Y-95268793D01*
X125892671Y-95268797D01*
X126027517Y-95319091D01*
X126027516Y-95319091D01*
X126034444Y-95319835D01*
X126087127Y-95325500D01*
X127882872Y-95325499D01*
X127942483Y-95319091D01*
X128077331Y-95268796D01*
X128192546Y-95182546D01*
X128278796Y-95067331D01*
X128329091Y-94932483D01*
X128332836Y-94897648D01*
X130144500Y-94897648D01*
X130144500Y-95102351D01*
X130176522Y-95304534D01*
X130239781Y-95499223D01*
X130291135Y-95600009D01*
X130326532Y-95669480D01*
X130332715Y-95681613D01*
X130453028Y-95847213D01*
X130597786Y-95991971D01*
X130706773Y-96071153D01*
X130763390Y-96112287D01*
X130879607Y-96171503D01*
X130945776Y-96205218D01*
X130945778Y-96205218D01*
X130945781Y-96205220D01*
X131036856Y-96234812D01*
X131140465Y-96268477D01*
X131241557Y-96284488D01*
X131342648Y-96300500D01*
X131342649Y-96300500D01*
X131547351Y-96300500D01*
X131547352Y-96300500D01*
X131749534Y-96268477D01*
X131944219Y-96205220D01*
X132126610Y-96112287D01*
X132255482Y-96018657D01*
X132292213Y-95991971D01*
X132292215Y-95991968D01*
X132292219Y-95991966D01*
X132436966Y-95847219D01*
X132436968Y-95847215D01*
X132436971Y-95847213D01*
X132492477Y-95770814D01*
X132557287Y-95681610D01*
X132650220Y-95499219D01*
X132713477Y-95304534D01*
X132745500Y-95102352D01*
X132745500Y-94897648D01*
X132713477Y-94695466D01*
X132650220Y-94500781D01*
X132650218Y-94500778D01*
X132650218Y-94500776D01*
X132625940Y-94453129D01*
X132598861Y-94399983D01*
X137764500Y-94399983D01*
X137764500Y-95600001D01*
X137764501Y-95600008D01*
X137775000Y-95702796D01*
X137775001Y-95702799D01*
X137822856Y-95847213D01*
X137830186Y-95869334D01*
X137922288Y-96018656D01*
X138046344Y-96142712D01*
X138195666Y-96234814D01*
X138362203Y-96289999D01*
X138464991Y-96300500D01*
X139665008Y-96300499D01*
X139767797Y-96289999D01*
X139934334Y-96234814D01*
X140083656Y-96142712D01*
X140207712Y-96018656D01*
X140299814Y-95869334D01*
X140354999Y-95702797D01*
X140365500Y-95600009D01*
X140365499Y-94399992D01*
X140354999Y-94297203D01*
X140299814Y-94130666D01*
X140207712Y-93981344D01*
X140083656Y-93857288D01*
X139934334Y-93765186D01*
X139767797Y-93710001D01*
X139767795Y-93710000D01*
X139665010Y-93699500D01*
X138464998Y-93699500D01*
X138464981Y-93699501D01*
X138362203Y-93710000D01*
X138362200Y-93710001D01*
X138195668Y-93765185D01*
X138195663Y-93765187D01*
X138046342Y-93857289D01*
X137922289Y-93981342D01*
X137830187Y-94130663D01*
X137830186Y-94130666D01*
X137775001Y-94297203D01*
X137775001Y-94297204D01*
X137775000Y-94297204D01*
X137764500Y-94399983D01*
X132598861Y-94399983D01*
X132557284Y-94318385D01*
X132436971Y-94152786D01*
X132292213Y-94008028D01*
X132126613Y-93887715D01*
X132126612Y-93887714D01*
X132126610Y-93887713D01*
X132066898Y-93857288D01*
X131944223Y-93794781D01*
X131749534Y-93731522D01*
X131574995Y-93703878D01*
X131547352Y-93699500D01*
X131342648Y-93699500D01*
X131318329Y-93703351D01*
X131140465Y-93731522D01*
X130945776Y-93794781D01*
X130763386Y-93887715D01*
X130597786Y-94008028D01*
X130453028Y-94152786D01*
X130332715Y-94318386D01*
X130239781Y-94500776D01*
X130176522Y-94695465D01*
X130144500Y-94897648D01*
X128332836Y-94897648D01*
X128335500Y-94872873D01*
X128335499Y-93077128D01*
X128329091Y-93017517D01*
X128278796Y-92882669D01*
X128278795Y-92882668D01*
X128278793Y-92882664D01*
X128192547Y-92767455D01*
X128192544Y-92767452D01*
X128077335Y-92681206D01*
X128077328Y-92681202D01*
X127942482Y-92630908D01*
X127942483Y-92630908D01*
X127882883Y-92624501D01*
X127882881Y-92624500D01*
X127882873Y-92624500D01*
X127882864Y-92624500D01*
X126087129Y-92624500D01*
X126087123Y-92624501D01*
X126027516Y-92630908D01*
X125892671Y-92681202D01*
X125892664Y-92681206D01*
X125777455Y-92767452D01*
X125748266Y-92806444D01*
X125692332Y-92848314D01*
X125622640Y-92853298D01*
X125561318Y-92819812D01*
X125527833Y-92758488D01*
X125525000Y-92732132D01*
X125525000Y-88947615D01*
X125544685Y-88880576D01*
X125548682Y-88874730D01*
X125558343Y-88861433D01*
X125665568Y-88650992D01*
X125738553Y-88426368D01*
X125745388Y-88383213D01*
X125775500Y-88193097D01*
X125775500Y-87956902D01*
X125738553Y-87723631D01*
X125665566Y-87499003D01*
X125556131Y-87284226D01*
X125557110Y-87283726D01*
X125540235Y-87221346D01*
X125561350Y-87154743D01*
X125615122Y-87110129D01*
X125664207Y-87100000D01*
X159623638Y-87100000D01*
X159690677Y-87119685D01*
G37*
%TD.AperFunction*%
%TD*%
M02*
