%TF.GenerationSoftware,KiCad,Pcbnew,10.0.3*%
%TF.CreationDate,2026-06-25T13:31:27+05:30*%
%TF.ProjectId,Tiny_Solar_Power_Supply,54696e79-5f53-46f6-9c61-725f506f7765,rev?*%
%TF.SameCoordinates,Original*%
%TF.FileFunction,Legend,Bot*%
%TF.FilePolarity,Positive*%
%FSLAX46Y46*%
G04 Gerber Fmt 4.6, Leading zero omitted, Abs format (unit mm)*
G04 Created by KiCad (PCBNEW 10.0.3) date 2026-06-25 13:31:27*
%MOMM*%
%LPD*%
G01*
G04 APERTURE LIST*
%ADD10C,0.100000*%
%ADD11C,0.010000*%
%ADD12C,1.000000*%
G04 APERTURE END LIST*
D10*
X140812500Y-86450000D02*
X160087500Y-86450000D01*
X160087500Y-93225000D01*
X140812500Y-93225000D01*
X140812500Y-86450000D01*
X158958020Y-88033030D02*
X158691353Y-88833030D01*
X158691353Y-88833030D02*
X158424687Y-88033030D01*
X157853258Y-88794935D02*
X157929449Y-88833030D01*
X157929449Y-88833030D02*
X158081830Y-88833030D01*
X158081830Y-88833030D02*
X158158020Y-88794935D01*
X158158020Y-88794935D02*
X158196116Y-88718744D01*
X158196116Y-88718744D02*
X158196116Y-88413982D01*
X158196116Y-88413982D02*
X158158020Y-88337792D01*
X158158020Y-88337792D02*
X158081830Y-88299696D01*
X158081830Y-88299696D02*
X157929449Y-88299696D01*
X157929449Y-88299696D02*
X157853258Y-88337792D01*
X157853258Y-88337792D02*
X157815163Y-88413982D01*
X157815163Y-88413982D02*
X157815163Y-88490173D01*
X157815163Y-88490173D02*
X158196116Y-88566363D01*
X157472306Y-88833030D02*
X157472306Y-88299696D01*
X157472306Y-88452077D02*
X157434211Y-88375887D01*
X157434211Y-88375887D02*
X157396116Y-88337792D01*
X157396116Y-88337792D02*
X157319925Y-88299696D01*
X157319925Y-88299696D02*
X157243735Y-88299696D01*
X157015164Y-88794935D02*
X156938973Y-88833030D01*
X156938973Y-88833030D02*
X156786592Y-88833030D01*
X156786592Y-88833030D02*
X156710402Y-88794935D01*
X156710402Y-88794935D02*
X156672306Y-88718744D01*
X156672306Y-88718744D02*
X156672306Y-88680649D01*
X156672306Y-88680649D02*
X156710402Y-88604458D01*
X156710402Y-88604458D02*
X156786592Y-88566363D01*
X156786592Y-88566363D02*
X156900878Y-88566363D01*
X156900878Y-88566363D02*
X156977068Y-88528268D01*
X156977068Y-88528268D02*
X157015164Y-88452077D01*
X157015164Y-88452077D02*
X157015164Y-88413982D01*
X157015164Y-88413982D02*
X156977068Y-88337792D01*
X156977068Y-88337792D02*
X156900878Y-88299696D01*
X156900878Y-88299696D02*
X156786592Y-88299696D01*
X156786592Y-88299696D02*
X156710402Y-88337792D01*
X156329449Y-88833030D02*
X156329449Y-88299696D01*
X156329449Y-88033030D02*
X156367545Y-88071125D01*
X156367545Y-88071125D02*
X156329449Y-88109220D01*
X156329449Y-88109220D02*
X156291354Y-88071125D01*
X156291354Y-88071125D02*
X156329449Y-88033030D01*
X156329449Y-88033030D02*
X156329449Y-88109220D01*
X155834212Y-88833030D02*
X155910402Y-88794935D01*
X155910402Y-88794935D02*
X155948497Y-88756839D01*
X155948497Y-88756839D02*
X155986593Y-88680649D01*
X155986593Y-88680649D02*
X155986593Y-88452077D01*
X155986593Y-88452077D02*
X155948497Y-88375887D01*
X155948497Y-88375887D02*
X155910402Y-88337792D01*
X155910402Y-88337792D02*
X155834212Y-88299696D01*
X155834212Y-88299696D02*
X155719926Y-88299696D01*
X155719926Y-88299696D02*
X155643735Y-88337792D01*
X155643735Y-88337792D02*
X155605640Y-88375887D01*
X155605640Y-88375887D02*
X155567545Y-88452077D01*
X155567545Y-88452077D02*
X155567545Y-88680649D01*
X155567545Y-88680649D02*
X155605640Y-88756839D01*
X155605640Y-88756839D02*
X155643735Y-88794935D01*
X155643735Y-88794935D02*
X155719926Y-88833030D01*
X155719926Y-88833030D02*
X155834212Y-88833030D01*
X155224687Y-88299696D02*
X155224687Y-88833030D01*
X155224687Y-88375887D02*
X155186592Y-88337792D01*
X155186592Y-88337792D02*
X155110402Y-88299696D01*
X155110402Y-88299696D02*
X154996116Y-88299696D01*
X154996116Y-88299696D02*
X154919925Y-88337792D01*
X154919925Y-88337792D02*
X154881830Y-88413982D01*
X154881830Y-88413982D02*
X154881830Y-88833030D01*
X153472306Y-88833030D02*
X153929449Y-88833030D01*
X153700877Y-88833030D02*
X153700877Y-88033030D01*
X153700877Y-88033030D02*
X153777068Y-88147315D01*
X153777068Y-88147315D02*
X153853258Y-88223506D01*
X153853258Y-88223506D02*
X153929449Y-88261601D01*
X153129448Y-88756839D02*
X153091353Y-88794935D01*
X153091353Y-88794935D02*
X153129448Y-88833030D01*
X153129448Y-88833030D02*
X153167544Y-88794935D01*
X153167544Y-88794935D02*
X153129448Y-88756839D01*
X153129448Y-88756839D02*
X153129448Y-88833030D01*
X152596115Y-88033030D02*
X152519925Y-88033030D01*
X152519925Y-88033030D02*
X152443734Y-88071125D01*
X152443734Y-88071125D02*
X152405639Y-88109220D01*
X152405639Y-88109220D02*
X152367544Y-88185411D01*
X152367544Y-88185411D02*
X152329449Y-88337792D01*
X152329449Y-88337792D02*
X152329449Y-88528268D01*
X152329449Y-88528268D02*
X152367544Y-88680649D01*
X152367544Y-88680649D02*
X152405639Y-88756839D01*
X152405639Y-88756839D02*
X152443734Y-88794935D01*
X152443734Y-88794935D02*
X152519925Y-88833030D01*
X152519925Y-88833030D02*
X152596115Y-88833030D01*
X152596115Y-88833030D02*
X152672306Y-88794935D01*
X152672306Y-88794935D02*
X152710401Y-88756839D01*
X152710401Y-88756839D02*
X152748496Y-88680649D01*
X152748496Y-88680649D02*
X152786592Y-88528268D01*
X152786592Y-88528268D02*
X152786592Y-88337792D01*
X152786592Y-88337792D02*
X152748496Y-88185411D01*
X152748496Y-88185411D02*
X152710401Y-88109220D01*
X152710401Y-88109220D02*
X152672306Y-88071125D01*
X152672306Y-88071125D02*
X152596115Y-88033030D01*
X158958020Y-89320985D02*
X158500877Y-89320985D01*
X158729449Y-90120985D02*
X158729449Y-89320985D01*
X158234210Y-90120985D02*
X158234210Y-89587651D01*
X158234210Y-89320985D02*
X158272306Y-89359080D01*
X158272306Y-89359080D02*
X158234210Y-89397175D01*
X158234210Y-89397175D02*
X158196115Y-89359080D01*
X158196115Y-89359080D02*
X158234210Y-89320985D01*
X158234210Y-89320985D02*
X158234210Y-89397175D01*
X157853258Y-89587651D02*
X157853258Y-90120985D01*
X157853258Y-89663842D02*
X157815163Y-89625747D01*
X157815163Y-89625747D02*
X157738973Y-89587651D01*
X157738973Y-89587651D02*
X157624687Y-89587651D01*
X157624687Y-89587651D02*
X157548496Y-89625747D01*
X157548496Y-89625747D02*
X157510401Y-89701937D01*
X157510401Y-89701937D02*
X157510401Y-90120985D01*
X157205639Y-89587651D02*
X157015163Y-90120985D01*
X156824686Y-89587651D02*
X157015163Y-90120985D01*
X157015163Y-90120985D02*
X157091353Y-90311461D01*
X157091353Y-90311461D02*
X157129448Y-90349556D01*
X157129448Y-90349556D02*
X157205639Y-90387651D01*
X155948496Y-90082890D02*
X155834210Y-90120985D01*
X155834210Y-90120985D02*
X155643734Y-90120985D01*
X155643734Y-90120985D02*
X155567543Y-90082890D01*
X155567543Y-90082890D02*
X155529448Y-90044794D01*
X155529448Y-90044794D02*
X155491353Y-89968604D01*
X155491353Y-89968604D02*
X155491353Y-89892413D01*
X155491353Y-89892413D02*
X155529448Y-89816223D01*
X155529448Y-89816223D02*
X155567543Y-89778128D01*
X155567543Y-89778128D02*
X155643734Y-89740032D01*
X155643734Y-89740032D02*
X155796115Y-89701937D01*
X155796115Y-89701937D02*
X155872305Y-89663842D01*
X155872305Y-89663842D02*
X155910400Y-89625747D01*
X155910400Y-89625747D02*
X155948496Y-89549556D01*
X155948496Y-89549556D02*
X155948496Y-89473366D01*
X155948496Y-89473366D02*
X155910400Y-89397175D01*
X155910400Y-89397175D02*
X155872305Y-89359080D01*
X155872305Y-89359080D02*
X155796115Y-89320985D01*
X155796115Y-89320985D02*
X155605638Y-89320985D01*
X155605638Y-89320985D02*
X155491353Y-89359080D01*
X155034210Y-90120985D02*
X155110400Y-90082890D01*
X155110400Y-90082890D02*
X155148495Y-90044794D01*
X155148495Y-90044794D02*
X155186591Y-89968604D01*
X155186591Y-89968604D02*
X155186591Y-89740032D01*
X155186591Y-89740032D02*
X155148495Y-89663842D01*
X155148495Y-89663842D02*
X155110400Y-89625747D01*
X155110400Y-89625747D02*
X155034210Y-89587651D01*
X155034210Y-89587651D02*
X154919924Y-89587651D01*
X154919924Y-89587651D02*
X154843733Y-89625747D01*
X154843733Y-89625747D02*
X154805638Y-89663842D01*
X154805638Y-89663842D02*
X154767543Y-89740032D01*
X154767543Y-89740032D02*
X154767543Y-89968604D01*
X154767543Y-89968604D02*
X154805638Y-90044794D01*
X154805638Y-90044794D02*
X154843733Y-90082890D01*
X154843733Y-90082890D02*
X154919924Y-90120985D01*
X154919924Y-90120985D02*
X155034210Y-90120985D01*
X154310400Y-90120985D02*
X154386590Y-90082890D01*
X154386590Y-90082890D02*
X154424685Y-90006699D01*
X154424685Y-90006699D02*
X154424685Y-89320985D01*
X153662780Y-90120985D02*
X153662780Y-89701937D01*
X153662780Y-89701937D02*
X153700875Y-89625747D01*
X153700875Y-89625747D02*
X153777066Y-89587651D01*
X153777066Y-89587651D02*
X153929447Y-89587651D01*
X153929447Y-89587651D02*
X154005637Y-89625747D01*
X153662780Y-90082890D02*
X153738971Y-90120985D01*
X153738971Y-90120985D02*
X153929447Y-90120985D01*
X153929447Y-90120985D02*
X154005637Y-90082890D01*
X154005637Y-90082890D02*
X154043733Y-90006699D01*
X154043733Y-90006699D02*
X154043733Y-89930509D01*
X154043733Y-89930509D02*
X154005637Y-89854318D01*
X154005637Y-89854318D02*
X153929447Y-89816223D01*
X153929447Y-89816223D02*
X153738971Y-89816223D01*
X153738971Y-89816223D02*
X153662780Y-89778128D01*
X153281827Y-90120985D02*
X153281827Y-89587651D01*
X153281827Y-89740032D02*
X153243732Y-89663842D01*
X153243732Y-89663842D02*
X153205637Y-89625747D01*
X153205637Y-89625747D02*
X153129446Y-89587651D01*
X153129446Y-89587651D02*
X153053256Y-89587651D01*
X152177065Y-90120985D02*
X152177065Y-89320985D01*
X152177065Y-89320985D02*
X151872303Y-89320985D01*
X151872303Y-89320985D02*
X151796113Y-89359080D01*
X151796113Y-89359080D02*
X151758018Y-89397175D01*
X151758018Y-89397175D02*
X151719922Y-89473366D01*
X151719922Y-89473366D02*
X151719922Y-89587651D01*
X151719922Y-89587651D02*
X151758018Y-89663842D01*
X151758018Y-89663842D02*
X151796113Y-89701937D01*
X151796113Y-89701937D02*
X151872303Y-89740032D01*
X151872303Y-89740032D02*
X152177065Y-89740032D01*
X151262780Y-90120985D02*
X151338970Y-90082890D01*
X151338970Y-90082890D02*
X151377065Y-90044794D01*
X151377065Y-90044794D02*
X151415161Y-89968604D01*
X151415161Y-89968604D02*
X151415161Y-89740032D01*
X151415161Y-89740032D02*
X151377065Y-89663842D01*
X151377065Y-89663842D02*
X151338970Y-89625747D01*
X151338970Y-89625747D02*
X151262780Y-89587651D01*
X151262780Y-89587651D02*
X151148494Y-89587651D01*
X151148494Y-89587651D02*
X151072303Y-89625747D01*
X151072303Y-89625747D02*
X151034208Y-89663842D01*
X151034208Y-89663842D02*
X150996113Y-89740032D01*
X150996113Y-89740032D02*
X150996113Y-89968604D01*
X150996113Y-89968604D02*
X151034208Y-90044794D01*
X151034208Y-90044794D02*
X151072303Y-90082890D01*
X151072303Y-90082890D02*
X151148494Y-90120985D01*
X151148494Y-90120985D02*
X151262780Y-90120985D01*
X150729446Y-89587651D02*
X150577065Y-90120985D01*
X150577065Y-90120985D02*
X150424684Y-89740032D01*
X150424684Y-89740032D02*
X150272303Y-90120985D01*
X150272303Y-90120985D02*
X150119922Y-89587651D01*
X149510398Y-90082890D02*
X149586589Y-90120985D01*
X149586589Y-90120985D02*
X149738970Y-90120985D01*
X149738970Y-90120985D02*
X149815160Y-90082890D01*
X149815160Y-90082890D02*
X149853256Y-90006699D01*
X149853256Y-90006699D02*
X149853256Y-89701937D01*
X149853256Y-89701937D02*
X149815160Y-89625747D01*
X149815160Y-89625747D02*
X149738970Y-89587651D01*
X149738970Y-89587651D02*
X149586589Y-89587651D01*
X149586589Y-89587651D02*
X149510398Y-89625747D01*
X149510398Y-89625747D02*
X149472303Y-89701937D01*
X149472303Y-89701937D02*
X149472303Y-89778128D01*
X149472303Y-89778128D02*
X149853256Y-89854318D01*
X149129446Y-90120985D02*
X149129446Y-89587651D01*
X149129446Y-89740032D02*
X149091351Y-89663842D01*
X149091351Y-89663842D02*
X149053256Y-89625747D01*
X149053256Y-89625747D02*
X148977065Y-89587651D01*
X148977065Y-89587651D02*
X148900875Y-89587651D01*
X148062780Y-90082890D02*
X147948494Y-90120985D01*
X147948494Y-90120985D02*
X147758018Y-90120985D01*
X147758018Y-90120985D02*
X147681827Y-90082890D01*
X147681827Y-90082890D02*
X147643732Y-90044794D01*
X147643732Y-90044794D02*
X147605637Y-89968604D01*
X147605637Y-89968604D02*
X147605637Y-89892413D01*
X147605637Y-89892413D02*
X147643732Y-89816223D01*
X147643732Y-89816223D02*
X147681827Y-89778128D01*
X147681827Y-89778128D02*
X147758018Y-89740032D01*
X147758018Y-89740032D02*
X147910399Y-89701937D01*
X147910399Y-89701937D02*
X147986589Y-89663842D01*
X147986589Y-89663842D02*
X148024684Y-89625747D01*
X148024684Y-89625747D02*
X148062780Y-89549556D01*
X148062780Y-89549556D02*
X148062780Y-89473366D01*
X148062780Y-89473366D02*
X148024684Y-89397175D01*
X148024684Y-89397175D02*
X147986589Y-89359080D01*
X147986589Y-89359080D02*
X147910399Y-89320985D01*
X147910399Y-89320985D02*
X147719922Y-89320985D01*
X147719922Y-89320985D02*
X147605637Y-89359080D01*
X146919922Y-89587651D02*
X146919922Y-90120985D01*
X147262779Y-89587651D02*
X147262779Y-90006699D01*
X147262779Y-90006699D02*
X147224684Y-90082890D01*
X147224684Y-90082890D02*
X147148494Y-90120985D01*
X147148494Y-90120985D02*
X147034208Y-90120985D01*
X147034208Y-90120985D02*
X146958017Y-90082890D01*
X146958017Y-90082890D02*
X146919922Y-90044794D01*
X146538969Y-89587651D02*
X146538969Y-90387651D01*
X146538969Y-89625747D02*
X146462779Y-89587651D01*
X146462779Y-89587651D02*
X146310398Y-89587651D01*
X146310398Y-89587651D02*
X146234207Y-89625747D01*
X146234207Y-89625747D02*
X146196112Y-89663842D01*
X146196112Y-89663842D02*
X146158017Y-89740032D01*
X146158017Y-89740032D02*
X146158017Y-89968604D01*
X146158017Y-89968604D02*
X146196112Y-90044794D01*
X146196112Y-90044794D02*
X146234207Y-90082890D01*
X146234207Y-90082890D02*
X146310398Y-90120985D01*
X146310398Y-90120985D02*
X146462779Y-90120985D01*
X146462779Y-90120985D02*
X146538969Y-90082890D01*
X145815159Y-89587651D02*
X145815159Y-90387651D01*
X145815159Y-89625747D02*
X145738969Y-89587651D01*
X145738969Y-89587651D02*
X145586588Y-89587651D01*
X145586588Y-89587651D02*
X145510397Y-89625747D01*
X145510397Y-89625747D02*
X145472302Y-89663842D01*
X145472302Y-89663842D02*
X145434207Y-89740032D01*
X145434207Y-89740032D02*
X145434207Y-89968604D01*
X145434207Y-89968604D02*
X145472302Y-90044794D01*
X145472302Y-90044794D02*
X145510397Y-90082890D01*
X145510397Y-90082890D02*
X145586588Y-90120985D01*
X145586588Y-90120985D02*
X145738969Y-90120985D01*
X145738969Y-90120985D02*
X145815159Y-90082890D01*
X144977064Y-90120985D02*
X145053254Y-90082890D01*
X145053254Y-90082890D02*
X145091349Y-90006699D01*
X145091349Y-90006699D02*
X145091349Y-89320985D01*
X144748492Y-89587651D02*
X144558016Y-90120985D01*
X144367539Y-89587651D02*
X144558016Y-90120985D01*
X144558016Y-90120985D02*
X144634206Y-90311461D01*
X144634206Y-90311461D02*
X144672301Y-90349556D01*
X144672301Y-90349556D02*
X144748492Y-90387651D01*
X158386591Y-91332749D02*
X158424687Y-91370845D01*
X158424687Y-91370845D02*
X158538972Y-91408940D01*
X158538972Y-91408940D02*
X158615163Y-91408940D01*
X158615163Y-91408940D02*
X158729449Y-91370845D01*
X158729449Y-91370845D02*
X158805639Y-91294654D01*
X158805639Y-91294654D02*
X158843734Y-91218464D01*
X158843734Y-91218464D02*
X158881830Y-91066083D01*
X158881830Y-91066083D02*
X158881830Y-90951797D01*
X158881830Y-90951797D02*
X158843734Y-90799416D01*
X158843734Y-90799416D02*
X158805639Y-90723225D01*
X158805639Y-90723225D02*
X158729449Y-90647035D01*
X158729449Y-90647035D02*
X158615163Y-90608940D01*
X158615163Y-90608940D02*
X158538972Y-90608940D01*
X158538972Y-90608940D02*
X158424687Y-90647035D01*
X158424687Y-90647035D02*
X158386591Y-90685130D01*
X158043734Y-91408940D02*
X158043734Y-90875606D01*
X158043734Y-91027987D02*
X158005639Y-90951797D01*
X158005639Y-90951797D02*
X157967544Y-90913702D01*
X157967544Y-90913702D02*
X157891353Y-90875606D01*
X157891353Y-90875606D02*
X157815163Y-90875606D01*
X157243734Y-91370845D02*
X157319925Y-91408940D01*
X157319925Y-91408940D02*
X157472306Y-91408940D01*
X157472306Y-91408940D02*
X157548496Y-91370845D01*
X157548496Y-91370845D02*
X157586592Y-91294654D01*
X157586592Y-91294654D02*
X157586592Y-90989892D01*
X157586592Y-90989892D02*
X157548496Y-90913702D01*
X157548496Y-90913702D02*
X157472306Y-90875606D01*
X157472306Y-90875606D02*
X157319925Y-90875606D01*
X157319925Y-90875606D02*
X157243734Y-90913702D01*
X157243734Y-90913702D02*
X157205639Y-90989892D01*
X157205639Y-90989892D02*
X157205639Y-91066083D01*
X157205639Y-91066083D02*
X157586592Y-91142273D01*
X156519925Y-91408940D02*
X156519925Y-90989892D01*
X156519925Y-90989892D02*
X156558020Y-90913702D01*
X156558020Y-90913702D02*
X156634211Y-90875606D01*
X156634211Y-90875606D02*
X156786592Y-90875606D01*
X156786592Y-90875606D02*
X156862782Y-90913702D01*
X156519925Y-91370845D02*
X156596116Y-91408940D01*
X156596116Y-91408940D02*
X156786592Y-91408940D01*
X156786592Y-91408940D02*
X156862782Y-91370845D01*
X156862782Y-91370845D02*
X156900878Y-91294654D01*
X156900878Y-91294654D02*
X156900878Y-91218464D01*
X156900878Y-91218464D02*
X156862782Y-91142273D01*
X156862782Y-91142273D02*
X156786592Y-91104178D01*
X156786592Y-91104178D02*
X156596116Y-91104178D01*
X156596116Y-91104178D02*
X156519925Y-91066083D01*
X156253258Y-90875606D02*
X155948496Y-90875606D01*
X156138972Y-90608940D02*
X156138972Y-91294654D01*
X156138972Y-91294654D02*
X156100877Y-91370845D01*
X156100877Y-91370845D02*
X156024687Y-91408940D01*
X156024687Y-91408940D02*
X155948496Y-91408940D01*
X155338972Y-91408940D02*
X155338972Y-90608940D01*
X155338972Y-91370845D02*
X155415163Y-91408940D01*
X155415163Y-91408940D02*
X155567544Y-91408940D01*
X155567544Y-91408940D02*
X155643734Y-91370845D01*
X155643734Y-91370845D02*
X155681829Y-91332749D01*
X155681829Y-91332749D02*
X155719925Y-91256559D01*
X155719925Y-91256559D02*
X155719925Y-91027987D01*
X155719925Y-91027987D02*
X155681829Y-90951797D01*
X155681829Y-90951797D02*
X155643734Y-90913702D01*
X155643734Y-90913702D02*
X155567544Y-90875606D01*
X155567544Y-90875606D02*
X155415163Y-90875606D01*
X155415163Y-90875606D02*
X155338972Y-90913702D01*
X154348495Y-91408940D02*
X154348495Y-90608940D01*
X154348495Y-90913702D02*
X154272305Y-90875606D01*
X154272305Y-90875606D02*
X154119924Y-90875606D01*
X154119924Y-90875606D02*
X154043733Y-90913702D01*
X154043733Y-90913702D02*
X154005638Y-90951797D01*
X154005638Y-90951797D02*
X153967543Y-91027987D01*
X153967543Y-91027987D02*
X153967543Y-91256559D01*
X153967543Y-91256559D02*
X154005638Y-91332749D01*
X154005638Y-91332749D02*
X154043733Y-91370845D01*
X154043733Y-91370845D02*
X154119924Y-91408940D01*
X154119924Y-91408940D02*
X154272305Y-91408940D01*
X154272305Y-91408940D02*
X154348495Y-91370845D01*
X153700876Y-90875606D02*
X153510400Y-91408940D01*
X153319923Y-90875606D02*
X153510400Y-91408940D01*
X153510400Y-91408940D02*
X153586590Y-91599416D01*
X153586590Y-91599416D02*
X153624685Y-91637511D01*
X153624685Y-91637511D02*
X153700876Y-91675606D01*
X152481828Y-91408940D02*
X152062780Y-90875606D01*
X152481828Y-90875606D02*
X152062780Y-91408940D01*
X151834209Y-90875606D02*
X151643733Y-91408940D01*
X151453256Y-90875606D02*
X151643733Y-91408940D01*
X151643733Y-91408940D02*
X151719923Y-91599416D01*
X151719923Y-91599416D02*
X151758018Y-91637511D01*
X151758018Y-91637511D02*
X151834209Y-91675606D01*
X151224685Y-90875606D02*
X150805637Y-90875606D01*
X150805637Y-90875606D02*
X151224685Y-91408940D01*
X151224685Y-91408940D02*
X150805637Y-91408940D01*
X158386591Y-92620704D02*
X158424687Y-92658800D01*
X158424687Y-92658800D02*
X158538972Y-92696895D01*
X158538972Y-92696895D02*
X158615163Y-92696895D01*
X158615163Y-92696895D02*
X158729449Y-92658800D01*
X158729449Y-92658800D02*
X158805639Y-92582609D01*
X158805639Y-92582609D02*
X158843734Y-92506419D01*
X158843734Y-92506419D02*
X158881830Y-92354038D01*
X158881830Y-92354038D02*
X158881830Y-92239752D01*
X158881830Y-92239752D02*
X158843734Y-92087371D01*
X158843734Y-92087371D02*
X158805639Y-92011180D01*
X158805639Y-92011180D02*
X158729449Y-91934990D01*
X158729449Y-91934990D02*
X158615163Y-91896895D01*
X158615163Y-91896895D02*
X158538972Y-91896895D01*
X158538972Y-91896895D02*
X158424687Y-91934990D01*
X158424687Y-91934990D02*
X158386591Y-91973085D01*
X157929449Y-92696895D02*
X158005639Y-92658800D01*
X158005639Y-92658800D02*
X158043734Y-92620704D01*
X158043734Y-92620704D02*
X158081830Y-92544514D01*
X158081830Y-92544514D02*
X158081830Y-92315942D01*
X158081830Y-92315942D02*
X158043734Y-92239752D01*
X158043734Y-92239752D02*
X158005639Y-92201657D01*
X158005639Y-92201657D02*
X157929449Y-92163561D01*
X157929449Y-92163561D02*
X157815163Y-92163561D01*
X157815163Y-92163561D02*
X157738972Y-92201657D01*
X157738972Y-92201657D02*
X157700877Y-92239752D01*
X157700877Y-92239752D02*
X157662782Y-92315942D01*
X157662782Y-92315942D02*
X157662782Y-92544514D01*
X157662782Y-92544514D02*
X157700877Y-92620704D01*
X157700877Y-92620704D02*
X157738972Y-92658800D01*
X157738972Y-92658800D02*
X157815163Y-92696895D01*
X157815163Y-92696895D02*
X157929449Y-92696895D01*
X157319924Y-92163561D02*
X157319924Y-92963561D01*
X157319924Y-92201657D02*
X157243734Y-92163561D01*
X157243734Y-92163561D02*
X157091353Y-92163561D01*
X157091353Y-92163561D02*
X157015162Y-92201657D01*
X157015162Y-92201657D02*
X156977067Y-92239752D01*
X156977067Y-92239752D02*
X156938972Y-92315942D01*
X156938972Y-92315942D02*
X156938972Y-92544514D01*
X156938972Y-92544514D02*
X156977067Y-92620704D01*
X156977067Y-92620704D02*
X157015162Y-92658800D01*
X157015162Y-92658800D02*
X157091353Y-92696895D01*
X157091353Y-92696895D02*
X157243734Y-92696895D01*
X157243734Y-92696895D02*
X157319924Y-92658800D01*
X156596114Y-92696895D02*
X156596114Y-92163561D01*
X156596114Y-91896895D02*
X156634210Y-91934990D01*
X156634210Y-91934990D02*
X156596114Y-91973085D01*
X156596114Y-91973085D02*
X156558019Y-91934990D01*
X156558019Y-91934990D02*
X156596114Y-91896895D01*
X156596114Y-91896895D02*
X156596114Y-91973085D01*
X155910400Y-92658800D02*
X155986591Y-92696895D01*
X155986591Y-92696895D02*
X156138972Y-92696895D01*
X156138972Y-92696895D02*
X156215162Y-92658800D01*
X156215162Y-92658800D02*
X156253258Y-92582609D01*
X156253258Y-92582609D02*
X156253258Y-92277847D01*
X156253258Y-92277847D02*
X156215162Y-92201657D01*
X156215162Y-92201657D02*
X156138972Y-92163561D01*
X156138972Y-92163561D02*
X155986591Y-92163561D01*
X155986591Y-92163561D02*
X155910400Y-92201657D01*
X155910400Y-92201657D02*
X155872305Y-92277847D01*
X155872305Y-92277847D02*
X155872305Y-92354038D01*
X155872305Y-92354038D02*
X156253258Y-92430228D01*
X155186591Y-92696895D02*
X155186591Y-91896895D01*
X155186591Y-92658800D02*
X155262782Y-92696895D01*
X155262782Y-92696895D02*
X155415163Y-92696895D01*
X155415163Y-92696895D02*
X155491353Y-92658800D01*
X155491353Y-92658800D02*
X155529448Y-92620704D01*
X155529448Y-92620704D02*
X155567544Y-92544514D01*
X155567544Y-92544514D02*
X155567544Y-92315942D01*
X155567544Y-92315942D02*
X155529448Y-92239752D01*
X155529448Y-92239752D02*
X155491353Y-92201657D01*
X155491353Y-92201657D02*
X155415163Y-92163561D01*
X155415163Y-92163561D02*
X155262782Y-92163561D01*
X155262782Y-92163561D02*
X155186591Y-92201657D01*
X154196114Y-92696895D02*
X154196114Y-92163561D01*
X154196114Y-91896895D02*
X154234210Y-91934990D01*
X154234210Y-91934990D02*
X154196114Y-91973085D01*
X154196114Y-91973085D02*
X154158019Y-91934990D01*
X154158019Y-91934990D02*
X154196114Y-91896895D01*
X154196114Y-91896895D02*
X154196114Y-91973085D01*
X153815162Y-92163561D02*
X153815162Y-92696895D01*
X153815162Y-92239752D02*
X153777067Y-92201657D01*
X153777067Y-92201657D02*
X153700877Y-92163561D01*
X153700877Y-92163561D02*
X153586591Y-92163561D01*
X153586591Y-92163561D02*
X153510400Y-92201657D01*
X153510400Y-92201657D02*
X153472305Y-92277847D01*
X153472305Y-92277847D02*
X153472305Y-92696895D01*
X153205638Y-92163561D02*
X152900876Y-92163561D01*
X153091352Y-91896895D02*
X153091352Y-92582609D01*
X153091352Y-92582609D02*
X153053257Y-92658800D01*
X153053257Y-92658800D02*
X152977067Y-92696895D01*
X152977067Y-92696895D02*
X152900876Y-92696895D01*
X152519924Y-92696895D02*
X152596114Y-92658800D01*
X152596114Y-92658800D02*
X152634209Y-92620704D01*
X152634209Y-92620704D02*
X152672305Y-92544514D01*
X152672305Y-92544514D02*
X152672305Y-92315942D01*
X152672305Y-92315942D02*
X152634209Y-92239752D01*
X152634209Y-92239752D02*
X152596114Y-92201657D01*
X152596114Y-92201657D02*
X152519924Y-92163561D01*
X152519924Y-92163561D02*
X152405638Y-92163561D01*
X152405638Y-92163561D02*
X152329447Y-92201657D01*
X152329447Y-92201657D02*
X152291352Y-92239752D01*
X152291352Y-92239752D02*
X152253257Y-92315942D01*
X152253257Y-92315942D02*
X152253257Y-92544514D01*
X152253257Y-92544514D02*
X152291352Y-92620704D01*
X152291352Y-92620704D02*
X152329447Y-92658800D01*
X152329447Y-92658800D02*
X152405638Y-92696895D01*
X152405638Y-92696895D02*
X152519924Y-92696895D01*
X151300875Y-92696895D02*
X151300875Y-91896895D01*
X151224685Y-92392133D02*
X150996113Y-92696895D01*
X150996113Y-92163561D02*
X151300875Y-92468323D01*
X150653256Y-92696895D02*
X150653256Y-92163561D01*
X150653256Y-91896895D02*
X150691352Y-91934990D01*
X150691352Y-91934990D02*
X150653256Y-91973085D01*
X150653256Y-91973085D02*
X150615161Y-91934990D01*
X150615161Y-91934990D02*
X150653256Y-91896895D01*
X150653256Y-91896895D02*
X150653256Y-91973085D01*
X149815161Y-92620704D02*
X149853257Y-92658800D01*
X149853257Y-92658800D02*
X149967542Y-92696895D01*
X149967542Y-92696895D02*
X150043733Y-92696895D01*
X150043733Y-92696895D02*
X150158019Y-92658800D01*
X150158019Y-92658800D02*
X150234209Y-92582609D01*
X150234209Y-92582609D02*
X150272304Y-92506419D01*
X150272304Y-92506419D02*
X150310400Y-92354038D01*
X150310400Y-92354038D02*
X150310400Y-92239752D01*
X150310400Y-92239752D02*
X150272304Y-92087371D01*
X150272304Y-92087371D02*
X150234209Y-92011180D01*
X150234209Y-92011180D02*
X150158019Y-91934990D01*
X150158019Y-91934990D02*
X150043733Y-91896895D01*
X150043733Y-91896895D02*
X149967542Y-91896895D01*
X149967542Y-91896895D02*
X149853257Y-91934990D01*
X149853257Y-91934990D02*
X149815161Y-91973085D01*
X149129447Y-92696895D02*
X149129447Y-92277847D01*
X149129447Y-92277847D02*
X149167542Y-92201657D01*
X149167542Y-92201657D02*
X149243733Y-92163561D01*
X149243733Y-92163561D02*
X149396114Y-92163561D01*
X149396114Y-92163561D02*
X149472304Y-92201657D01*
X149129447Y-92658800D02*
X149205638Y-92696895D01*
X149205638Y-92696895D02*
X149396114Y-92696895D01*
X149396114Y-92696895D02*
X149472304Y-92658800D01*
X149472304Y-92658800D02*
X149510400Y-92582609D01*
X149510400Y-92582609D02*
X149510400Y-92506419D01*
X149510400Y-92506419D02*
X149472304Y-92430228D01*
X149472304Y-92430228D02*
X149396114Y-92392133D01*
X149396114Y-92392133D02*
X149205638Y-92392133D01*
X149205638Y-92392133D02*
X149129447Y-92354038D01*
X148405637Y-92696895D02*
X148405637Y-91896895D01*
X148405637Y-92658800D02*
X148481828Y-92696895D01*
X148481828Y-92696895D02*
X148634209Y-92696895D01*
X148634209Y-92696895D02*
X148710399Y-92658800D01*
X148710399Y-92658800D02*
X148748494Y-92620704D01*
X148748494Y-92620704D02*
X148786590Y-92544514D01*
X148786590Y-92544514D02*
X148786590Y-92315942D01*
X148786590Y-92315942D02*
X148748494Y-92239752D01*
X148748494Y-92239752D02*
X148710399Y-92201657D01*
X148710399Y-92201657D02*
X148634209Y-92163561D01*
X148634209Y-92163561D02*
X148481828Y-92163561D01*
X148481828Y-92163561D02*
X148405637Y-92201657D01*
D11*
%TO.C,REF\u002A\u002A*%
X154678741Y-97874509D02*
X154582466Y-97898747D01*
X154495882Y-97941579D01*
X154421071Y-98001357D01*
X154360116Y-98076432D01*
X154315097Y-98165158D01*
X154288834Y-98261468D01*
X154282984Y-98358733D01*
X154297838Y-98452592D01*
X154331538Y-98540449D01*
X154382226Y-98619708D01*
X154448043Y-98687774D01*
X154527132Y-98742050D01*
X154617632Y-98779940D01*
X154668898Y-98792364D01*
X154713396Y-98799885D01*
X154747697Y-98802857D01*
X154780658Y-98801032D01*
X154821132Y-98794163D01*
X154854229Y-98787188D01*
X154947645Y-98755679D01*
X155031317Y-98704555D01*
X155103363Y-98635367D01*
X155161898Y-98549666D01*
X155175846Y-98522427D01*
X155192284Y-98486060D01*
X155202592Y-98455520D01*
X155208158Y-98423388D01*
X155210367Y-98382245D01*
X155210646Y-98336160D01*
X155206559Y-98251803D01*
X155193144Y-98182524D01*
X155167954Y-98121899D01*
X155128544Y-98063505D01*
X155089996Y-98019240D01*
X155018104Y-97953422D01*
X154943011Y-97907991D01*
X154860260Y-97880788D01*
X154782626Y-97870514D01*
X154678741Y-97874509D01*
G36*
X154860260Y-97880788D02*
G01*
X154943011Y-97907991D01*
X155018104Y-97953422D01*
X155089996Y-98019240D01*
X155128544Y-98063505D01*
X155167954Y-98121899D01*
X155193144Y-98182524D01*
X155206559Y-98251803D01*
X155210646Y-98336160D01*
X155210367Y-98382245D01*
X155208158Y-98423388D01*
X155202592Y-98455520D01*
X155192284Y-98486060D01*
X155175846Y-98522427D01*
X155161898Y-98549666D01*
X155103363Y-98635367D01*
X155031317Y-98704555D01*
X154947645Y-98755679D01*
X154854229Y-98787188D01*
X154821132Y-98794163D01*
X154780658Y-98801032D01*
X154747697Y-98802857D01*
X154713396Y-98799885D01*
X154668898Y-98792364D01*
X154617632Y-98779940D01*
X154527132Y-98742050D01*
X154448043Y-98687774D01*
X154382226Y-98619708D01*
X154331538Y-98540449D01*
X154297838Y-98452592D01*
X154282984Y-98358733D01*
X154288834Y-98261468D01*
X154315097Y-98165158D01*
X154360116Y-98076432D01*
X154421071Y-98001357D01*
X154495882Y-97941579D01*
X154582466Y-97898747D01*
X154678741Y-97874509D01*
X154782626Y-97870514D01*
X154860260Y-97880788D01*
G37*
X152077269Y-98797009D02*
X151917128Y-98818183D01*
X151753188Y-98858323D01*
X151583385Y-98917827D01*
X151405655Y-98997092D01*
X151394388Y-99002637D01*
X151336693Y-99030663D01*
X151285146Y-99054740D01*
X151243507Y-99073187D01*
X151215536Y-99084324D01*
X151205965Y-99086871D01*
X151186748Y-99091879D01*
X151182137Y-99096085D01*
X151187240Y-99106518D01*
X151203280Y-99132806D01*
X151228410Y-99172195D01*
X151260784Y-99221929D01*
X151298555Y-99279253D01*
X151339876Y-99341414D01*
X151382900Y-99405656D01*
X151425781Y-99469223D01*
X151466672Y-99529363D01*
X151503727Y-99583318D01*
X151535098Y-99628335D01*
X151558939Y-99661659D01*
X151573404Y-99680535D01*
X151575389Y-99682725D01*
X151585507Y-99678076D01*
X151607848Y-99660900D01*
X151638418Y-99634378D01*
X151654162Y-99619902D01*
X151750651Y-99544620D01*
X151857362Y-99489179D01*
X151972866Y-99454079D01*
X152095736Y-99439818D01*
X152165137Y-99440989D01*
X152286275Y-99458150D01*
X152395493Y-99494032D01*
X152493116Y-99548897D01*
X152579470Y-99623008D01*
X152654883Y-99716626D01*
X152719680Y-99830014D01*
X152757097Y-99916605D01*
X152800950Y-100052304D01*
X152833270Y-100199788D01*
X152854141Y-100355252D01*
X152863647Y-100514894D01*
X152861871Y-100674911D01*
X152848895Y-100831499D01*
X152824804Y-100980856D01*
X152789680Y-101119178D01*
X152743606Y-101242662D01*
X152727325Y-101276916D01*
X152659078Y-101391002D01*
X152578619Y-101487495D01*
X152487128Y-101565608D01*
X152385787Y-101624555D01*
X152275778Y-101663550D01*
X152158283Y-101681806D01*
X152116815Y-101683149D01*
X151995257Y-101672228D01*
X151874820Y-101639412D01*
X151757032Y-101585377D01*
X151643421Y-101510803D01*
X151552013Y-101432477D01*
X151505483Y-101387946D01*
X151324215Y-101685209D01*
X151279118Y-101759371D01*
X151237879Y-101827584D01*
X151201963Y-101887397D01*
X151172832Y-101936358D01*
X151151948Y-101972017D01*
X151140774Y-101991922D01*
X151139323Y-101995017D01*
X151147552Y-102004656D01*
X151173131Y-102021937D01*
X151212825Y-102045221D01*
X151263401Y-102072872D01*
X151321624Y-102103253D01*
X151384261Y-102134728D01*
X151448077Y-102165660D01*
X151509838Y-102194411D01*
X151566310Y-102219346D01*
X151614260Y-102238827D01*
X151637712Y-102247256D01*
X151771477Y-102285071D01*
X151909371Y-102310074D01*
X152057076Y-102323078D01*
X152183865Y-102325406D01*
X152251820Y-102324311D01*
X152317421Y-102322213D01*
X152374851Y-102319372D01*
X152418295Y-102316044D01*
X152432400Y-102314360D01*
X152571414Y-102285525D01*
X152712941Y-102240406D01*
X152850423Y-102181688D01*
X152977304Y-102112058D01*
X153054809Y-102059379D01*
X153182217Y-101951177D01*
X153300520Y-101824609D01*
X153407526Y-101682804D01*
X153501046Y-101528889D01*
X153578888Y-101365991D01*
X153622742Y-101248694D01*
X153672990Y-101065066D01*
X153706489Y-100870519D01*
X153723249Y-100669263D01*
X153723282Y-100465506D01*
X153706597Y-100263459D01*
X153673205Y-100067330D01*
X153623118Y-99881329D01*
X153619301Y-99869741D01*
X153556417Y-99707688D01*
X153479670Y-99559770D01*
X153386456Y-99421803D01*
X153274171Y-99289599D01*
X153230306Y-99244337D01*
X153094164Y-99120395D01*
X152954207Y-99017853D01*
X152808287Y-98935594D01*
X152654256Y-98872502D01*
X152489966Y-98827461D01*
X152394409Y-98809971D01*
X152235675Y-98794404D01*
X152077269Y-98797009D01*
G36*
X152394409Y-98809971D02*
G01*
X152489966Y-98827461D01*
X152654256Y-98872502D01*
X152808287Y-98935594D01*
X152954207Y-99017853D01*
X153094164Y-99120395D01*
X153230306Y-99244337D01*
X153274171Y-99289599D01*
X153386456Y-99421803D01*
X153479670Y-99559770D01*
X153556417Y-99707688D01*
X153619301Y-99869741D01*
X153623118Y-99881329D01*
X153673205Y-100067330D01*
X153706597Y-100263459D01*
X153723282Y-100465506D01*
X153723249Y-100669263D01*
X153706489Y-100870519D01*
X153672990Y-101065066D01*
X153622742Y-101248694D01*
X153578888Y-101365991D01*
X153501046Y-101528889D01*
X153407526Y-101682804D01*
X153300520Y-101824609D01*
X153182217Y-101951177D01*
X153054809Y-102059379D01*
X152977304Y-102112058D01*
X152850423Y-102181688D01*
X152712941Y-102240406D01*
X152571414Y-102285525D01*
X152432400Y-102314360D01*
X152418295Y-102316044D01*
X152374851Y-102319372D01*
X152317421Y-102322213D01*
X152251820Y-102324311D01*
X152183865Y-102325406D01*
X152057076Y-102323078D01*
X151909371Y-102310074D01*
X151771477Y-102285071D01*
X151637712Y-102247256D01*
X151614260Y-102238827D01*
X151566310Y-102219346D01*
X151509838Y-102194411D01*
X151448077Y-102165660D01*
X151384261Y-102134728D01*
X151321624Y-102103253D01*
X151263401Y-102072872D01*
X151212825Y-102045221D01*
X151173131Y-102021937D01*
X151147552Y-102004656D01*
X151139323Y-101995017D01*
X151140774Y-101991922D01*
X151151948Y-101972017D01*
X151172832Y-101936358D01*
X151201963Y-101887397D01*
X151237879Y-101827584D01*
X151279118Y-101759371D01*
X151324215Y-101685209D01*
X151505483Y-101387946D01*
X151552013Y-101432477D01*
X151643421Y-101510803D01*
X151757032Y-101585377D01*
X151874820Y-101639412D01*
X151995257Y-101672228D01*
X152116815Y-101683149D01*
X152158283Y-101681806D01*
X152275778Y-101663550D01*
X152385787Y-101624555D01*
X152487128Y-101565608D01*
X152578619Y-101487495D01*
X152659078Y-101391002D01*
X152727325Y-101276916D01*
X152743606Y-101242662D01*
X152789680Y-101119178D01*
X152824804Y-100980856D01*
X152848895Y-100831499D01*
X152861871Y-100674911D01*
X152863647Y-100514894D01*
X152854141Y-100355252D01*
X152833270Y-100199788D01*
X152800950Y-100052304D01*
X152757097Y-99916605D01*
X152719680Y-99830014D01*
X152654883Y-99716626D01*
X152579470Y-99623008D01*
X152493116Y-99548897D01*
X152395493Y-99494032D01*
X152286275Y-99458150D01*
X152165137Y-99440989D01*
X152095736Y-99439818D01*
X151972866Y-99454079D01*
X151857362Y-99489179D01*
X151750651Y-99544620D01*
X151654162Y-99619902D01*
X151638418Y-99634378D01*
X151607848Y-99660900D01*
X151585507Y-99678076D01*
X151575389Y-99682725D01*
X151573404Y-99680535D01*
X151558939Y-99661659D01*
X151535098Y-99628335D01*
X151503727Y-99583318D01*
X151466672Y-99529363D01*
X151425781Y-99469223D01*
X151382900Y-99405656D01*
X151339876Y-99341414D01*
X151298555Y-99279253D01*
X151260784Y-99221929D01*
X151228410Y-99172195D01*
X151203280Y-99132806D01*
X151187240Y-99106518D01*
X151182137Y-99096085D01*
X151186748Y-99091879D01*
X151205965Y-99086871D01*
X151215536Y-99084324D01*
X151243507Y-99073187D01*
X151285146Y-99054740D01*
X151336693Y-99030663D01*
X151394388Y-99002637D01*
X151405655Y-98997092D01*
X151583385Y-98917827D01*
X151753188Y-98858323D01*
X151917128Y-98818183D01*
X152077269Y-98797009D01*
X152235675Y-98794404D01*
X152394409Y-98809971D01*
G37*
X146219191Y-100320183D02*
X146219172Y-100554600D01*
X146219146Y-100767541D01*
X146219073Y-100960106D01*
X146218916Y-101133397D01*
X146218634Y-101288514D01*
X146218189Y-101426558D01*
X146217542Y-101548630D01*
X146216653Y-101655832D01*
X146215485Y-101749264D01*
X146213997Y-101830028D01*
X146212152Y-101899224D01*
X146209909Y-101957953D01*
X146207229Y-102007317D01*
X146204075Y-102048416D01*
X146200406Y-102082351D01*
X146196185Y-102110224D01*
X146191371Y-102133136D01*
X146185925Y-102152187D01*
X146179810Y-102168478D01*
X146172986Y-102183111D01*
X146165413Y-102197187D01*
X146157053Y-102211806D01*
X146151859Y-102220912D01*
X146117594Y-102281627D01*
X146975743Y-102281627D01*
X146975743Y-102185671D01*
X146976474Y-102142308D01*
X146978426Y-102109143D01*
X146981235Y-102091362D01*
X146982477Y-102089716D01*
X146993899Y-102096600D01*
X147016614Y-102114443D01*
X147039313Y-102133817D01*
X147093898Y-102174552D01*
X147163377Y-102215555D01*
X147240428Y-102253061D01*
X147317733Y-102283302D01*
X147348585Y-102292950D01*
X147417082Y-102307516D01*
X147499934Y-102317477D01*
X147589327Y-102322521D01*
X147677450Y-102322334D01*
X147756491Y-102316604D01*
X147794187Y-102310796D01*
X147932284Y-102272735D01*
X148059585Y-102215011D01*
X148175406Y-102138149D01*
X148279061Y-102042677D01*
X148369865Y-101929117D01*
X148436667Y-101818319D01*
X148491534Y-101701563D01*
X148533535Y-101582214D01*
X148563531Y-101456221D01*
X148582387Y-101319532D01*
X148590966Y-101168096D01*
X148591692Y-101090649D01*
X148589598Y-101033872D01*
X147760481Y-101033872D01*
X147760274Y-101126940D01*
X147757361Y-101214630D01*
X147751698Y-101291710D01*
X147743243Y-101352947D01*
X147740660Y-101365288D01*
X147708858Y-101472571D01*
X147667200Y-101559596D01*
X147615335Y-101626580D01*
X147552917Y-101673743D01*
X147479598Y-101701303D01*
X147395029Y-101709479D01*
X147298863Y-101698489D01*
X147235387Y-101682767D01*
X147186244Y-101664577D01*
X147132115Y-101638729D01*
X147091454Y-101615027D01*
X147020898Y-101568659D01*
X147020898Y-100418468D01*
X147088306Y-100374900D01*
X147166831Y-100333978D01*
X147251017Y-100307327D01*
X147336141Y-100295403D01*
X147417482Y-100298660D01*
X147490318Y-100317553D01*
X147522272Y-100333122D01*
X147580197Y-100376119D01*
X147629154Y-100432891D01*
X147670308Y-100505513D01*
X147704824Y-100596059D01*
X147733865Y-100706604D01*
X147735146Y-100712471D01*
X147745317Y-100774726D01*
X147752959Y-100852532D01*
X147758028Y-100940658D01*
X147760481Y-101033872D01*
X148589598Y-101033872D01*
X148583841Y-100877833D01*
X148561896Y-100681997D01*
X148525912Y-100503270D01*
X148475939Y-100341783D01*
X148412030Y-100197664D01*
X148334236Y-100071044D01*
X148242609Y-99962053D01*
X148137201Y-99870821D01*
X148092036Y-99839870D01*
X147991087Y-99783723D01*
X147887797Y-99744112D01*
X147777709Y-99719952D01*
X147656368Y-99710157D01*
X147563862Y-99711203D01*
X147434208Y-99722169D01*
X147321614Y-99743984D01*
X147222823Y-99777652D01*
X147134577Y-99824174D01*
X147085712Y-99858386D01*
X147056345Y-99880300D01*
X147034655Y-99895271D01*
X147026445Y-99899671D01*
X147024830Y-99888842D01*
X147023539Y-99858189D01*
X147022560Y-99810464D01*
X147021881Y-99748417D01*
X147021488Y-99674800D01*
X147021368Y-99592365D01*
X147021510Y-99503863D01*
X147021901Y-99412045D01*
X147022527Y-99319662D01*
X147023378Y-99229466D01*
X147024438Y-99144209D01*
X147025697Y-99066641D01*
X147027142Y-98999514D01*
X147028760Y-98945579D01*
X147030537Y-98907588D01*
X147031029Y-98900605D01*
X147038606Y-98830189D01*
X147050167Y-98775040D01*
X147067906Y-98727919D01*
X147094016Y-98681585D01*
X147100283Y-98672005D01*
X147124715Y-98635316D01*
X146219387Y-98635316D01*
X146219191Y-100320183D01*
G36*
X148591692Y-101090649D02*
G01*
X148590966Y-101168096D01*
X148582387Y-101319532D01*
X148563531Y-101456221D01*
X148533535Y-101582214D01*
X148491534Y-101701563D01*
X148436667Y-101818319D01*
X148369865Y-101929117D01*
X148279061Y-102042677D01*
X148175406Y-102138149D01*
X148059585Y-102215011D01*
X147932284Y-102272735D01*
X147794187Y-102310796D01*
X147756491Y-102316604D01*
X147677450Y-102322334D01*
X147589327Y-102322521D01*
X147499934Y-102317477D01*
X147417082Y-102307516D01*
X147348585Y-102292950D01*
X147317733Y-102283302D01*
X147240428Y-102253061D01*
X147163377Y-102215555D01*
X147093898Y-102174552D01*
X147039313Y-102133817D01*
X147016614Y-102114443D01*
X146993899Y-102096600D01*
X146982477Y-102089716D01*
X146981235Y-102091362D01*
X146978426Y-102109143D01*
X146976474Y-102142308D01*
X146975743Y-102185671D01*
X146975743Y-102281627D01*
X146117594Y-102281627D01*
X146151859Y-102220912D01*
X146157053Y-102211806D01*
X146165413Y-102197187D01*
X146172986Y-102183111D01*
X146179810Y-102168478D01*
X146185925Y-102152187D01*
X146191371Y-102133136D01*
X146196185Y-102110224D01*
X146200406Y-102082351D01*
X146204075Y-102048416D01*
X146207229Y-102007317D01*
X146209909Y-101957953D01*
X146212152Y-101899224D01*
X146213997Y-101830028D01*
X146215485Y-101749264D01*
X146216653Y-101655832D01*
X146217542Y-101548630D01*
X146218189Y-101426558D01*
X146218634Y-101288514D01*
X146218916Y-101133397D01*
X146219073Y-100960106D01*
X146219146Y-100767541D01*
X146219172Y-100554600D01*
X146219183Y-100418468D01*
X147020898Y-100418468D01*
X147020898Y-101568659D01*
X147091454Y-101615027D01*
X147132115Y-101638729D01*
X147186244Y-101664577D01*
X147235387Y-101682767D01*
X147298863Y-101698489D01*
X147395029Y-101709479D01*
X147479598Y-101701303D01*
X147552917Y-101673743D01*
X147615335Y-101626580D01*
X147667200Y-101559596D01*
X147708858Y-101472571D01*
X147740660Y-101365288D01*
X147743243Y-101352947D01*
X147751698Y-101291710D01*
X147757361Y-101214630D01*
X147760274Y-101126940D01*
X147760481Y-101033872D01*
X147758028Y-100940658D01*
X147752959Y-100852532D01*
X147745317Y-100774726D01*
X147735146Y-100712471D01*
X147733865Y-100706604D01*
X147704824Y-100596059D01*
X147670308Y-100505513D01*
X147629154Y-100432891D01*
X147580197Y-100376119D01*
X147522272Y-100333122D01*
X147490318Y-100317553D01*
X147417482Y-100298660D01*
X147336141Y-100295403D01*
X147251017Y-100307327D01*
X147166831Y-100333978D01*
X147088306Y-100374900D01*
X147020898Y-100418468D01*
X146219183Y-100418468D01*
X146219191Y-100320183D01*
X146219387Y-98635316D01*
X147124715Y-98635316D01*
X147100283Y-98672005D01*
X147094016Y-98681585D01*
X147067906Y-98727919D01*
X147050167Y-98775040D01*
X147038606Y-98830189D01*
X147031029Y-98900605D01*
X147030537Y-98907588D01*
X147028760Y-98945579D01*
X147027142Y-98999514D01*
X147025697Y-99066641D01*
X147024438Y-99144209D01*
X147023378Y-99229466D01*
X147022527Y-99319662D01*
X147021901Y-99412045D01*
X147021510Y-99503863D01*
X147021368Y-99592365D01*
X147021488Y-99674800D01*
X147021881Y-99748417D01*
X147022560Y-99810464D01*
X147023539Y-99858189D01*
X147024830Y-99888842D01*
X147026445Y-99899671D01*
X147034655Y-99895271D01*
X147056345Y-99880300D01*
X147085712Y-99858386D01*
X147134577Y-99824174D01*
X147222823Y-99777652D01*
X147321614Y-99743984D01*
X147434208Y-99722169D01*
X147563862Y-99711203D01*
X147656368Y-99710157D01*
X147777709Y-99719952D01*
X147887797Y-99744112D01*
X147991087Y-99783723D01*
X148092036Y-99839870D01*
X148137201Y-99870821D01*
X148242609Y-99962053D01*
X148334236Y-100071044D01*
X148412030Y-100197664D01*
X148475939Y-100341783D01*
X148525912Y-100503270D01*
X148561896Y-100681997D01*
X148583841Y-100877833D01*
X148589598Y-101033872D01*
X148591692Y-101090649D01*
G37*
X149732124Y-99714490D02*
X149580206Y-99734505D01*
X149444942Y-99768140D01*
X149325459Y-99815663D01*
X149220883Y-99877343D01*
X149143274Y-99940903D01*
X149074433Y-100015037D01*
X149020692Y-100094809D01*
X148977788Y-100187029D01*
X148962314Y-100230099D01*
X148949454Y-100269080D01*
X148938252Y-100305227D01*
X148928578Y-100340372D01*
X148920302Y-100376348D01*
X148913295Y-100414988D01*
X148907426Y-100458123D01*
X148902567Y-100507587D01*
X148898588Y-100565211D01*
X148895358Y-100632829D01*
X148892749Y-100712272D01*
X148890631Y-100805374D01*
X148888874Y-100913965D01*
X148887349Y-101039880D01*
X148885926Y-101184950D01*
X148884673Y-101327716D01*
X148883347Y-101483906D01*
X148882142Y-101619177D01*
X148880932Y-101735184D01*
X148879592Y-101833583D01*
X148877998Y-101916031D01*
X148876023Y-101984184D01*
X148873542Y-102039698D01*
X148870429Y-102084230D01*
X148866560Y-102119436D01*
X148861809Y-102146972D01*
X148856050Y-102168494D01*
X148849159Y-102185660D01*
X148841009Y-102200124D01*
X148831475Y-102213544D01*
X148820432Y-102227576D01*
X148816132Y-102233009D01*
X148800312Y-102255848D01*
X148793276Y-102271401D01*
X148793254Y-102271860D01*
X148804131Y-102274059D01*
X148835116Y-102276085D01*
X148883741Y-102277880D01*
X148947535Y-102279389D01*
X149024029Y-102280554D01*
X149110754Y-102281318D01*
X149205241Y-102281624D01*
X149216148Y-102281627D01*
X149639041Y-102281627D01*
X149642303Y-102185560D01*
X149645565Y-102089494D01*
X149707654Y-102140481D01*
X149804984Y-102207995D01*
X149914885Y-102262687D01*
X150001349Y-102292916D01*
X150070420Y-102307604D01*
X150153773Y-102317597D01*
X150243539Y-102322584D01*
X150331853Y-102322251D01*
X150410847Y-102316289D01*
X150447076Y-102310576D01*
X150587095Y-102272714D01*
X150713520Y-102217870D01*
X150825438Y-102146862D01*
X150921936Y-102060506D01*
X151002098Y-101959617D01*
X151065011Y-101845014D01*
X151109386Y-101718922D01*
X151121720Y-101662339D01*
X151129330Y-101600140D01*
X151132959Y-101525301D01*
X151133453Y-101491405D01*
X151133388Y-101488220D01*
X150373450Y-101488220D01*
X150364157Y-101563271D01*
X150335970Y-101627098D01*
X150287501Y-101682736D01*
X150282444Y-101687149D01*
X150234150Y-101721975D01*
X150182441Y-101744558D01*
X150121709Y-101756478D01*
X150046346Y-101759321D01*
X150028239Y-101758916D01*
X149974420Y-101756263D01*
X149934390Y-101750847D01*
X149899374Y-101740683D01*
X149860595Y-101723788D01*
X149849953Y-101718610D01*
X149789302Y-101682782D01*
X149742483Y-101640150D01*
X149729746Y-101624911D01*
X149685076Y-101568400D01*
X149685076Y-101372524D01*
X149685612Y-101293877D01*
X149687302Y-101235926D01*
X149690270Y-101196813D01*
X149694641Y-101174679D01*
X149698726Y-101168212D01*
X149714651Y-101165049D01*
X149748434Y-101162426D01*
X149795358Y-101160593D01*
X149850705Y-101159795D01*
X149859592Y-101159780D01*
X149980368Y-101165034D01*
X150083038Y-101181201D01*
X150169592Y-101208899D01*
X150242017Y-101248746D01*
X150296947Y-101295696D01*
X150341494Y-101353583D01*
X150366218Y-101416631D01*
X150373450Y-101488220D01*
X151133388Y-101488220D01*
X151131520Y-101397650D01*
X151123176Y-101318750D01*
X151106930Y-101247528D01*
X151081293Y-101176802D01*
X151057297Y-101124431D01*
X150998678Y-101029134D01*
X150920581Y-100941108D01*
X150825383Y-100861955D01*
X150715460Y-100793278D01*
X150593188Y-100736679D01*
X150460943Y-100693759D01*
X150396276Y-100678820D01*
X150260094Y-100656715D01*
X150111649Y-100642132D01*
X149960193Y-100635751D01*
X149833634Y-100637383D01*
X149671748Y-100644162D01*
X149679168Y-100585183D01*
X149698460Y-100486030D01*
X149729594Y-100405310D01*
X149773429Y-100342404D01*
X149830827Y-100296694D01*
X149902650Y-100267560D01*
X149989757Y-100254385D01*
X150093012Y-100256549D01*
X150130987Y-100260550D01*
X150272178Y-100285718D01*
X150408991Y-100326752D01*
X150503520Y-100364753D01*
X150548680Y-100384128D01*
X150587113Y-100399698D01*
X150613464Y-100409343D01*
X150621152Y-100411390D01*
X150630896Y-100402312D01*
X150647615Y-100373343D01*
X150671466Y-100324155D01*
X150702605Y-100254422D01*
X150741191Y-100163817D01*
X150747788Y-100148027D01*
X150777845Y-100075710D01*
X150804824Y-100010363D01*
X150827562Y-99954844D01*
X150844892Y-99912010D01*
X150855650Y-99884719D01*
X150858757Y-99875880D01*
X150848758Y-99871125D01*
X150822481Y-99865848D01*
X150794209Y-99862169D01*
X150764052Y-99857412D01*
X150716265Y-99847966D01*
X150655086Y-99834758D01*
X150584752Y-99818714D01*
X150509504Y-99800758D01*
X150480943Y-99793735D01*
X150375882Y-99768147D01*
X150288218Y-99748085D01*
X150213630Y-99732907D01*
X150147795Y-99721973D01*
X150086391Y-99714642D01*
X150025096Y-99710273D01*
X149959588Y-99708225D01*
X149901570Y-99707827D01*
X149732124Y-99714490D01*
G36*
X151133453Y-101491405D02*
G01*
X151132959Y-101525301D01*
X151129330Y-101600140D01*
X151121720Y-101662339D01*
X151109386Y-101718922D01*
X151065011Y-101845014D01*
X151002098Y-101959617D01*
X150921936Y-102060506D01*
X150825438Y-102146862D01*
X150713520Y-102217870D01*
X150587095Y-102272714D01*
X150447076Y-102310576D01*
X150410847Y-102316289D01*
X150331853Y-102322251D01*
X150243539Y-102322584D01*
X150153773Y-102317597D01*
X150070420Y-102307604D01*
X150001349Y-102292916D01*
X149914885Y-102262687D01*
X149804984Y-102207995D01*
X149707654Y-102140481D01*
X149645565Y-102089494D01*
X149642303Y-102185560D01*
X149639041Y-102281627D01*
X149216148Y-102281627D01*
X149205241Y-102281624D01*
X149110754Y-102281318D01*
X149024029Y-102280554D01*
X148947535Y-102279389D01*
X148883741Y-102277880D01*
X148835116Y-102276085D01*
X148804131Y-102274059D01*
X148793254Y-102271860D01*
X148793276Y-102271401D01*
X148800312Y-102255848D01*
X148816132Y-102233009D01*
X148820432Y-102227576D01*
X148831475Y-102213544D01*
X148841009Y-102200124D01*
X148849159Y-102185660D01*
X148856050Y-102168494D01*
X148861809Y-102146972D01*
X148866560Y-102119436D01*
X148870429Y-102084230D01*
X148873542Y-102039698D01*
X148876023Y-101984184D01*
X148877998Y-101916031D01*
X148879592Y-101833583D01*
X148880932Y-101735184D01*
X148882142Y-101619177D01*
X148883347Y-101483906D01*
X148884293Y-101372524D01*
X149685076Y-101372524D01*
X149685076Y-101568400D01*
X149729746Y-101624911D01*
X149742483Y-101640150D01*
X149789302Y-101682782D01*
X149849953Y-101718610D01*
X149860595Y-101723788D01*
X149899374Y-101740683D01*
X149934390Y-101750847D01*
X149974420Y-101756263D01*
X150028239Y-101758916D01*
X150046346Y-101759321D01*
X150121709Y-101756478D01*
X150182441Y-101744558D01*
X150234150Y-101721975D01*
X150282444Y-101687149D01*
X150287501Y-101682736D01*
X150335970Y-101627098D01*
X150364157Y-101563271D01*
X150373450Y-101488220D01*
X150366218Y-101416631D01*
X150341494Y-101353583D01*
X150296947Y-101295696D01*
X150242017Y-101248746D01*
X150169592Y-101208899D01*
X150083038Y-101181201D01*
X149980368Y-101165034D01*
X149859592Y-101159780D01*
X149850705Y-101159795D01*
X149795358Y-101160593D01*
X149748434Y-101162426D01*
X149714651Y-101165049D01*
X149698726Y-101168212D01*
X149694641Y-101174679D01*
X149690270Y-101196813D01*
X149687302Y-101235926D01*
X149685612Y-101293877D01*
X149685076Y-101372524D01*
X148884293Y-101372524D01*
X148884673Y-101327716D01*
X148885926Y-101184950D01*
X148887349Y-101039880D01*
X148888874Y-100913965D01*
X148890631Y-100805374D01*
X148892749Y-100712272D01*
X148895358Y-100632829D01*
X148898588Y-100565211D01*
X148902567Y-100507587D01*
X148907426Y-100458123D01*
X148913295Y-100414988D01*
X148920302Y-100376348D01*
X148928578Y-100340372D01*
X148938252Y-100305227D01*
X148949454Y-100269080D01*
X148962314Y-100230099D01*
X148977788Y-100187029D01*
X149020692Y-100094809D01*
X149074433Y-100015037D01*
X149143274Y-99940903D01*
X149220883Y-99877343D01*
X149325459Y-99815663D01*
X149444942Y-99768140D01*
X149580206Y-99734505D01*
X149732124Y-99714490D01*
X149901570Y-99707827D01*
X149959588Y-99708225D01*
X150025096Y-99710273D01*
X150086391Y-99714642D01*
X150147795Y-99721973D01*
X150213630Y-99732907D01*
X150288218Y-99748085D01*
X150375882Y-99768147D01*
X150480943Y-99793735D01*
X150509504Y-99800758D01*
X150584752Y-99818714D01*
X150655086Y-99834758D01*
X150716265Y-99847966D01*
X150764052Y-99857412D01*
X150794209Y-99862169D01*
X150822481Y-99865848D01*
X150848758Y-99871125D01*
X150858757Y-99875880D01*
X150855650Y-99884719D01*
X150844892Y-99912010D01*
X150827562Y-99954844D01*
X150804824Y-100010363D01*
X150777845Y-100075710D01*
X150747788Y-100148027D01*
X150741191Y-100163817D01*
X150702605Y-100254422D01*
X150671466Y-100324155D01*
X150647615Y-100373343D01*
X150630896Y-100402312D01*
X150621152Y-100411390D01*
X150613464Y-100409343D01*
X150587113Y-100399698D01*
X150548680Y-100384128D01*
X150503520Y-100364753D01*
X150408991Y-100326752D01*
X150272178Y-100285718D01*
X150130987Y-100260550D01*
X150093012Y-100256549D01*
X149989757Y-100254385D01*
X149902650Y-100267560D01*
X149830827Y-100296694D01*
X149773429Y-100342404D01*
X149729594Y-100405310D01*
X149698460Y-100486030D01*
X149679168Y-100585183D01*
X149671748Y-100644162D01*
X149833634Y-100637383D01*
X149960193Y-100635751D01*
X150111649Y-100642132D01*
X150260094Y-100656715D01*
X150396276Y-100678820D01*
X150460943Y-100693759D01*
X150593188Y-100736679D01*
X150715460Y-100793278D01*
X150825383Y-100861955D01*
X150920581Y-100941108D01*
X150998678Y-101029134D01*
X151057297Y-101124431D01*
X151081293Y-101176802D01*
X151106930Y-101247528D01*
X151123176Y-101318750D01*
X151131520Y-101397650D01*
X151133388Y-101488220D01*
X151133453Y-101491405D01*
G37*
X155352098Y-98336992D02*
X155341233Y-98450931D01*
X155309616Y-98558554D01*
X155258713Y-98657553D01*
X155189991Y-98745622D01*
X155104917Y-98820454D01*
X155007930Y-98878322D01*
X154901662Y-98917943D01*
X154794648Y-98936511D01*
X154688998Y-98935372D01*
X154586823Y-98915868D01*
X154490232Y-98879344D01*
X154401336Y-98827143D01*
X154322244Y-98760611D01*
X154255067Y-98681090D01*
X154201915Y-98589925D01*
X154164897Y-98488461D01*
X154146125Y-98378040D01*
X154144187Y-98328144D01*
X154144187Y-98240205D01*
X154092258Y-98240205D01*
X154055951Y-98243049D01*
X154029053Y-98254849D01*
X154001947Y-98278587D01*
X153963565Y-98316969D01*
X153963565Y-100508540D01*
X153963574Y-100770677D01*
X153963606Y-101011179D01*
X153963670Y-101230986D01*
X153963774Y-101431039D01*
X153963925Y-101612282D01*
X153964132Y-101775654D01*
X153964404Y-101922098D01*
X153964748Y-102052555D01*
X153965172Y-102167967D01*
X153965685Y-102269276D01*
X153966295Y-102357422D01*
X153967010Y-102433348D01*
X153967838Y-102497995D01*
X153968787Y-102552305D01*
X153969865Y-102597218D01*
X153971081Y-102633678D01*
X153972443Y-102662625D01*
X153973959Y-102685001D01*
X153975636Y-102701747D01*
X153977484Y-102713806D01*
X153979511Y-102722118D01*
X153981723Y-102727625D01*
X153982806Y-102729475D01*
X153986969Y-102736487D01*
X153990503Y-102742934D01*
X153994333Y-102748838D01*
X153999380Y-102754224D01*
X154006569Y-102759116D01*
X154016821Y-102763536D01*
X154031062Y-102767510D01*
X154050212Y-102771059D01*
X154075197Y-102774208D01*
X154106938Y-102776980D01*
X154146360Y-102779399D01*
X154194384Y-102781489D01*
X154251935Y-102783273D01*
X154319935Y-102784775D01*
X154399308Y-102786018D01*
X154490977Y-102787027D01*
X154595864Y-102787823D01*
X154714894Y-102788432D01*
X154848988Y-102788877D01*
X154999071Y-102789181D01*
X155166065Y-102789368D01*
X155350894Y-102789462D01*
X155554481Y-102789486D01*
X155777748Y-102789463D01*
X156021620Y-102789418D01*
X156287019Y-102789375D01*
X156325402Y-102789370D01*
X156592380Y-102789327D01*
X156837700Y-102789256D01*
X157062281Y-102789151D01*
X157267043Y-102789004D01*
X157452904Y-102788807D01*
X157620786Y-102788554D01*
X157771606Y-102788238D01*
X157906285Y-102787851D01*
X158025742Y-102787385D01*
X158130897Y-102786835D01*
X158222669Y-102786191D01*
X158301977Y-102785449D01*
X158369741Y-102784599D01*
X158426880Y-102783635D01*
X158474315Y-102782549D01*
X158512964Y-102781335D01*
X158543747Y-102779985D01*
X158567583Y-102778493D01*
X158585392Y-102776849D01*
X158598093Y-102775049D01*
X158606606Y-102773083D01*
X158610964Y-102771415D01*
X158619426Y-102767844D01*
X158627195Y-102765208D01*
X158634300Y-102762572D01*
X158640771Y-102759000D01*
X158646637Y-102753559D01*
X158651927Y-102745313D01*
X158656672Y-102733328D01*
X158660900Y-102716669D01*
X158664641Y-102694401D01*
X158667925Y-102665590D01*
X158670781Y-102629301D01*
X158673238Y-102584599D01*
X158675327Y-102530549D01*
X158677076Y-102466217D01*
X158678515Y-102390668D01*
X158679674Y-102302968D01*
X158680581Y-102202181D01*
X158681267Y-102087372D01*
X158681761Y-101957608D01*
X158682093Y-101811953D01*
X158682291Y-101649473D01*
X158682385Y-101469233D01*
X158682406Y-101270298D01*
X158682383Y-101051734D01*
X158682344Y-100812606D01*
X158682320Y-100551978D01*
X158682320Y-100509827D01*
X158682334Y-100246930D01*
X158682359Y-100005670D01*
X158682369Y-99785103D01*
X158682340Y-99584290D01*
X158682246Y-99402287D01*
X158682060Y-99238154D01*
X158681757Y-99090949D01*
X158681312Y-98959730D01*
X158680732Y-98849805D01*
X158377895Y-98849805D01*
X158338105Y-98907649D01*
X158326934Y-98923417D01*
X158316864Y-98937379D01*
X158307836Y-98950722D01*
X158299795Y-98964631D01*
X158292684Y-98980294D01*
X158286445Y-98998896D01*
X158281023Y-99021624D01*
X158276360Y-99049665D01*
X158272399Y-99084205D01*
X158269083Y-99126430D01*
X158266357Y-99177527D01*
X158264162Y-99238682D01*
X158262443Y-99311082D01*
X158261142Y-99395913D01*
X158260203Y-99494360D01*
X158259568Y-99607612D01*
X158259182Y-99736854D01*
X158258986Y-99883272D01*
X158258925Y-100048054D01*
X158258941Y-100232385D01*
X158258978Y-100437451D01*
X158258987Y-100560071D01*
X158258963Y-100777020D01*
X158258929Y-100972580D01*
X158258941Y-101147937D01*
X158259056Y-101304279D01*
X158259328Y-101442795D01*
X158259816Y-101564672D01*
X158260574Y-101671098D01*
X158261660Y-101763260D01*
X158263129Y-101842347D01*
X158265038Y-101909546D01*
X158267442Y-101966045D01*
X158270399Y-102013031D01*
X158273964Y-102051693D01*
X158278193Y-102083218D01*
X158283144Y-102108793D01*
X158288871Y-102129608D01*
X158295431Y-102146849D01*
X158302881Y-102161703D01*
X158311277Y-102175360D01*
X158320674Y-102189007D01*
X158331130Y-102203831D01*
X158337221Y-102212721D01*
X158375994Y-102270338D01*
X157844430Y-102270338D01*
X157721181Y-102270303D01*
X157618685Y-102270153D01*
X157535118Y-102269816D01*
X157468654Y-102269224D01*
X157417469Y-102268305D01*
X157379739Y-102266989D01*
X157353638Y-102265207D01*
X157337342Y-102262889D01*
X157329026Y-102259964D01*
X157326866Y-102256362D01*
X157329037Y-102252013D01*
X157330233Y-102250583D01*
X157355383Y-102213511D01*
X157381281Y-102160710D01*
X157404890Y-102098708D01*
X157413159Y-102072295D01*
X157417776Y-102054354D01*
X157421677Y-102033293D01*
X157424946Y-102007027D01*
X157427664Y-101973470D01*
X157429913Y-101930537D01*
X157431775Y-101876142D01*
X157433334Y-101808200D01*
X157434670Y-101724626D01*
X157435867Y-101623333D01*
X157437006Y-101502238D01*
X157437383Y-101457538D01*
X157438400Y-101332387D01*
X157439158Y-101228020D01*
X157439601Y-101142645D01*
X157439668Y-101074471D01*
X157439303Y-101021703D01*
X157438446Y-100982552D01*
X157437039Y-100955223D01*
X157435023Y-100937924D01*
X157432341Y-100928864D01*
X157428934Y-100926250D01*
X157424742Y-100928289D01*
X157420269Y-100932605D01*
X157409914Y-100945540D01*
X157387856Y-100974614D01*
X157355655Y-101017697D01*
X157314872Y-101072656D01*
X157267068Y-101137361D01*
X157213803Y-101209680D01*
X157156638Y-101287482D01*
X157097135Y-101368636D01*
X157036853Y-101451010D01*
X156977353Y-101532474D01*
X156920196Y-101610895D01*
X156866943Y-101684142D01*
X156819155Y-101750085D01*
X156778391Y-101806592D01*
X156746214Y-101851531D01*
X156724183Y-101882772D01*
X156719615Y-101889404D01*
X156696694Y-101926307D01*
X156669886Y-101974297D01*
X156644487Y-102023835D01*
X156641266Y-102030515D01*
X156619588Y-102078710D01*
X156607002Y-102116272D01*
X156601272Y-102152098D01*
X156600154Y-102194138D01*
X156600788Y-102270338D01*
X155446349Y-102270338D01*
X155537513Y-102176607D01*
X155584310Y-102126713D01*
X155634597Y-102070233D01*
X155680642Y-102015964D01*
X155701067Y-101990611D01*
X155731505Y-101951066D01*
X155771560Y-101897854D01*
X155820059Y-101832605D01*
X155875833Y-101756949D01*
X155937709Y-101672515D01*
X156004517Y-101580932D01*
X156075085Y-101483830D01*
X156148243Y-101382839D01*
X156222819Y-101279588D01*
X156297642Y-101175706D01*
X156371541Y-101072823D01*
X156443344Y-100972569D01*
X156511882Y-100876574D01*
X156575982Y-100786465D01*
X156634473Y-100703874D01*
X156686184Y-100630430D01*
X156729945Y-100567762D01*
X156764583Y-100517499D01*
X156788928Y-100481272D01*
X156801809Y-100460709D01*
X156803567Y-100456606D01*
X156795608Y-100445280D01*
X156774813Y-100418100D01*
X156742545Y-100376767D01*
X156700168Y-100322982D01*
X156649045Y-100258444D01*
X156590539Y-100184856D01*
X156526012Y-100103916D01*
X156456829Y-100017326D01*
X156384351Y-99926786D01*
X156309944Y-99833998D01*
X156250215Y-99759640D01*
X155239209Y-99759640D01*
X155233300Y-99772597D01*
X155218970Y-99794846D01*
X155217923Y-99796329D01*
X155199136Y-99826482D01*
X155179489Y-99863313D01*
X155175590Y-99871449D01*
X155172054Y-99879878D01*
X155168928Y-99889997D01*
X155166184Y-99903198D01*
X155163790Y-99920876D01*
X155161717Y-99944422D01*
X155159933Y-99975231D01*
X155158410Y-100014695D01*
X155157117Y-100064207D01*
X155156024Y-100125161D01*
X155155101Y-100198949D01*
X155154317Y-100286966D01*
X155153643Y-100390603D01*
X155153048Y-100511254D01*
X155152503Y-100650312D01*
X155151977Y-100809170D01*
X155151443Y-100988027D01*
X155150904Y-101173145D01*
X155150470Y-101337083D01*
X155150207Y-101481241D01*
X155150182Y-101607017D01*
X155150463Y-101715809D01*
X155151117Y-101809015D01*
X155152212Y-101888035D01*
X155153816Y-101954266D01*
X155155995Y-102009108D01*
X155158817Y-102053959D01*
X155162349Y-102090216D01*
X155166659Y-102119279D01*
X155171815Y-102142547D01*
X155177883Y-102161417D01*
X155184931Y-102177289D01*
X155193027Y-102191560D01*
X155202238Y-102205629D01*
X155210738Y-102218096D01*
X155227874Y-102244390D01*
X155238020Y-102261975D01*
X155239209Y-102265195D01*
X155228302Y-102266272D01*
X155197109Y-102267273D01*
X155147921Y-102268173D01*
X155083031Y-102268948D01*
X155004728Y-102269575D01*
X154915305Y-102270029D01*
X154817054Y-102270287D01*
X154748143Y-102270338D01*
X154643150Y-102270118D01*
X154546308Y-102269486D01*
X154459805Y-102268487D01*
X154385830Y-102267165D01*
X154326572Y-102265564D01*
X154284218Y-102263729D01*
X154260958Y-102261703D01*
X154257076Y-102260431D01*
X154264774Y-102245529D01*
X154272772Y-102237498D01*
X154285944Y-102220372D01*
X154303183Y-102190121D01*
X154315105Y-102165560D01*
X154341743Y-102106649D01*
X154344818Y-100929783D01*
X154347893Y-99752916D01*
X154793551Y-99752916D01*
X154891368Y-99753080D01*
X154981762Y-99753549D01*
X155062328Y-99754285D01*
X155130660Y-99755254D01*
X155184354Y-99756418D01*
X155221003Y-99757741D01*
X155238202Y-99759187D01*
X155239209Y-99759640D01*
X156250215Y-99759640D01*
X156234968Y-99740660D01*
X156160788Y-99648475D01*
X156088767Y-99559142D01*
X156020267Y-99474362D01*
X155956653Y-99395836D01*
X155899286Y-99325264D01*
X155849531Y-99264347D01*
X155808750Y-99214785D01*
X155791586Y-99194116D01*
X155705294Y-99093454D01*
X155628695Y-99010197D01*
X155559881Y-98942376D01*
X155496946Y-98888027D01*
X155487565Y-98880660D01*
X155448054Y-98850055D01*
X156579814Y-98849805D01*
X156574525Y-98897782D01*
X156577828Y-98955126D01*
X156599359Y-99023401D01*
X156639333Y-99103150D01*
X156684641Y-99175433D01*
X156700859Y-99198078D01*
X156728912Y-99235634D01*
X156767128Y-99285959D01*
X156813835Y-99346911D01*
X156867359Y-99416349D01*
X156926029Y-99492132D01*
X156988173Y-99572118D01*
X157052119Y-99654166D01*
X157116193Y-99736134D01*
X157178725Y-99815881D01*
X157238041Y-99891265D01*
X157292469Y-99960145D01*
X157340337Y-100020380D01*
X157379973Y-100069827D01*
X157409704Y-100106346D01*
X157427859Y-100127796D01*
X157430918Y-100131094D01*
X157433777Y-100123087D01*
X157435991Y-100092793D01*
X157437555Y-100040494D01*
X157438465Y-99966469D01*
X157438718Y-99871001D01*
X157438311Y-99754372D01*
X157437402Y-99634383D01*
X157436080Y-99502271D01*
X157434555Y-99390532D01*
X157432579Y-99296963D01*
X157429904Y-99219357D01*
X157426280Y-99155512D01*
X157421459Y-99103221D01*
X157415192Y-99060282D01*
X157407230Y-99024489D01*
X157397325Y-98993638D01*
X157385229Y-98965524D01*
X157370691Y-98937943D01*
X157356009Y-98912904D01*
X157318012Y-98849805D01*
X158377895Y-98849805D01*
X158680732Y-98849805D01*
X158680699Y-98843555D01*
X158679893Y-98741482D01*
X158678868Y-98652571D01*
X158677598Y-98575879D01*
X158676058Y-98510465D01*
X158674222Y-98455387D01*
X158672065Y-98409703D01*
X158669561Y-98372472D01*
X158666685Y-98342751D01*
X158663411Y-98319600D01*
X158659713Y-98302077D01*
X158655567Y-98289239D01*
X158650945Y-98280146D01*
X158645824Y-98273856D01*
X158640176Y-98269426D01*
X158633977Y-98265916D01*
X158627202Y-98262383D01*
X158621206Y-98258814D01*
X158615973Y-98256238D01*
X158607797Y-98253910D01*
X158595584Y-98251816D01*
X158578239Y-98249945D01*
X158554667Y-98248285D01*
X158523775Y-98246822D01*
X158484466Y-98245546D01*
X158435648Y-98244442D01*
X158376225Y-98243499D01*
X158305102Y-98242705D01*
X158221186Y-98242047D01*
X158123381Y-98241513D01*
X158010592Y-98241091D01*
X157881727Y-98240767D01*
X157735689Y-98240530D01*
X157571384Y-98240368D01*
X157387718Y-98240268D01*
X157183595Y-98240218D01*
X156972451Y-98240205D01*
X155352098Y-98240205D01*
X155352098Y-98336992D01*
G36*
X158681312Y-98959730D02*
G01*
X158681757Y-99090949D01*
X158682060Y-99238154D01*
X158682246Y-99402287D01*
X158682340Y-99584290D01*
X158682369Y-99785103D01*
X158682359Y-100005670D01*
X158682334Y-100246930D01*
X158682320Y-100509827D01*
X158682320Y-100551978D01*
X158682344Y-100812606D01*
X158682383Y-101051734D01*
X158682406Y-101270298D01*
X158682385Y-101469233D01*
X158682291Y-101649473D01*
X158682093Y-101811953D01*
X158681761Y-101957608D01*
X158681267Y-102087372D01*
X158680581Y-102202181D01*
X158679674Y-102302968D01*
X158678515Y-102390668D01*
X158677076Y-102466217D01*
X158675327Y-102530549D01*
X158673238Y-102584599D01*
X158670781Y-102629301D01*
X158667925Y-102665590D01*
X158664641Y-102694401D01*
X158660900Y-102716669D01*
X158656672Y-102733328D01*
X158651927Y-102745313D01*
X158646637Y-102753559D01*
X158640771Y-102759000D01*
X158634300Y-102762572D01*
X158627195Y-102765208D01*
X158619426Y-102767844D01*
X158610964Y-102771415D01*
X158606606Y-102773083D01*
X158598093Y-102775049D01*
X158585392Y-102776849D01*
X158567583Y-102778493D01*
X158543747Y-102779985D01*
X158512964Y-102781335D01*
X158474315Y-102782549D01*
X158426880Y-102783635D01*
X158369741Y-102784599D01*
X158301977Y-102785449D01*
X158222669Y-102786191D01*
X158130897Y-102786835D01*
X158025742Y-102787385D01*
X157906285Y-102787851D01*
X157771606Y-102788238D01*
X157620786Y-102788554D01*
X157452904Y-102788807D01*
X157267043Y-102789004D01*
X157062281Y-102789151D01*
X156837700Y-102789256D01*
X156592380Y-102789327D01*
X156325402Y-102789370D01*
X156287019Y-102789375D01*
X156021620Y-102789418D01*
X155777748Y-102789463D01*
X155554481Y-102789486D01*
X155350894Y-102789462D01*
X155166065Y-102789368D01*
X154999071Y-102789181D01*
X154848988Y-102788877D01*
X154714894Y-102788432D01*
X154595864Y-102787823D01*
X154490977Y-102787027D01*
X154399308Y-102786018D01*
X154319935Y-102784775D01*
X154251935Y-102783273D01*
X154194384Y-102781489D01*
X154146360Y-102779399D01*
X154106938Y-102776980D01*
X154075197Y-102774208D01*
X154050212Y-102771059D01*
X154031062Y-102767510D01*
X154016821Y-102763536D01*
X154006569Y-102759116D01*
X153999380Y-102754224D01*
X153994333Y-102748838D01*
X153990503Y-102742934D01*
X153986969Y-102736487D01*
X153982806Y-102729475D01*
X153981723Y-102727625D01*
X153979511Y-102722118D01*
X153977484Y-102713806D01*
X153975636Y-102701747D01*
X153973959Y-102685001D01*
X153972443Y-102662625D01*
X153971081Y-102633678D01*
X153969865Y-102597218D01*
X153968787Y-102552305D01*
X153967838Y-102497995D01*
X153967010Y-102433348D01*
X153966295Y-102357422D01*
X153965685Y-102269276D01*
X153965640Y-102260431D01*
X154257076Y-102260431D01*
X154260958Y-102261703D01*
X154284218Y-102263729D01*
X154326572Y-102265564D01*
X154385830Y-102267165D01*
X154459805Y-102268487D01*
X154546308Y-102269486D01*
X154643150Y-102270118D01*
X154748143Y-102270338D01*
X155446349Y-102270338D01*
X156600788Y-102270338D01*
X156600154Y-102194138D01*
X156601272Y-102152098D01*
X156607002Y-102116272D01*
X156619588Y-102078710D01*
X156641266Y-102030515D01*
X156644487Y-102023835D01*
X156669886Y-101974297D01*
X156696694Y-101926307D01*
X156719615Y-101889404D01*
X156724183Y-101882772D01*
X156746214Y-101851531D01*
X156778391Y-101806592D01*
X156819155Y-101750085D01*
X156866943Y-101684142D01*
X156920196Y-101610895D01*
X156977353Y-101532474D01*
X157036853Y-101451010D01*
X157097135Y-101368636D01*
X157156638Y-101287482D01*
X157213803Y-101209680D01*
X157267068Y-101137361D01*
X157314872Y-101072656D01*
X157355655Y-101017697D01*
X157387856Y-100974614D01*
X157409914Y-100945540D01*
X157420269Y-100932605D01*
X157424742Y-100928289D01*
X157428934Y-100926250D01*
X157432341Y-100928864D01*
X157435023Y-100937924D01*
X157437039Y-100955223D01*
X157438446Y-100982552D01*
X157439303Y-101021703D01*
X157439668Y-101074471D01*
X157439601Y-101142645D01*
X157439158Y-101228020D01*
X157438400Y-101332387D01*
X157437383Y-101457538D01*
X157437006Y-101502238D01*
X157435867Y-101623333D01*
X157434670Y-101724626D01*
X157433334Y-101808200D01*
X157431775Y-101876142D01*
X157429913Y-101930537D01*
X157427664Y-101973470D01*
X157424946Y-102007027D01*
X157421677Y-102033293D01*
X157417776Y-102054354D01*
X157413159Y-102072295D01*
X157404890Y-102098708D01*
X157381281Y-102160710D01*
X157355383Y-102213511D01*
X157330233Y-102250583D01*
X157329037Y-102252013D01*
X157326866Y-102256362D01*
X157329026Y-102259964D01*
X157337342Y-102262889D01*
X157353638Y-102265207D01*
X157379739Y-102266989D01*
X157417469Y-102268305D01*
X157468654Y-102269224D01*
X157535118Y-102269816D01*
X157618685Y-102270153D01*
X157721181Y-102270303D01*
X157844430Y-102270338D01*
X158375994Y-102270338D01*
X158337221Y-102212721D01*
X158331130Y-102203831D01*
X158320674Y-102189007D01*
X158311277Y-102175360D01*
X158302881Y-102161703D01*
X158295431Y-102146849D01*
X158288871Y-102129608D01*
X158283144Y-102108793D01*
X158278193Y-102083218D01*
X158273964Y-102051693D01*
X158270399Y-102013031D01*
X158267442Y-101966045D01*
X158265038Y-101909546D01*
X158263129Y-101842347D01*
X158261660Y-101763260D01*
X158260574Y-101671098D01*
X158259816Y-101564672D01*
X158259328Y-101442795D01*
X158259056Y-101304279D01*
X158258941Y-101147937D01*
X158258929Y-100972580D01*
X158258963Y-100777020D01*
X158258987Y-100560071D01*
X158258978Y-100437451D01*
X158258941Y-100232385D01*
X158258925Y-100048054D01*
X158258986Y-99883272D01*
X158259182Y-99736854D01*
X158259568Y-99607612D01*
X158260203Y-99494360D01*
X158261142Y-99395913D01*
X158262443Y-99311082D01*
X158264162Y-99238682D01*
X158266357Y-99177527D01*
X158269083Y-99126430D01*
X158272399Y-99084205D01*
X158276360Y-99049665D01*
X158281023Y-99021624D01*
X158286445Y-98998896D01*
X158292684Y-98980294D01*
X158299795Y-98964631D01*
X158307836Y-98950722D01*
X158316864Y-98937379D01*
X158326934Y-98923417D01*
X158338105Y-98907649D01*
X158377895Y-98849805D01*
X157318012Y-98849805D01*
X157356009Y-98912904D01*
X157370691Y-98937943D01*
X157385229Y-98965524D01*
X157397325Y-98993638D01*
X157407230Y-99024489D01*
X157415192Y-99060282D01*
X157421459Y-99103221D01*
X157426280Y-99155512D01*
X157429904Y-99219357D01*
X157432579Y-99296963D01*
X157434555Y-99390532D01*
X157436080Y-99502271D01*
X157437402Y-99634383D01*
X157438311Y-99754372D01*
X157438718Y-99871001D01*
X157438465Y-99966469D01*
X157437555Y-100040494D01*
X157435991Y-100092793D01*
X157433777Y-100123087D01*
X157430918Y-100131094D01*
X157427859Y-100127796D01*
X157409704Y-100106346D01*
X157379973Y-100069827D01*
X157340337Y-100020380D01*
X157292469Y-99960145D01*
X157238041Y-99891265D01*
X157178725Y-99815881D01*
X157116193Y-99736134D01*
X157052119Y-99654166D01*
X156988173Y-99572118D01*
X156926029Y-99492132D01*
X156867359Y-99416349D01*
X156813835Y-99346911D01*
X156767128Y-99285959D01*
X156728912Y-99235634D01*
X156700859Y-99198078D01*
X156684641Y-99175433D01*
X156639333Y-99103150D01*
X156599359Y-99023401D01*
X156577828Y-98955126D01*
X156574525Y-98897782D01*
X156579814Y-98849805D01*
X155448054Y-98850055D01*
X155487565Y-98880660D01*
X155496946Y-98888027D01*
X155559881Y-98942376D01*
X155628695Y-99010197D01*
X155705294Y-99093454D01*
X155791586Y-99194116D01*
X155808750Y-99214785D01*
X155849531Y-99264347D01*
X155899286Y-99325264D01*
X155956653Y-99395836D01*
X156020267Y-99474362D01*
X156088767Y-99559142D01*
X156160788Y-99648475D01*
X156234968Y-99740660D01*
X156250215Y-99759640D01*
X156309944Y-99833998D01*
X156384351Y-99926786D01*
X156456829Y-100017326D01*
X156526012Y-100103916D01*
X156590539Y-100184856D01*
X156649045Y-100258444D01*
X156700168Y-100322982D01*
X156742545Y-100376767D01*
X156774813Y-100418100D01*
X156795608Y-100445280D01*
X156803567Y-100456606D01*
X156801809Y-100460709D01*
X156788928Y-100481272D01*
X156764583Y-100517499D01*
X156729945Y-100567762D01*
X156686184Y-100630430D01*
X156634473Y-100703874D01*
X156575982Y-100786465D01*
X156511882Y-100876574D01*
X156443344Y-100972569D01*
X156371541Y-101072823D01*
X156297642Y-101175706D01*
X156222819Y-101279588D01*
X156148243Y-101382839D01*
X156075085Y-101483830D01*
X156004517Y-101580932D01*
X155937709Y-101672515D01*
X155875833Y-101756949D01*
X155820059Y-101832605D01*
X155771560Y-101897854D01*
X155731505Y-101951066D01*
X155701067Y-101990611D01*
X155680642Y-102015964D01*
X155634597Y-102070233D01*
X155584310Y-102126713D01*
X155537513Y-102176607D01*
X155446349Y-102270338D01*
X154748143Y-102270338D01*
X154817054Y-102270287D01*
X154915305Y-102270029D01*
X155004728Y-102269575D01*
X155083031Y-102268948D01*
X155147921Y-102268173D01*
X155197109Y-102267273D01*
X155228302Y-102266272D01*
X155239209Y-102265195D01*
X155238020Y-102261975D01*
X155227874Y-102244390D01*
X155210738Y-102218096D01*
X155202238Y-102205629D01*
X155193027Y-102191560D01*
X155184931Y-102177289D01*
X155177883Y-102161417D01*
X155171815Y-102142547D01*
X155166659Y-102119279D01*
X155162349Y-102090216D01*
X155158817Y-102053959D01*
X155155995Y-102009108D01*
X155153816Y-101954266D01*
X155152212Y-101888035D01*
X155151117Y-101809015D01*
X155150463Y-101715809D01*
X155150182Y-101607017D01*
X155150207Y-101481241D01*
X155150470Y-101337083D01*
X155150904Y-101173145D01*
X155151443Y-100988027D01*
X155151977Y-100809170D01*
X155152503Y-100650312D01*
X155153048Y-100511254D01*
X155153643Y-100390603D01*
X155154317Y-100286966D01*
X155155101Y-100198949D01*
X155156024Y-100125161D01*
X155157117Y-100064207D01*
X155158410Y-100014695D01*
X155159933Y-99975231D01*
X155161717Y-99944422D01*
X155163790Y-99920876D01*
X155166184Y-99903198D01*
X155168928Y-99889997D01*
X155172054Y-99879878D01*
X155175590Y-99871449D01*
X155179489Y-99863313D01*
X155199136Y-99826482D01*
X155217923Y-99796329D01*
X155218970Y-99794846D01*
X155233300Y-99772597D01*
X155239209Y-99759640D01*
X155238202Y-99759187D01*
X155221003Y-99757741D01*
X155184354Y-99756418D01*
X155130660Y-99755254D01*
X155062328Y-99754285D01*
X154981762Y-99753549D01*
X154891368Y-99753080D01*
X154793551Y-99752916D01*
X154347893Y-99752916D01*
X154344818Y-100929783D01*
X154341743Y-102106649D01*
X154315105Y-102165560D01*
X154303183Y-102190121D01*
X154285944Y-102220372D01*
X154272772Y-102237498D01*
X154264774Y-102245529D01*
X154257076Y-102260431D01*
X153965640Y-102260431D01*
X153965172Y-102167967D01*
X153964748Y-102052555D01*
X153964404Y-101922098D01*
X153964132Y-101775654D01*
X153963925Y-101612282D01*
X153963774Y-101431039D01*
X153963670Y-101230986D01*
X153963606Y-101011179D01*
X153963574Y-100770677D01*
X153963565Y-100508540D01*
X153963565Y-98316969D01*
X154001947Y-98278587D01*
X154029053Y-98254849D01*
X154055951Y-98243049D01*
X154092258Y-98240205D01*
X154144187Y-98240205D01*
X154144187Y-98328144D01*
X154146125Y-98378040D01*
X154164897Y-98488461D01*
X154201915Y-98589925D01*
X154255067Y-98681090D01*
X154322244Y-98760611D01*
X154401336Y-98827143D01*
X154490232Y-98879344D01*
X154586823Y-98915868D01*
X154688998Y-98935372D01*
X154794648Y-98936511D01*
X154901662Y-98917943D01*
X155007930Y-98878322D01*
X155104917Y-98820454D01*
X155189991Y-98745622D01*
X155258713Y-98657553D01*
X155309616Y-98558554D01*
X155341233Y-98450931D01*
X155352098Y-98336992D01*
X155352098Y-98240205D01*
X156972451Y-98240205D01*
X157183595Y-98240218D01*
X157387718Y-98240268D01*
X157571384Y-98240368D01*
X157735689Y-98240530D01*
X157881727Y-98240767D01*
X158010592Y-98241091D01*
X158123381Y-98241513D01*
X158221186Y-98242047D01*
X158305102Y-98242705D01*
X158376225Y-98243499D01*
X158435648Y-98244442D01*
X158484466Y-98245546D01*
X158523775Y-98246822D01*
X158554667Y-98248285D01*
X158578239Y-98249945D01*
X158595584Y-98251816D01*
X158607797Y-98253910D01*
X158615973Y-98256238D01*
X158621206Y-98258814D01*
X158627202Y-98262383D01*
X158633977Y-98265916D01*
X158640176Y-98269426D01*
X158645824Y-98273856D01*
X158650945Y-98280146D01*
X158655567Y-98289239D01*
X158659713Y-98302077D01*
X158663411Y-98319600D01*
X158666685Y-98342751D01*
X158669561Y-98372472D01*
X158672065Y-98409703D01*
X158674222Y-98455387D01*
X158676058Y-98510465D01*
X158677598Y-98575879D01*
X158678868Y-98652571D01*
X158679893Y-98741482D01*
X158680699Y-98843555D01*
X158680732Y-98849805D01*
X158681312Y-98959730D01*
G37*
D12*
X131044400Y-101375600D02*
X131044400Y-102144200D01*
X133225000Y-99195000D02*
X131044400Y-101375600D01*
X131225000Y-97195000D02*
X133725000Y-99695000D01*
X133725000Y-102195000D02*
X133725000Y-99695000D01*
X133725000Y-97195000D02*
X133725000Y-102195000D01*
X135725000Y-101695000D02*
X135725000Y-102195000D01*
X138225000Y-99195000D02*
X135725000Y-101695000D01*
X136725000Y-99195000D02*
X138225000Y-99195000D01*
X136725000Y-99195000D02*
G75*
G02*
X136725000Y-97195000I0J1000000D01*
G01*
X138225000Y-97195000D02*
X136725000Y-97195000D01*
X138225000Y-97195000D02*
X138225000Y-102195000D01*
%TD*%
M02*
